<svg width="132" height="30" fill="none" xmlns="http://www.w3.org/2000/svg"><g clip-path="url(#a)" fill-rule="evenodd" clip-rule="evenodd"><path d="M131.999 9.321l-.204.53c-.204.528-.348.854-.552 1.281-.123.265-.266.59-.47 1.039l-4.191 10.42c-.736 1.852-2.187 2.91-4.007 2.91a4.902 4.902 0 01-1.778-.366l-.368-.163.163-.386c.593-1.242.961-1.649 2.188-1.75.47-.041.96-.59 1.328-1.425l.184-.428-3.802-8.833c-.204-.468-.348-.834-.511-1.2a34.753 34.753 0 00-.47-1.1l-.246-.55h1.881c1.084 0 1.554.326 1.983 1.385 0 0 2.085 5.19 2.249 5.576.143.387.327 1.303.327 1.303h.102s.143-.814.307-1.282c.163-.468 2.024-5.556 2.024-5.556.388-1.039.92-1.405 2.024-1.405h1.839zM108.593 9.2c-1.267 0-2.842 1.098-3.189 2.503v-.835c0-.733-.45-1.526-1.84-1.526h-1.043v12.13h2.965v-5.048c0-.753.081-1.383.245-1.933.45-1.445 1.533-2.381 2.801-2.381.306 0 .552.06.552.06l.49.123V9.3l-.327-.04c-.02-.021-.327-.062-.654-.062zm8.587 0c-1.268 0-2.842 1.098-3.189 2.503v-.835c0-.733-.429-1.526-1.84-1.526h-1.043v12.13h2.965v-5.048c0-.753.081-1.383.245-1.933.45-1.445 1.533-2.381 2.801-2.381.306 0 .552.06.552.06l.49.123V9.3l-.327-.04c-.02-.021-.327-.062-.654-.062zm-62.23.264c-3.7 0-6.48 2.707-6.48 6.31 0 3.622 2.78 6.37 6.48 6.37 3.639 0 6.5-2.789 6.5-6.37 0-3.583-2.78-6.31-6.5-6.31zm0 10.013c-1.983 0-3.476-1.587-3.476-3.683 0-2.076 1.493-3.644 3.476-3.644 1.983 0 3.495 1.568 3.495 3.644 0 2.096-1.492 3.683-3.495 3.683zM41.539 9.464c-1.677 0-2.822.672-3.496 1.262h-.082s.082-.672.082-1.343v-2.3c0-1.242-.593-1.832-1.84-1.832h-1.124v10.624c.143 3.867 2.555 6.269 6.276 6.269 3.434 0 6.03-2.727 6.03-6.33 0-3.623-2.514-6.35-5.846-6.35zm-.491 10.034c-1.901 0-3.107-1.852-3.107-3.643 0-2.707 1.737-3.684 3.168-3.684 1.636 0 3.312 1.364 3.312 3.663-.02 2.28-1.717 3.664-3.373 3.664zM81.544 9.464c-1.676 0-2.82.672-3.495 1.262h-.082s.082-.672.082-1.343v-2.3c0-1.242-.593-1.832-1.82-1.832h-1.124v10.624c.143 3.867 2.555 6.269 6.276 6.269 3.434 0 6.03-2.727 6.03-6.33-.02-3.623-2.534-6.35-5.867-6.35zm-.49 10.034c-1.901 0-3.107-1.852-3.107-3.643 0-2.707 1.737-3.684 3.168-3.684 1.636 0 3.312 1.364 3.312 3.663-.02 2.28-1.717 3.664-3.373 3.664z" fill="#E51A4B"/><path d="M71.855 19.213l-2.412-3.826 2.044-3.074c.368-.57.654-.956.982-1.384.225-.305.45-.61.715-.977l.43-.61h-2.229c-1.247 0-1.717.264-2.392 1.384 0 0-.9 1.485-1.022 1.71-.123.203-.43.895-.43.915h-.08s-.287-.651-.45-.916c-.164-.285-1.043-1.71-1.043-1.71-.716-1.098-1.186-1.383-2.392-1.383h-2.228l.45.63c.53.754.838 1.202 1.308 1.873l2.392 3.542-2.024 3.337c-.368.55-.675.957-.981 1.384-.225.306-.45.611-.716.977l-.43.631h2.229c1.247 0 1.717-.264 2.392-1.384 0 0 .9-1.486 1.022-1.71.123-.203.43-.895.45-.915h.081s.287.63.45.916c.164.264 1.043 1.71 1.043 1.71.715 1.098 1.185 1.383 2.392 1.383h2.228l-.45-.63a40.778 40.778 0 01-1.329-1.873zm26.825-.793c-.348 0-.654.142-.94.284l-.041.02c-.634.285-1.39.631-2.29.631-1.533 0-3.537-.956-3.72-3.032h8.524a9.91 9.91 0 00.082-1.282c0-3.42-2.27-5.7-5.601-5.7-3.578 0-6.072 2.606-6.072 6.35 0 3.664 2.964 6.33 6.685 6.33 3.005 0 4.702-1.831 4.763-1.913l.205-.203-.123-.265c-.307-.57-.695-1.22-1.472-1.22zm-3.802-6.778c1.267 0 2.596.773 2.596 2.422h-5.765c.184-1.262 1.472-2.422 3.169-2.422zM12.04 23.202a3.305 3.305 0 014.66 0 3.319 3.319 0 010 4.681 3.268 3.268 0 01-4.66 0c-1.268-1.282-1.268-3.378 0-4.681zm5.56-5.556c-1.287 1.282-1.287 3.379 0 4.681a3.305 3.305 0 004.662 0c1.288-1.302 1.288-3.399 0-4.68a3.305 3.305 0 00-4.661 0zm5.542-5.556c-1.288 1.282-1.288 3.378 0 4.68a3.268 3.268 0 004.661 0c1.288-1.281 1.288-3.378 0-4.68a3.305 3.305 0 00-4.66 0zM6.52 17.646c-1.287 1.282-1.287 3.379 0 4.681a3.305 3.305 0 004.662 0c1.288-1.302 1.288-3.399 0-4.68a3.305 3.305 0 00-4.661 0zM.96 12.09a3.319 3.319 0 000 4.68 3.268 3.268 0 004.66 0c1.288-1.281 1.288-3.378 0-4.68a3.305 3.305 0 00-4.66 0zm11.08 0c-1.288 1.282-1.288 3.378 0 4.68a3.268 3.268 0 004.66 0c1.289-1.281 1.289-3.378 0-4.68-1.267-1.283-3.352-1.283-4.66 0zM6.52 6.534a3.319 3.319 0 000 4.68 3.305 3.305 0 004.662 0 3.319 3.319 0 000-4.68 3.268 3.268 0 00-4.661 0zm11.08 0a3.319 3.319 0 000 4.68 3.305 3.305 0 004.662 0 3.319 3.319 0 000-4.68 3.268 3.268 0 00-4.661 0z" fill="#E51A4B"/><path d="M12.04.977a3.268 3.268 0 014.66 0 3.319 3.319 0 010 4.681 3.305 3.305 0 01-4.66 0c-1.268-1.303-1.268-3.399 0-4.681z" fill="#B0CB1F"/><path d="M38.228 26.825v2.972h-.532v-2.504h-1.349v2.504h-.511v-2.972h2.392zm1.47 0v1.954l2.024-2.177v3.195h-.511v-1.995L39.187 30v-3.175h.511zm5.316.834a1.167 1.167 0 00-.92-.448c-.552 0-1.042.387-1.042 1.1 0 .732.51 1.098 1.042 1.098.307 0 .675-.142.961-.468v.61a1.654 1.654 0 01-.94.306c-.92 0-1.574-.651-1.574-1.547 0-.915.674-1.567 1.574-1.567.47 0 .777.183.92.285v.631h-.02zm.796-.834h.51v1.14h.532c.266 0 .634.02.9.285.122.122.224.326.224.63a.94.94 0 01-.265.672c-.246.245-.573.245-.86.245H45.81v-2.972zm1.001 2.504c.164 0 .327 0 .45-.082.061-.04.184-.142.184-.387 0-.122-.041-.284-.184-.366-.123-.081-.286-.081-.45-.081h-.49v.916h.49zm2.229-2.727l1.226 2.401 1.186-2.401.715 3.195h-.532l-.388-1.852L50.245 30l-1.022-2.055-.368 1.852h-.531l.715-3.195zm6.033.223h.511v2.971h-.51v-.407c-.164.224-.491.51-1.003.51-.756 0-1.43-.53-1.43-1.568 0-1.018.674-1.547 1.43-1.547.573 0 .88.306 1.002.489v-.448zm-1.922 1.486c0 .63.348 1.119.961 1.119.634 0 .981-.53.981-1.099 0-.773-.531-1.1-.98-1.1-.512-.02-.962.347-.962 1.08zm5.578-1.486v1.954l2.024-2.177v3.195h-.511v-1.995L58.198 30v-3.175h.531zm7.034 0v2.972h-.51v-2.504h-1.35v2.504h-.532v-2.972h2.392zm.781 1.485c0-.895.654-1.567 1.574-1.567.9 0 1.574.672 1.574 1.567 0 .896-.675 1.568-1.574 1.568-.9 0-1.574-.672-1.574-1.568zm.531 0c0 .733.511 1.1 1.043 1.1.531 0 1.042-.387 1.042-1.1 0-.732-.49-1.099-1.042-1.099-.532 0-1.043.387-1.043 1.1zm5.701-.651a1.167 1.167 0 00-.92-.448c-.552 0-1.042.387-1.042 1.1 0 .732.51 1.098 1.042 1.098.307 0 .675-.142.961-.468v.61a1.654 1.654 0 01-.94.306c-.92 0-1.574-.651-1.574-1.547 0-.915.674-1.567 1.574-1.567.47 0 .777.183.92.285v.631h-.02zm.818-.834h.512v1.14h.531c.266 0 .634.02.9.285.122.122.224.326.224.63a.94.94 0 01-.265.672c-.266.245-.573.245-.88.245h-1.022v-2.972zm.982 2.504c.163 0 .327 0 .45-.082.06-.04.184-.142.184-.387 0-.122-.041-.284-.184-.366-.123-.081-.287-.081-.45-.081h-.49v.916h.49zm1.533-2.504h.511v2.972h-.511v-2.972zm3.719 2.972h-.511v-2.504h-1.063v1.343c0 .245 0 .59-.225.855-.082.122-.307.326-.716.326-.04 0-.102 0-.163-.02v-.489c.04 0 .081.02.102.02a.421.421 0 00.368-.203c.102-.143.102-.326.102-.509v-1.811h2.085v2.992h.02zm1.492-2.972v1.221l1.185-1.22h.634l-1.288 1.322 1.452 1.649h-.675l-1.165-1.303-.143.143v1.16h-.511v-2.972h.51zm3.006 0v1.954l2.023-2.177v3.195h-.51v-1.995L83.813 30v-3.175h.512z" fill="#E51A4B"/></g><defs><clipPath id="a"><path fill="#fff" d="M0 0h132v30H0z"/></clipPath></defs></svg>