<svg width="60" height="47" fill="none" xmlns="http://www.w3.org/2000/svg"><g clip-path="url(#a)"><path d="m60 4.741-1.269 29.65a3.617 3.617 0 0 1-2.537 3.439L35.726 44.64l-4.841 1.636c-.3.1-.601.134-.902.134-.3 0-.6-.034-.901-.134l-7.646-2.57-17.63-5.844a4.516 4.516 0 0 1-1.135-.568A3.11 3.11 0 0 1 1.47 35.66c-.133-.4-.234-.8-.234-1.235L0 4.741c0-1.936 1.536-3.506 3.44-3.606C3.572 1.135 17.228 0 29.982 0c12.855 0 26.444 1.135 26.545 1.135 1.936.1 3.472 1.67 3.472 3.606Z" fill="#FDC300"/><path d="M29.982 43.005c-.4 0-.768-.067-1.168-.2l-6.344-2.137-15.56-5.142c-1.435-.468-2.404-1.803-2.47-3.306L3.405 8.013c-.1-1.97 1.402-3.64 3.372-3.773 4.841-.334 14.257-.901 23.205-.901 9.015 0 18.398.567 23.206.901 1.97.134 3.439 1.803 3.372 3.773L55.525 32.22c-.067 1.503-1.069 2.805-2.471 3.306l-18.397 6.077-3.54 1.202a3.25 3.25 0 0 1-1.135.2Zm0-38.297c-8.915 0-18.297.567-23.105.901A2.314 2.314 0 0 0 4.74 7.98l1.035 24.208c.034.935.668 1.77 1.57 2.07L22.904 39.4l6.344 2.137a2.218 2.218 0 0 0 1.469 0l3.54-1.202 18.396-6.077a2.294 2.294 0 0 0 1.57-2.07L55.258 7.98a2.246 2.246 0 0 0-2.137-2.37c-4.775-.335-14.157-.902-23.139-.902Z" fill="#201933"/><path d="M14.991 29.15V13.39c0-.368.3-.668.668-.668h2.237c.367 0 .668.3.668.668v15.76a.67.67 0 0 1-.668.667h-2.237a.67.67 0 0 1-.668-.668Zm18.498 0v-7.814c0-.2-.268-.267-.368-.1l-3.539 6.544c-.067.134-.2.2-.334.2h-.768a.367.367 0 0 1-.334-.2l-3.572-6.544c-.1-.167-.368-.1-.368.1v7.846a.67.67 0 0 1-.668.668h-2.17a.67.67 0 0 1-.667-.668l.033-15.76c0-.366.3-.667.668-.667h2.437c.267 0 .5.134.601.367l4.407 8.448c.067.133.267.133.368 0l4.14-8.448c.1-.233.334-.367.6-.367h2.405c.367 0 .668.3.668.668v15.76a.67.67 0 0 1-.668.667h-2.17c-.401-.033-.701-.334-.701-.7Zm14.09-1.837v1.836c0 .367-.3.668-.702.668H39.8c-.367 0-.701-.3-.701-.668V13.39c0-.367.3-.667.701-.667h2.204c.367 0 .7.3.7.668V26.31a.3.3 0 0 0 .301.3h3.873c.401.034.702.334.702.702Z" fill="#201933"/></g><defs><clipPath id="a"><path fill="#fff" d="M0 0h60v46.411H0z"/></clipPath></defs></svg>
