<svg width="37" height="28" fill="none" xmlns="http://www.w3.org/2000/svg"><g clip-path="url(#clip0_276_2992)"><path d="M11.09 27.766V25.92a1.081 1.081 0 00-.318-.844 1.124 1.124 0 00-.856-.322 1.166 1.166 0 00-1.053.523 1.105 1.105 0 00-.99-.523.996.996 0 00-.878.437v-.363h-.652v2.938h.658V26.14a.678.678 0 01.178-.562.706.706 0 01.555-.22c.433 0 .652.277.652.776v1.633h.658V26.14a.684.684 0 01.181-.56.712.712 0 01.553-.222c.445 0 .658.277.658.776v1.633h.655zm3.668-1.467V24.83h-.659v.357a1.142 1.142 0 00-.94-.43c-.865 0-1.567.688-1.567 1.538 0 .85.702 1.538 1.567 1.538.366.014.716-.147.94-.43v.356h.652l.007-1.461zm-2.423 0a.9.9 0 01.938-.837c.492.018.88.42.872.903a.898.898 0 01-.901.875.905.905 0 01-.67-.272.87.87 0 01-.245-.67h.006zm16.35-1.539c.214 0 .427.04.626.117a1.507 1.507 0 01.85.816c.163.394.163.836 0 1.23-.079.184-.194.35-.339.49-.147.14-.32.25-.51.326a1.804 1.804 0 01-1.286 0 1.5 1.5 0 01-.843-.815 1.606 1.606 0 010-1.232 1.5 1.5 0 01.843-.815c.207-.084.429-.127.652-.126l.007.01zm0 .615a.988.988 0 00-.373.068.882.882 0 00-.298.194.899.899 0 00-.197.308 1.05 1.05 0 000 .763c.043.115.11.22.197.308.085.084.186.15.298.193.238.092.504.092.742 0a.898.898 0 00.314-.194.89.89 0 00.197-.307 1.049 1.049 0 000-.763.89.89 0 00-.197-.308.9.9 0 00-.314-.194.987.987 0 00-.376-.086l.007.018zm-10.386.924c0-.924-.583-1.539-1.42-1.539-.865.012-1.557.71-1.545 1.56.012.85.724 1.529 1.59 1.517a1.84 1.84 0 001.224-.412l-.313-.474a1.441 1.441 0 01-.871.308.827.827 0 01-.896-.72h2.221c.01-.077.01-.154.01-.24zm-2.228-.259a.765.765 0 01.786-.71.75.75 0 01.53.202.723.723 0 01.229.511l-1.545-.003zm4.97-.461a1.954 1.954 0 00-.94-.253c-.357 0-.57.13-.57.345 0 .215.225.252.507.29l.314.042c.651.093 1.046.363 1.046.88s-.501.96-1.363.96a2.187 2.187 0 01-1.294-.381l.313-.499c.288.21.639.318.997.308.445 0 .683-.13.683-.357 0-.166-.17-.259-.527-.308l-.313-.043c-.67-.092-1.034-.387-1.034-.867 0-.585.489-.942 1.253-.942a2.27 2.27 0 011.22.308l-.292.517zm3.134-.166h-1.063v1.326c0 .307.107.492.433.492a1.22 1.22 0 00.577-.166l.188.547a1.54 1.54 0 01-.815.228c-.771 0-1.04-.406-1.04-1.09v-1.337h-.609v-.585h.608v-.892h.659v.892h1.062v.585zm2.253-.659c.158 0 .315.028.464.08l-.2.615a1.077 1.077 0 00-.408-.074c-.426 0-.627.271-.627.758v1.646h-.652V24.84h.646v.357a.888.888 0 01.79-.43l-.013-.013zm4.507 2.585a.316.316 0 01.216.083.281.281 0 010 .412.313.313 0 01-.097.061.314.314 0 01-.401-.154.284.284 0 01.163-.38.318.318 0 01.103-.022h.016zm0 .52a.226.226 0 00.163-.068.225.225 0 00-.072-.37.228.228 0 00-.182 0 .228.228 0 00-.075.05.225.225 0 000 .308.234.234 0 00.166.067v.013zm.019-.367a.127.127 0 01.081.025c.02.016.03.04.028.065a.073.073 0 01-.022.055.111.111 0 01-.066.028l.091.101h-.072l-.084-.101h-.029v.101h-.06v-.283l.133.01zm-.07.053v.074h.07a.067.067 0 00.037 0 .03.03 0 000-.028.03.03 0 000-.028.067.067 0 00-.037 0l-.07-.018z" fill="#000"/><path d="M23.235 2.41h-9.872v17.417h9.872V2.41z" fill="#7673C0"/><path d="M13.99 11.12c-.004-3.399 1.585-6.611 4.309-8.71C13.673-1.16 7.03-.64 3.039 3.604a10.93 10.93 0 000 15.03c3.991 4.244 10.634 4.764 15.26 1.194-2.723-2.098-4.312-5.309-4.31-8.707z" fill="#EB001B"/><path d="M36.55 11.12c0 4.24-2.467 8.107-6.351 9.96-3.884 1.853-8.505 1.367-11.9-1.252 2.721-2.1 4.31-5.311 4.31-8.71 0-3.398-1.589-6.609-4.31-8.709C21.693-.212 26.315-.7 30.2 1.154c3.886 1.853 6.352 5.722 6.352 9.963l-.003.003z" fill="#00A1DF"/></g><defs><clipPath id="clip0_276_2992"><path fill="#fff" d="M0 0h36.667v28H0z"/></clipPath></defs></svg>