<svg width="36" height="28" fill="none" xmlns="http://www.w3.org/2000/svg"><path d="M6.301 27.753v-1.895a1.142 1.142 0 00-.314-.869 1.08 1.08 0 00-.843-.331 1.13 1.13 0 00-1.033.537 1.073 1.073 0 00-.973-.537.965.965 0 00-.861.448v-.372h-.64v3.02h.646v-1.662a.72.72 0 01.176-.575.68.68 0 01.544-.227c.424 0 .64.284.64.796v1.68h.646v-1.674a.723.723 0 01.177-.574.684.684 0 01.543-.229c.437 0 .646.285.646.797v1.68l.646-.012zm9.56-3.02H14.81v-.916h-.646v.917h-.585v.6h.597v1.39c0 .701.265 1.118 1.022 1.118.283.001.56-.08.8-.234l-.185-.562a1.159 1.159 0 01-.566.17c-.308 0-.425-.202-.425-.505v-1.377h1.046l-.006-.6zm5.459-.075a.863.863 0 00-.776.442v-.366h-.633v3.02h.64V26.06c0-.499.209-.777.615-.777.137-.002.273.024.4.076l.197-.632a1.34 1.34 0 00-.456-.082l.013.013zm-8.252.316a2.157 2.157 0 00-1.2-.316c-.745 0-1.231.366-1.231.966 0 .493.357.796 1.015.891l.308.044c.35.051.517.146.517.316 0 .234-.234.367-.671.367a1.54 1.54 0 01-.978-.316l-.308.512c.373.267.82.404 1.274.391.849 0 1.341-.41 1.341-.985s-.387-.809-1.027-.904l-.308-.044c-.277-.038-.499-.095-.499-.297 0-.202.21-.354.56-.354.324.004.642.093.923.26l.284-.531zm17.141-.316a.863.863 0 00-.775.442v-.366H28.8v3.02h.64V26.06c0-.499.209-.777.615-.777a1.02 1.02 0 01.4.076l.197-.632a1.34 1.34 0 00-.455-.082l.012.013zm-8.246 1.58c-.015.428.146.844.445 1.145.298.3.706.458 1.124.434.384.02.762-.109 1.059-.36l-.308-.531a1.271 1.271 0 01-.77.272.96.96 0 01-.868-.967.96.96 0 01.869-.967c.278.003.548.099.769.272l.308-.53a1.513 1.513 0 00-1.059-.36 1.465 1.465 0 00-1.124.433c-.3.3-.46.716-.445 1.146v.012zm5.994 0v-1.504h-.64v.366a1.106 1.106 0 00-.923-.442c-.85 0-1.539.707-1.539 1.58 0 .872.689 1.579 1.539 1.579.359.013.702-.151.923-.442v.366h.64v-1.504zm-2.382 0a.899.899 0 01.921-.86c.484.02.864.431.856.928a.901.901 0 01-.884.898.872.872 0 01-.653-.283.921.921 0 01-.24-.684zm-7.723-1.58c-.85.012-1.529.729-1.517 1.601.012.873.71 1.57 1.56 1.558.443.023.878-.123 1.222-.411l-.308-.486c-.243.2-.544.31-.855.315a.821.821 0 01-.88-.739h2.184v-.252c0-.948-.572-1.58-1.397-1.58l-.009-.006zm0 .587c.194-.004.38.07.52.208.14.138.22.327.225.525h-1.539a.765.765 0 01.782-.733h.012zm16.034.998V23.52h-.615v1.58a1.106 1.106 0 00-.924-.442c-.85 0-1.538.707-1.538 1.58 0 .872.689 1.579 1.538 1.579.36.013.703-.151.924-.442v.366h.615v-1.497zm1.068 1.071a.3.3 0 01.277.18.301.301 0 01-.065.329.308.308 0 01-.212.088.307.307 0 01-.277-.183.305.305 0 010-.234.318.318 0 01.064-.094.302.302 0 01.222-.085h-.01zm0 .534a.215.215 0 00.16-.07.238.238 0 000-.315.217.217 0 00-.25-.05.224.224 0 00-.073.05.238.238 0 000 .316.228.228 0 00.172.07h-.01zm.018-.376a.12.12 0 01.08.026c.02.016.03.04.028.066a.077.077 0 01-.022.057.107.107 0 01-.064.028l.089.104h-.07l-.084-.104h-.028v.104h-.058v-.277l.13-.004zm-.068.054v.076h.068a.063.063 0 00.037 0 .032.032 0 000-.029.032.032 0 000-.028.064.064 0 00-.037 0l-.068-.019zm-3.384-1.282a.898.898 0 01.92-.859c.484.019.864.43.857.927a.901.901 0 01-.885.898.872.872 0 01-.652-.283.921.921 0 01-.24-.683zm-21.61 0v-1.51h-.64v.366a1.106 1.106 0 00-.923-.442c-.85 0-1.538.707-1.538 1.58 0 .872.689 1.579 1.538 1.579.36.013.703-.151.924-.442v.366h.64v-1.497zm-2.381 0a.898.898 0 01.921-.859c.483.019.864.43.856.927a.901.901 0 01-.885.898.872.872 0 01-.656-.28.92.92 0 01-.242-.686h.006z" fill="#231F20"/><path d="M13.123 2.48h9.693v17.883h-9.693V2.478z" fill="#FF5F00"/><path d="M13.739 11.424c-.004-3.49 1.557-6.788 4.23-8.943C13.43-1.184 6.907-.65 2.988 3.707c-3.918 4.357-3.918 11.074 0 15.43 3.92 4.357 10.441 4.891 14.983 1.227-2.674-2.155-4.234-5.451-4.231-8.94z" fill="#EB001B"/><path d="M35.893 11.423c0 4.354-2.422 8.326-6.236 10.229-3.815 1.903-8.353 1.402-11.687-1.289 2.672-2.156 4.232-5.452 4.232-8.941 0-3.49-1.56-6.786-4.232-8.942 3.334-2.69 7.872-3.19 11.687-1.289 3.814 1.903 6.236 5.875 6.236 10.229v.003z" fill="#F79E1B"/></svg>