<svg width="50" height="16" fill="none" xmlns="http://www.w3.org/2000/svg"><path d="M4.332 14.797H.064V.95h4.268c1.91 0 2.332 1.445 2.549 2.166l1.761 5.98c.033.117.07.194.173.2.103-.006.14-.083.172-.2l1.761-5.98c.218-.72.639-2.166 2.549-2.166h4.269v13.847h-4.27v-8.15c-.075-.213-.377-.174-.426.001l-2.561 8.15H7.32l-2.562-8.15c-.049-.175-.35-.214-.427 0v8.15zM23.788.95H19.52v13.847h4.268c.734 0 1.166-.35 1.885-1.904l2.851-6.315c.05-.175.359-.215.434 0v8.22h4.27V.95h-4.27c-.96.05-1.43 1.155-1.776 1.905l-2.967 6.244c-.049.175-.35.214-.427 0V.95zm11.518 6.317h13.413c-.452 1.343-2.005 3.093-4.407 3.093h-4.738v4.437h-4.268v-7.53z" fill="#3BA336"/><path d="M48.911 6.577H41.84c-3.42 0-6.548-1.896-7.091-5.627h9.563c2.915 0 5.162 2.675 4.6 5.627z" fill="#019AD7"/></svg>