<svg width="100" height="49" fill="none" xmlns="http://www.w3.org/2000/svg"><g clip-path="url(#a)"><path d="M48.42.03H0v48.42h48.42V.03ZM99.512 0H51v48.512h48.512V0Z" fill="#0155A5"/><path d="M97 3H54v43h43V3Z" fill="#fff"/><path fill-rule="evenodd" clip-rule="evenodd" d="M26.182 34.171c-.537-.644-.797-1.503-.797-2.53 0-1.059.26-1.917.767-2.531.552-.675 1.365-1.028 2.423-1.028h.077V26.32h-.077c-1.641 0-2.914.521-3.773 1.533-.782.92-1.181 2.194-1.181 3.804 0 1.55.43 2.822 1.273 3.788.89 1.013 2.132 1.534 3.696 1.534h.077v-1.764h-.077c-1.027 0-1.84-.352-2.408-1.043Zm-6.257 0c-.537-.644-.798-1.503-.798-2.53 0-1.059.26-1.917.767-2.531.552-.675 1.365-1.028 2.423-1.028h.077V26.32h-.077c-1.64 0-2.914.521-3.773 1.533-.782.92-1.18 2.194-1.18 3.804 0 1.55.429 2.822 1.272 3.788.89 1.013 2.132 1.534 3.697 1.534h.076v-1.764h-.076c-1.028 0-1.84-.352-2.408-1.043Zm5.751-17.178v4.908h1.871V11.733h-1.87v3.543h-1.013c-.414 0-.736-.092-.936-.292a.727.727 0 0 1-.214-.552v-2.7h-1.872v2.9c0 .674.261 1.242.783 1.687.521.444 1.15.674 1.886.674h1.365Zm17.914 9.08-.138.138s-3.481 3.635-3.742 3.911v-3.558h-1.641v10.107h1.64v-4.156c.047-.046 2.133-2.255 2.378-2.515.016.368.23 6.671.23 6.671h1.672l-.399-10.598Zm-12.254-4.172h1.87V13.42h1.58v-1.687h-5v1.687h1.55V21.9Zm4.31 4.31s-3.482 3.635-3.743 3.911v-3.558h-1.64v10.107h1.64v-4.156c.046-.046 2.132-2.255 2.378-2.515.015.368.23 6.671.23 6.671h1.671l-.399-10.598-.138.138ZM39.02 13.42h.675c.475 0 .813.138 1.012.445.169.245.276.72.353 1.38h-2.086c0-.2.046-1.626.046-1.825Zm-.077 3.512h2.331c.016.215.522 4.97.522 4.97h1.886l-.859-7.44c0-.98-.306-1.717-.89-2.177-.475-.368-1.119-.568-1.916-.568H37.24l-.338 10.17h1.871c-.015.014.154-4.725.169-4.955ZM6.32 13.42h2.316V21.9h1.872V11.733H4.449V21.9H6.32V13.42Zm.875 18.666c-.138.26-.292.383-.46.383-.17 0-.307-.108-.43-.337-.138-.246-.2-.599-.2-1.074v-2.976h.062c.383 0 .675.215.905.645.23.444.337 1.18.337 2.147 0 .537-.076.935-.214 1.212Zm-1.028-5.507H4.434v10.092H6.09v-2.93c.322.277.675.446 1.059.446.552 0 1.012-.292 1.365-.875.398-.644.598-1.61.598-2.852 0-.86-.169-1.641-.476-2.3-.49-1.044-1.319-1.58-2.469-1.58Zm11.135-7.162c-.245.66-.583.981-1.043.981-.445 0-.782-.322-1.012-.997-.261-.69-.384-1.58-.384-2.638 0-1.073.123-1.963.384-2.622.23-.645.552-.951 1.012-.951.506 0 .874.322 1.104.966.215.598.322 1.472.322 2.592 0 1.074-.122 1.979-.383 2.669Zm1.442 1.15c.552-.95.843-2.24.843-3.819 0-1.564-.291-2.837-.859-3.788-.583-.982-1.41-1.473-2.469-1.473-.997 0-1.795.506-2.362 1.488-.552.966-.844 2.24-.844 3.804 0 1.61.276 2.914.798 3.88.537.982 1.35 1.473 2.393 1.473 1.073-.016 1.917-.537 2.5-1.565Zm-4.678 13.666c-.215.66-.537.997-.951.997-.399 0-.706-.338-.936-1.013-.23-.705-.337-1.595-.337-2.653 0-1.089.107-1.979.337-2.653.215-.645.537-.982.936-.982.46 0 .797.322 1.012.982.2.598.291 1.472.291 2.607-.015 1.12-.122 2.024-.352 2.715Zm1.242-6.457c-.521-.967-1.258-1.457-2.193-1.457-.89 0-1.595.49-2.086 1.472-.49.95-.752 2.224-.752 3.773 0 1.61.246 2.899.721 3.85.476.966 1.197 1.457 2.117 1.457.935 0 1.687-.522 2.224-1.534.49-.95.751-2.224.751-3.804-.015-1.533-.276-2.806-.782-3.757Z" fill="#FEFEFE"/><path fill-rule="evenodd" clip-rule="evenodd" d="M66.196 15.69c.352.798.95 1.61 2.546 2.7.352.245.751.751.46 1.472-.307.721-.874 1.733-.522 2.132.338.399 1.55.598 2.531.215 0 0 .215.629.567 1.012 0 0-.168.337-.736.169 0 0 .215.506-.076 1.058 0 0-.66-.107-.951-.72 0 0-.261.475-.798.643 0 0-.43-.23-.337-1.088 0 0-.322.782-1.304.904 0 0-.567-.72.169-1.687 0 0-.537.476-1.488.246 0 0-.153-.491.72-1.166 0 0-.98-.03-1.364-.874 0 0 .414-.506 1.442-.399 0 0-.951-.215-1.15-1.334 0 0 .674-.43 1.763.26 0 0-.184-.352-.644-.72-.476-.353-1.012-1.35-.828-2.823ZM70.153 27.086a2.664 2.664 0 0 1-.322-.567c.168 1.38.23 2.3.966 3.19 0 0 .445-.598.153-2.04a1.31 1.31 0 0 1-.399-.184s.17.583.062 1.18c0 0-.261-.199-.46-1.579ZM68.867 26.948a3.841 3.841 0 0 1-.353-.521c-.062.797-.276 2.899.43 3.558 0 0 .475-.353.659-3.42-.108.168-.276.353-.368.46 0 0 .122.966-.23 1.656 0 0-.353-.276-.138-1.733ZM67.193 28.543c.599-.705.767-2.837.767-2.837.077-.062.169-.108.246-.184l.092-.092c0 .076 0 .153.015.23-.092 1.273-.184 2.592-.583 3.251-.383.644-1.104.982-1.104.982-.675-1.196.138-2.807.828-3.927.077-.03.169-.076.26-.122-.26.89-.705 1.917-.52 2.7ZM65.52 24.862c0 .138.016.245.047.306 0 .016.015.062.03.092-.567.553-.981 1.09-1.81 2.24-.843 1.165-2.162 1.211-2.162 1.211.123-.935.383-1.687 1.089-2.484.706-.798 1.61-1.534 2.285-2.025.169.077.399.123.675.092.015 0 .046 0 .061-.015a.991.991 0 0 0-.168.337c-.506.292-1.963 1.028-2.562 2.224-.015.015.92-.26 2.516-1.978ZM64.462 23.697l.061-.092c.016-.031.03-.062.062-.092-.537.214-2.485.95-3.114 1.273-.629.322-1.534 1.058-2.024 2.561 0 0 1.303.123 2.392-.782 1.074-.89 2.332-2.147 2.884-2.546a.498.498 0 0 1-.123-.138s-1.457 1.288-3.006 1.856c0 0 .337-.598.935-1.028.737-.537 1.289-.72 1.933-1.012ZM63.358 22.807c.015-.046.046-.108.06-.154-.643.138-2.239.322-2.96.537-.72.215-2.008.736-2.775 2.209 0 0 1.12.352 3.251-.66 2.117-.997 2.792-1.211 3.19-1.319a1.865 1.865 0 0 1-.674-.2c-.844.384-1.979.829-3.099.86 0 0 .553-.4 1.135-.644.645-.246 1.35-.491 1.872-.63ZM63.419 21.764c.215.092.368.153.644.169a1.388 1.388 0 0 0-.414.383c-.752.215-2.025.445-4.126.598-2.101.154-3.22-.23-3.22-.23.735-.445 1.901-.905 2.699-1.058.797-.153 2.868-.138 3.773-.26.015.015.122.107.306.214-.767.061-2.392.138-3.236.567-.03 0 1.519.2 3.574-.383ZM63.252 20.552c.107-.061.23-.123.383-.184-1.058-.322-2.53-.844-4.724-.982-1.61-.107-2.776-.015-3.39.138 0 0 1.473 1.043 3.145 1.396 1.687.368 3.052.138 4.049.138.061-.092.138-.215.26-.322-1.165 0-3.113-.291-3.803-.521.015.015 1.702-.353 4.08.337ZM63.252 19.294c0 .03.122.629.828.966-1.488-.659-4.448-1.027-6.028-1.687-2.147-.89-2.53-1.994-2.53-1.994 1.855-.046 3.358.4 4.509.752 1.35.414 3.405 1.181 4.125 1.503a1.592 1.592 0 0 0-.812.26c-1.013-.383-1.473-.551-2.393-.797-.72-.2-1.258-.245-1.703-.291 0 0 .63.414 1.672.751 1.043.322 1.488.368 2.332.537ZM63.144 17.654c.061.107.23.353.306.46-2.361-.399-4.969-2.193-5.766-3.298-.798-1.104-.583-2.76-.583-2.76.782.153 2.47 1.625 2.914 2.055.445.445 1.764 1.733 2.684 2.454l.291.828c-.782-.629-1.718-1.334-2.3-1.78-.445-.336-1.12-.812-1.78-1.042 0 0 .614.797 1.105 1.196.567.445 1.15.844 1.626 1.105.414.245.644.368 1.503.782Z" fill="#0155A5"/><path fill-rule="evenodd" clip-rule="evenodd" d="M69.817 24.279a1.04 1.04 0 0 0 .184-.184c.108.138.476.598.66 1.043.138.383.276.92.353 1.227.076.306.291.935.414 1.15 0 0-.583.077-.997-.43-.414-.49-.568-.981-.629-1.487a4.75 4.75 0 0 1 .015-1.32ZM68.911 24.355c.108.139.215.2.215.215l.077.046.076-.03c.077-.031.138-.046.2-.077.076.23.122.353.138.537.03.26.076.675-.016 1.012-.122.414-.368.66-.506.828 0 0-.383-.414-.49-.751-.108-.353-.154-.783-.016-1.197.092-.245.2-.46.322-.582ZM67.606 24.402a1.87 1.87 0 0 0 .905-.353c.046.138.122.322.061.583-.061.26-.23.552-.49.751-.384.307-.906.598-1.488.506 0 0-.138-.43 1.012-1.487ZM67.163 23.68c.046.384.23.63.245.645-.138.153-.613.997-1.626.859 0 0-.276-.568.4-1.012.46-.323.674-.384.98-.491ZM67.256 22.96a2.365 2.365 0 0 1-1.043 0l-.123-.03-.03-.108c-.522.43-1.135.491-1.35.875 0 0 .26.475.936.398a2.292 2.292 0 0 0 1.549-.843c0-.077.03-.2.061-.292ZM66.088 22.362c.092-.138.168-.368.368-.583a3.726 3.726 0 0 0-1.365.016c-.63.122-1.258.26-1.58 1.211 0 0 .399.338 1.12.2.613-.123 1.15-.399 1.457-.844ZM65.827 21.35a1.45 1.45 0 0 1-.399-.537l-.046-.123c-.537-.215-1.104-.337-1.656-.123-.553.2-.69.445-.828.644 0 0 .613.507 1.303.537.69 0 1.35-.2 1.626-.399ZM65.98 20.23c.093-.031.2-.062.323-.092a1.85 1.85 0 0 1-.583-1.013c-.245.062-.843.062-1.089-.046a1.434 1.434 0 0 0-1.165.154s.138.69 1.027.935c.844.246 1.15.184 1.488.062ZM65.659 18.88l.122-.076c.016-.016.215-.138.568-.154-.291-.214-.982-.797-1.473-1.073-.536-.292-1.41-.69-1.87-.752 0 0 .413 1.105.92 1.55.506.46.858.628 1.733.505ZM66.579 18.374c-.215-.276-.384-.66-.506-1.12-.108-.367-.338-1.288-.476-1.533-.138-.245-.629-1.073-1.61-1.334 0 0-.261 1.089.23 1.948.414.736 1.288 1.518 2.362 2.04ZM71.963 23.42c.122.123.214.184.429.291 0 0 .307.599-.061 1.304-.368.721-.69 1.442-.844 1.84 0 0-.2-.03-.43-1.15-.153-.751-.337-.95-.536-1.211.215.107.398.138.414.153l.153.03.062-.137c.138-.261.168-.506.168-.706 0-.061 0-.138-.015-.184.353.015.537-.169.598-.26 0-.016.016-.016.016-.016l.046.046Z" fill="#0155A5"/><path fill-rule="evenodd" clip-rule="evenodd" d="M63.712 14.847v.337l.015.261a216.01 216.01 0 0 0-1.917-2.408c-.445-.552-.828-.89-1.242-1.166.353 1.028.997 1.856 1.442 2.27.444.415 1.104 1.105 1.733 1.534l.061.215c.046.2.123.383.23.567.153.261.337.522.568.767a11.965 11.965 0 0 0-.614-.276l-.2-.077c-1.748-.92-3.48-2.852-4.186-4.187-.706-1.334-.414-2.883-.23-3.711.797.675 1.932 1.993 2.438 2.714.614.89 1.396 2.132 1.887 3.16h.015ZM88.222 20.552a3.018 3.018 0 0 0-.384-.184c1.058-.322 2.53-.844 4.724-.982 1.61-.107 2.776-.015 3.39.138 0 0-1.473 1.043-3.16 1.396-1.687.368-3.052.138-4.049.138-.061-.092-.138-.215-.26-.322 1.165 0 3.113-.291 3.803-.521.015.015-1.687-.353-4.064.337ZM88.22 19.294c0 .03-.123.629-.828.966 1.488-.659 4.448-1.027 6.028-1.687 2.147-.89 2.53-1.994 2.53-1.994-1.856-.046-3.359.4-4.509.752-1.35.414-3.405 1.181-4.126 1.503.276.015.568.092.813.26 1.012-.383 1.472-.551 2.393-.797.72-.2 1.257-.245 1.702-.291 0 0-.629.414-1.687.751-1.028.322-1.472.368-2.316.537ZM88.344 17.654a7.92 7.92 0 0 1-.307.46c2.362-.399 4.97-2.193 5.767-3.298.797-1.104.567-2.76.567-2.76-.782.153-2.47 1.625-2.914 2.055-.445.445-1.764 1.733-2.684 2.454l-.291.828c.782-.629 1.718-1.334 2.3-1.78.445-.336 1.12-.812 1.78-1.042 0 0-.614.797-1.105 1.196-.567.445-1.15.844-1.626 1.105-.414.245-.629.368-1.487.782ZM87.762 14.847v.337l-.015.26c.567-.735 1.257-1.61 1.917-2.423.445-.552.828-.89 1.242-1.165-.353 1.027-.997 1.856-1.441 2.27-.445.414-1.105 1.104-1.734 1.534l-.06.214c-.047.2-.124.384-.231.568-.153.26-.337.521-.567.767.184-.093.398-.184.613-.276l.2-.077c1.748-.92 3.481-2.853 4.187-4.187.705-1.335.414-2.884.23-3.712-.798.675-1.933 1.994-2.439 2.715-.614.89-1.396 2.132-1.886 3.16v.015h-.016ZM65.951 25.399c-.72.72-2.24 2.331-2.101 4.095 0 0 1.41-.445 1.994-1.473.583-1.027.935-1.687 1.18-1.917a2.312 2.312 0 0 1-.46 0l-.122-.015c-.353.644-1.074 1.718-1.702 2.086 0 0-.17-.86 1.717-2.623.03-.077.062-.153.123-.245a1.72 1.72 0 0 1-.583.092h-.046ZM85.275 15.69c-.353.798-.951 1.61-2.546 2.7-.353.245-.752.751-.46 1.472.306.721.874 1.733.521 2.132-.337.399-1.549.598-2.53.215 0 0-.2.629-.568 1.012 0 0 .169.337.736.169 0 0-.215.506.077 1.058 0 0 .66-.107.95-.72 0 0 .261.475.798.643 0 0 .43-.23.338-1.088 0 0 .322.782 1.303.904 0 0 .568-.72-.168-1.687 0 0 .521.476 1.487.246 0 0 .154-.491-.72-1.166 0 0 .981-.03 1.365-.874 0 0-.415-.506-1.442-.399 0 0 .95-.215 1.15-1.334 0 0-.675-.43-1.748.26 0 0 .184-.352.644-.72.46-.353 1.012-1.35.813-2.823ZM81.335 27.086c.139-.184.246-.383.323-.567-.17 1.38-.23 2.3-.967 3.19 0 0-.445-.598-.153-2.04.123-.03.26-.092.399-.184 0 0-.169.583-.062 1.18-.015 0 .261-.199.46-1.579ZM82.607 26.948c.092-.107.26-.352.353-.521.06.797.276 2.899-.43 3.558 0 0-.49-.353-.66-3.42.108.168.277.353.369.46 0 0-.123.966.23 1.656 0 0 .353-.276.138-1.733ZM84.294 28.543c-.599-.705-.767-2.837-.767-2.837-.077-.062-.169-.108-.246-.184-.03-.031-.06-.062-.092-.092 0 .076 0 .153-.015.23.092 1.273.184 2.592.583 3.251.383.644 1.104.982 1.104.982.675-1.196-.138-2.807-.813-3.927-.092-.03-.168-.076-.26-.122.23.89.69 1.917.506 2.7ZM85.95 24.862a.754.754 0 0 1-.045.306.316.316 0 0 1-.03.092c.567.553.98 1.09 1.809 2.24.844 1.165 2.163 1.211 2.163 1.211-.123-.935-.384-1.687-1.09-2.484-.705-.798-1.61-1.534-2.285-2.025a1.29 1.29 0 0 1-.675.092c-.015 0-.046 0-.06-.015.091.122.137.23.168.337.506.292 1.963 1.028 2.561 2.224.016.015-.905-.26-2.515-1.978ZM87.008 23.697l-.061-.092c-.016-.031-.031-.062-.062-.092.537.214 2.485.95 3.114 1.273.628.322 1.533 1.058 2.024 2.561 0 0-1.303.123-2.392-.782-1.074-.89-2.347-2.147-2.884-2.546a.498.498 0 0 0 .123-.138s1.457 1.288 3.006 1.856c0 0-.338-.598-.936-1.028-.72-.537-1.288-.72-1.932-1.012ZM88.114 22.807c-.016-.046-.047-.108-.062-.154.644.138 2.24.322 2.96.537.721.215 2.01.736 2.776 2.209 0 0-1.12.352-3.251-.66-2.117-.997-2.791-1.211-3.19-1.319.322-.03.552-.138.675-.2.843.384 1.978.829 3.098.86 0 0-.553-.4-1.135-.644-.644-.246-1.335-.491-1.871-.63ZM88.067 21.764c-.214.092-.368.153-.644.169.154.092.292.214.415.383.751.215 2.024.445 4.125.598 2.101.154 3.221-.23 3.221-.23-.736-.445-1.902-.905-2.7-1.058-.797-.153-2.867-.138-3.772-.26a1.872 1.872 0 0 1-.307.214c.767.061 2.393.138 3.236.567.03 0-1.534.2-3.574-.383Z" fill="#0155A5"/><path fill-rule="evenodd" clip-rule="evenodd" d="M81.672 24.279a1.044 1.044 0 0 1-.184-.184c-.108.138-.476.598-.66 1.043-.138.383-.276.92-.353 1.227-.076.306-.291.935-.414 1.15 0 0 .583.077.997-.43.414-.49.568-.981.629-1.487.046-.384.03-.936-.015-1.32ZM82.576 24.355c-.108.139-.215.2-.215.215l-.077.046-.077-.03c-.076-.031-.137-.046-.199-.077-.077.23-.123.353-.138.537-.03.26-.077.675.015 1.012.123.414.368.66.507.828 0 0 .383-.414.49-.751.108-.353.154-.783.016-1.197a2.018 2.018 0 0 0-.322-.582ZM83.882 24.402a1.871 1.871 0 0 1-.905-.353c-.046.138-.123.322-.061.583.061.26.23.552.49.751.384.307.905.598 1.488.506 0 0 .123-.43-1.012-1.487ZM84.308 23.68c-.046.384-.23.63-.245.645.138.153.614.997 1.626.859 0 0 .276-.568-.399-1.012-.445-.323-.66-.384-.982-.491ZM84.217 22.96c.276.062.628.092 1.058 0l.122-.03.031-.108c.522.43 1.135.491 1.35.875 0 0-.26.475-.936.398a2.292 2.292 0 0 1-1.549-.843 2.77 2.77 0 0 0-.076-.292ZM85.383 22.362c-.092-.138-.169-.368-.368-.583a3.726 3.726 0 0 1 1.365.016c.629.122 1.257.26 1.58 1.211 0 0-.4.338-1.12.2-.614-.123-1.15-.399-1.457-.844ZM85.66 21.35c.153-.139.29-.307.398-.537l.046-.123c.537-.215 1.105-.337 1.657-.123.552.2.69.445.828.644 0 0-.614.507-1.304.537-.705 0-1.35-.2-1.626-.399ZM85.492 20.23c-.092-.031-.2-.062-.307-.092a1.85 1.85 0 0 0 .583-1.013c.245.062.844.062 1.104-.046.261-.092.767-.107 1.166.154 0 0-.138.69-1.028.935-.858.246-1.18.184-1.518.062ZM85.813 18.88l-.123-.076c-.015-.016-.214-.138-.567-.154.291-.214.981-.797 1.472-1.073.537-.292 1.411-.69 1.871-.752 0 0-.414 1.105-.92 1.55-.506.46-.859.628-1.733.505ZM84.907 18.374c.215-.276.383-.66.506-1.12.107-.367.337-1.288.475-1.533.138-.245.63-1.073 1.61-1.334 0 0 .261 1.089-.23 1.948-.429.736-1.288 1.518-2.361 2.04ZM79.525 23.42c-.123.123-.215.184-.43.291 0 0-.306.599.062 1.304.368.721.69 1.442.844 1.84 0 0 .199-.03.429-1.15.153-.751.337-.95.537-1.211-.215.107-.399.138-.414.153l-.154.03-.076-.137a1.472 1.472 0 0 1-.17-.706c0-.061 0-.138.016-.184a.719.719 0 0 1-.613-.26c0-.016-.016-.016-.016-.016l-.015.046Z" fill="#0155A5"/><path fill-rule="evenodd" clip-rule="evenodd" d="M85.537 25.399c.721.72 2.24 2.331 2.102 4.095 0 0-1.411-.445-1.994-1.473-.583-1.027-.936-1.687-1.181-1.917.153.015.307.015.46 0l.123-.015c.352.644 1.073 1.718 1.702 2.086 0 0 .169-.86-1.718-2.623a1.214 1.214 0 0 0-.122-.245c.168.061.368.092.582.092h.046ZM74.63 11.41c0-.122.491-.23 1.105-.23.613 0 1.104.108 1.104.23 0 .123-.49.23-1.104.23-.598.016-1.104-.091-1.104-.23ZM70.904 12.684c0-.076.322-.122.706-.122.399 0 .705.06.705.122 0 .077-.322.123-.705.123-.399 0-.706-.046-.706-.123ZM75.952 11.932a.21.21 0 0 1-.215.215.21.21 0 0 1-.214-.215.21.21 0 0 1 .214-.214.21.21 0 0 1 .215.214ZM74.555 11.196c-.368-.874-.613-1.518-.598-1.733 0-.138.169-.23.307-.276.138-.046.276-.046.368.015.184.154.368 1.32.43 1.81-.17.046-.292.062-.507.184ZM75.229 10.997c.092-.016.184-.016.291-.016-.061-.475-.215-1.242-.322-1.564-.092-.307-.215-.522-.414-.583 0 0 .153.43.245.874.077.445.138.874.2 1.289ZM74.063 12.561c.399-.092.813-.521.813-.521-.644.092-.813.521-.813.521Zm.614-.03c-.568.322-1.197.276-1.197.276.123-.215.23-.43.583-.675.353-.246.92-.322 1.15-.292-.046.17-.276.522-.536.69ZM72.577 13.451v-.046c-.552.077-1.211.046-1.211.046.03.2.122.368.26.46.031-.46.951-.46.951-.46Zm-1.84-.598s.705.261 1.395.23c.706-.03 1.994-.046 2.408-.245 0 0-.076.26-.398.414 0 0 .184 0 .353.153 0 0-.108.215-.4.338 0 0 .537.552 1.105.521 0 0-.26.322-.844.2-.582-.123-.766-.46-.874-.583 0 0 .077.307.046.445 0 0-.26-.016-.46-.261 0 0 .154.245.169.46 0 0-.154.015-.445-.153 0 0 .061.153.077.337 0 0-.675-.215-.997-.521 0 0 0 .214.015.337-.03-.03-1.073-.138-1.15-1.672ZM70.567 12.96c.031.337.108.66.23.89 0 0-.414-.307-.521-.568-.092-.26-.123-.445.291-.322ZM69.739 14.218a.17.17 0 0 0 .168-.169.17.17 0 0 0-.168-.168.17.17 0 0 0-.17.168.17.17 0 0 0 .17.169Zm1.012-.2c.276.123.521.43.521.43-.414.092-.598.215-.598.215a1.182 1.182 0 0 0-1.457 0c-.43-.246-.521-.844-.307-1.166.215-.322.706-.26.936-.215.138.476.66.63.905.736ZM71.364 14.556s.291.383.506.552c0 0-1.073-.016-1.35.92 0 0-.367-.567-.107-.95.292-.384.568-.446.951-.522Z" fill="#0155A5"/><path fill-rule="evenodd" clip-rule="evenodd" d="M72.546 14.785s.353.108.46.138v-.291c.107.03.23.061.353.077 0 0 .353.782.613 1.088 0 0 .016.17-.138.43 0 0-.2-.46-.552-.828-.184-.23-.322-.322-.736-.614ZM71.626 14.616c.107.03.675.2.935.399.338.245.568.521.537.997 0 0-.276-.383-.567-.552a3.277 3.277 0 0 1-.905-.844ZM71.642 11.104c.108 0 .307.046.307.215 0 .169-.26.568-.322.736-.077-.184-.322-.582-.322-.736 0-.169.2-.215.307-.215h.03ZM71.41 12.392c-.045-.23-.137-.843-.29-.966-.139-.123-.338-.138-.445-.138a.182.182 0 0 0-.169.245c.046.139.49.813.552.89.123-.015.107-.015.353-.03ZM71.81 12.392c.047-.23.139-.843.292-.966.138-.123.337-.138.43-.138.107 0 .214.107.168.245-.046.139-.49.813-.552.89-.107-.015-.077-.015-.337-.03ZM72.102 10.292h-.353v-.384h-.276v.384h-.353v.245h.353v.46h.276v-.46h.353v-.245ZM67.885 12.776c0-.077 0-.153.015-.215.03-.184.03-.352.015-.475-.245.092-.414.153-.767.72-.015-.014.537-.352.737-.03Z" fill="#0155A5"/><path fill-rule="evenodd" clip-rule="evenodd" d="M68.36 13.665c0-.137.092-.567.215-.889.138-.383.061-.92-.108-1.258-.168-.322-.26-.629-.23-.95 0 0-.322.107-.521.23-.03.383.2.766.307.996.122.261.107.598.076.798-.046.337.031.72.261 1.073ZM68.388 10.706c-.015-.046-.015-.169.016-.215 0 0 .506-.506.95-.583a.538.538 0 0 1 .522.138s-.153-.015-.383.169-.522.414-.737.475c-.214.046-.26.031-.368.016ZM69.91 10.077c.199.2.352.399.352.568 0 .184-.215.644-.322.813-.108.184-.276.398-.261.69.015.138.107.276.215.399 0 0-.63-.154-.706-.537-.061-.353.077-.598.184-.783.092-.184.384-.598.46-.782.077-.138.108-.276.077-.368ZM73.588 14.448c.123.445.338.86.553 1.197.184.291.306.782.29.95 0 0 .292-.628.139-1.073-.123-.338-.43-.859-.982-1.074ZM74.296 14.602s.43 0 .629.138c.26.168.506.536.598.996 0 0-.43-.076-.644-.29-.215-.216-.476-.538-.583-.844ZM72.054 15.384c-.077 0-.307.061-.414.092 0 0 .368.107.552.26.153.123.291.323.353.66.092.476.368.982.445 1.12h.03c-.046-.322.154-.997.2-1.09 0 0-.292-.183-.43-.367-.077-.154-.245-.384-.736-.675ZM73.974 16.38c.107.246.399.676.26 1.136-.137.46-.429.644-.613 1.043 0 0-.153-.69-.107-1.227.015-.552.215-.752.46-.951ZM74.8 16.395s.43.829.506 1.15a.84.84 0 0 1-.138.737c-.138.2-.399.399-.613.813 0 0-.26-.353-.292-.537-.03-.184.016-.613.077-.797.046-.17.276-.767.46-1.366ZM75.015 19.049c-.092.107-.598.705-.66.874-.06.169-.183.506-.03.736.153.23.506.598.828.752 0 0-.337-.522-.306-.966.015-.276.23-.522.276-.69.046-.154.015-.445-.108-.706ZM74.032 18.727c.077.107.215.368.23.613.016.245-.015.445-.153.813a8.13 8.13 0 0 1-.567 1.196s-.23-.337-.368-.629c0 0 .368-.506.521-.858.2-.43.276-.813.338-1.135ZM73.865 18.527s-.153 1.181-.859 2.056c-.475.598-.859.797-1.104.797-.384 0-.767-.322-.89-.69-.123-.368-.092-.936.154-1.135 0 0 .23.706.72.736.553.046 1.273-.567 1.979-1.764Z" fill="#0155A5"/><path fill-rule="evenodd" clip-rule="evenodd" d="M73.297 18.037c.061.215.077.537 0 .844-.061.23-.2.537-.476.705-.23.154-.782.184-.996-.337 0-.016 1.012.061 1.472-1.212ZM74.955 22.807c.138.352.63.797.63 1.089-.016.736-.323 1.18-.415 1.426 0 0-.583-.476-.69-1.012-.046-.276.015-1.105.475-1.503ZM74.295 23.328c.077-.184.292-.706.537-.89 0 0 .322-.95-.706-1.518 0 0-.429.567-.536 1.089-.123.521.444.828.705 1.319ZM73.005 20.936c-.169.199-.399.475-.583.567 0 0-.061.43-.03.706.045.414.322.843.429 1.15 0 0 .445-.583.506-.936.046-.352.046-.629.061-.797 0 0-.245-.414-.383-.69ZM71.826 22.96c-.123-.199-.537-.904-.552-1.426 0 0 .506.276.935.077 0 0 .062.675-.03.905-.062.184-.154.291-.353.445ZM71.933 23.098c.076-.077.291-.26.368-.353 0 0 .337.614.398.798 0 0-.168.046-.352-.092-.184-.138-.23-.17-.414-.353ZM73.496 22.745c-.046.153-.583.92-.675 1.012 0 0 .046.276.246.675s.475.675.629.813c0 0 .337-.583.429-.843.107-.292.107-.583.046-.69-.107-.277-.49-.645-.675-.967ZM74.326 24.724c.123.245.491.644.537.966.046.245 0 .445-.061.629-.062.168-.292.506-.43.751 0 0-.49-.475-.613-.797a1.264 1.264 0 0 1 .061-.828c.123-.246.384-.491.506-.721ZM72.9 24.662c.122.276.444.568.506.813.076.291.107.476-.03.813-.124.291-.277.475-.323.66 0 0-.399-.522-.475-.737-.062-.214-.092-.583 0-.797.092-.246.23-.553.322-.752ZM74.893 26.656s-.69.844-.675 1.289c.015.552.383.92.445 1.273 0 0 .368-.415.506-.69.153-.307.276-.583.23-.936-.046-.353-.138-.583-.506-.936ZM73.621 26.564c.108.154.414.706.338 1.043-.093.323-.43.783-.553.982 0 0-.276-.567-.337-.828-.061-.246 0-.675.552-1.197ZM80.583 12.684c0-.076-.322-.122-.705-.122-.399 0-.706.06-.706.122 0 .077.322.123.706.123.383 0 .705-.046.705-.123ZM75.753 10.506c.046-.322.414-.997.414-1.288a.412.412 0 0 0-.414-.414.412.412 0 0 0-.414.414c-.016.291.353.966.414 1.288ZM76.918 11.196c.368-.874.613-1.518.598-1.733 0-.138-.169-.23-.307-.276-.153-.046-.276-.046-.368.015-.184.154-.368 1.32-.43 1.81.185.046.292.062.507.184ZM76.257 10.997c-.092-.016-.184-.016-.291-.016.06-.475.214-1.242.322-1.564.092-.307.214-.522.414-.583 0 0-.154.43-.246.874-.092.445-.153.874-.199 1.289ZM76.596 12.04s.414.43.813.521c0 0-.17-.43-.813-.521Zm-.338-.2c.23-.03.798.03 1.15.292.353.245.46.46.583.675 0 0-.628.045-1.196-.277-.26-.168-.49-.521-.537-.69Z" fill="#0155A5"/><path fill-rule="evenodd" clip-rule="evenodd" d="M79.845 13.91c.154-.091.23-.245.26-.46 0 0-.659.032-1.21-.045v.046c.015 0 .92 0 .95.46Zm-.23.584c.016-.123.016-.338.016-.338-.323.307-.997.522-.997.522.015-.184.076-.338.076-.338-.291.17-.444.154-.444.154.03-.215.183-.46.183-.46-.199.245-.46.26-.46.26-.03-.122.046-.444.046-.444-.107.122-.291.46-.874.582-.583.123-.843-.199-.843-.199.567.046 1.104-.522 1.104-.522a.807.807 0 0 1-.399-.337c.169-.153.353-.153.353-.153-.338-.154-.399-.414-.399-.414.414.199 1.703.214 2.408.245.706.03 1.396-.23 1.396-.23-.108 1.564-1.166 1.672-1.166 1.672ZM80.905 12.96c-.03.337-.108.66-.23.89 0 0 .414-.307.506-.568.123-.26.138-.445-.276-.322ZM81.902 14.05a.17.17 0 0 0-.169-.17.17.17 0 0 0-.168.17.17.17 0 0 0 .168.168.17.17 0 0 0 .169-.169Zm-.26-.752c.23-.062.72-.107.935.215.215.322.138.92-.307 1.165 0 0-.66-.567-1.457 0 0 0-.184-.123-.598-.215 0 0 .245-.29.521-.429.246-.123.752-.276.905-.736ZM80.108 14.556s-.292.383-.507.552c0 0 1.074-.016 1.35.92 0 0 .368-.567.107-.95-.291-.384-.567-.446-.95-.522Z" fill="#0155A5"/><path fill-rule="evenodd" clip-rule="evenodd" d="M78.927 14.785s-.353.108-.46.138v-.291c-.108.03-.23.061-.353.077 0 0-.353.782-.614 1.088 0 0-.015.17.138.43 0 0 .2-.46.552-.828.2-.23.323-.322.737-.614ZM79.848 14.616c-.107.03-.675.2-.936.399-.337.245-.567.521-.537.997 0 0 .277-.383.568-.552.245-.138.675-.506.905-.844ZM79.845 11.104c-.107 0-.306.046-.306.215 0 .169.26.568.322.736.061-.184.322-.582.322-.736 0-.169-.2-.215-.307-.215h-.03ZM80.061 12.392c.046-.23.138-.843.292-.966.138-.123.337-.138.444-.138.108 0 .215.107.17.245-.047.139-.492.813-.553.89-.107-.015-.092-.015-.353-.03ZM79.663 12.392c-.046-.23-.138-.843-.292-.966-.138-.123-.337-.138-.445-.138-.107 0-.199.107-.168.245.046.139.49.813.552.89.123-.015.107-.015.353-.03ZM79.385 10.292h.338v-.384h.291v.384h.338v.245h-.338v.46h-.291v-.46h-.338v-.245ZM75.199 8.022h.353v-.399h.275v.399h.353v.23h-.353v.46h-.275v-.46h-.353v-.23ZM83.603 12.776c0-.077 0-.153-.015-.215a1.707 1.707 0 0 1-.016-.475c.246.092.415.153.767.72 0-.014-.552-.352-.736-.03Z" fill="#0155A5"/><path fill-rule="evenodd" clip-rule="evenodd" d="M83.113 13.665c0-.137-.092-.567-.214-.889-.138-.383-.062-.92.107-1.258.169-.322.26-.629.23-.95 0 0 .322.107.506.23.03.383-.2.766-.306.996-.123.261-.108.598-.077.798.077.337 0 .72-.246 1.073ZM83.083 10.706c.015-.046.015-.169-.015-.215 0 0-.507-.506-.951-.583a.538.538 0 0 0-.522.138s.154-.015.384.169.521.414.736.475c.215.046.26.031.368.016ZM81.564 10.077c-.199.2-.352.399-.352.568 0 .184.214.644.322.813.107.184.276.398.26.69-.015.138-.107.276-.214.399 0 0 .629-.154.705-.537.062-.353-.076-.598-.184-.783-.092-.184-.383-.598-.46-.782-.061-.138-.107-.276-.077-.368ZM77.897 14.448a4.52 4.52 0 0 1-.552 1.197c-.184.291-.307.782-.291.95 0 0-.292-.628-.138-1.073.107-.338.414-.859.981-1.074ZM77.179 14.602s-.43 0-.63.138c-.26.168-.505.536-.597.996 0 0 .43-.076.644-.29.23-.216.49-.538.583-.844ZM79.418 15.384c.076 0 .307.061.414.092 0 0-.368.107-.552.26-.154.123-.292.323-.353.66-.092.476-.368.982-.445 1.12h-.03c.046-.322-.154-.997-.2-1.09 0 0 .292-.183.43-.367.076-.154.26-.384.736-.675ZM77.5 16.38c-.108.246-.4.676-.261 1.136.138.46.43.644.613 1.043 0 0 .154-.69.108-1.227-.016-.552-.215-.752-.46-.951ZM75.751 17.654c.016-.26.63-.905.599-1.258-.031-.353-.491-.598-.614-.644-.107.046-.583.291-.613.644-.031.353.598.997.628 1.258ZM76.671 16.395s-.43.829-.506 1.15a.84.84 0 0 0 .138.737c.138.2.384.399.614.813 0 0 .26-.353.291-.537.03-.184-.015-.613-.077-.797-.03-.17-.26-.767-.46-1.366ZM75.736 19.616c.2-.168.368-.414.43-.567.061-.153.076-.368-.062-.537-.153-.2-.353-.414-.368-.598h-.015c-.016.184-.215.399-.368.598-.123.169-.108.384-.062.537.077.153.246.399.445.567ZM76.456 19.049c.092.107.598.705.66.874.06.169.183.506.03.736-.153.23-.506.598-.828.752 0 0 .337-.522.306-.966-.015-.276-.23-.522-.276-.69-.046-.154-.015-.445.108-.706ZM77.44 18.727a1.351 1.351 0 0 0-.23.613c-.015.245.015.445.153.813.169.46.43.966.552 1.196 0 0 .23-.337.368-.629 0 0-.368-.506-.521-.858-.169-.43-.245-.813-.322-1.135ZM77.607 18.527s.154 1.181.86 2.056c.475.598.858.797 1.104.797.383 0 .767-.322.89-.69.122-.368.091-.936-.154-1.135 0 0-.23.706-.721.736-.552.046-1.258-.567-1.979-1.764Z" fill="#0155A5"/><path fill-rule="evenodd" clip-rule="evenodd" d="M78.173 18.037a1.732 1.732 0 0 0 0 .844c.062.23.2.537.476.705.23.154.782.184.997-.337 0-.016-1.013.061-1.473-1.212ZM75.737 21.55c.138-.062.26-.123.43-.369.122-.199.245-.567.184-.828-.092-.322-.261-.445-.368-.644-.093.077-.139.138-.246.2-.107-.062-.153-.123-.245-.2-.108.2-.276.322-.368.644-.062.26.046.629.184.828.168.246.291.292.43.368ZM75.737 23.543c.076-.307.72-.92.66-1.243-.093-.49-.415-.383-.66-.598-.246.215-.568.107-.66.598-.061.322.583.92.66 1.243ZM76.518 22.807c-.138.352-.63.797-.63 1.089.016.736.323 1.18.415 1.426 0 0 .583-.476.69-1.012.046-.276-.015-1.105-.475-1.503ZM77.18 23.328c-.078-.184-.292-.706-.538-.89 0 0-.322-.95.706-1.518 0 0 .43.567.537 1.089.122.521-.445.828-.706 1.319ZM78.465 20.936c.169.199.399.475.583.567 0 0 .061.43.03.706-.046.414-.322.843-.429 1.15 0 0-.445-.583-.506-.936-.046-.352-.046-.629-.061-.797 0 0 .245-.414.383-.69ZM79.662 22.96c.123-.199.537-.904.553-1.426 0 0-.507.276-.936.077 0 0-.061.675.03.905.062.184.139.291.353.445ZM79.539 23.098c-.077-.077-.292-.26-.368-.353 0 0-.338.614-.4.798 0 0 .17.046.353-.092.2-.138.23-.17.415-.353ZM77.975 22.745c.046.153.583.92.675 1.012 0 0-.046.276-.246.675a2.8 2.8 0 0 1-.629.813s-.337-.583-.429-.843c-.107-.292-.107-.583-.046-.69.107-.277.506-.645.675-.967ZM75.736 27.224c.046-.215.368-.46.506-.813.077-.215.077-.46-.015-.629-.092-.2-.445-.69-.49-.828-.047.138-.4.629-.492.828-.092.169-.092.414-.015.63.138.367.445.613.506.812ZM77.164 24.724c-.123.245-.49.644-.537.966-.046.245 0 .445.061.629.062.168.292.506.43.751 0 0 .49-.475.613-.797.077-.261.046-.614-.061-.828-.138-.246-.399-.491-.506-.721ZM78.574 24.662c-.138.276-.445.568-.506.813-.077.291-.107.476.03.813.124.291.277.475.323.66 0 0 .399-.522.475-.737.062-.214.092-.583 0-.797-.076-.246-.23-.553-.322-.752ZM75.737 31.242c.03-.26.552-1.043.583-1.886.015-.414-.368-1.074-.583-1.335h-.015c-.215.246-.583.905-.568 1.335.03.843.552 1.641.583 1.886ZM76.579 26.656s.69.844.675 1.289c-.016.552-.384.92-.445 1.273 0 0-.368-.415-.506-.69-.154-.307-.276-.583-.23-.936.046-.353.138-.583.506-.936ZM77.867 26.564c-.107.154-.414.706-.337 1.043.092.323.43.783.552.982 0 0 .276-.567.337-.828.062-.246 0-.675-.552-1.197Z" fill="#0155A5"/><path fill-rule="evenodd" clip-rule="evenodd" d="M76.212 32.592c.046-.66.414-1.043.476-1.38.077-.369.046-.737-.246-1.166-.23.797-.49 1.396-.69 1.794 0 .016-.015.016-.015.031 0-.015-.015-.03-.015-.03-.2-.4-.46-.998-.69-1.795-.292.43-.323.782-.246 1.166.061.337.43.736.475 1.38.047.66-.69.905-.69.905.246.092.537.123.982-.292.077-.076.138-.168.184-.245a.743.743 0 0 0 .2.245c.444.43.736.384.98.292 0 0-.735-.246-.705-.905ZM73.894 28.252c.077.245.307.69.338.828.061.26-.016.568-.491.905 0 0-.307-.215-.43-.49-.107-.262-.046-.446.077-.584.108-.138.384-.46.506-.659ZM74.893 29.218c0 .138-.092.874-.306 1.242-.292.522-.737.905-1.105.905-.353 0-.43-.215-.598-.291 0 0 .092-.445.49-.568.476-.153 1.213-.736 1.52-1.288ZM73.619 30.153c-.077-.061-.153-.107-.245-.214 0 0-.369.137-.69.352-.307.215-.614.568-.783.752 0 0 .46.123.752-.016 0 0 .107-.444.43-.644.091-.046.321-.122.536-.23ZM73.236 29.785a.919.919 0 0 1-.184-.644s-.645.414-.844.567c-.2.154-.598.583-.69.721 0 0 .49-.107.874-.23.399-.154.69-.338.844-.414ZM72.133 30.476c-.353.122-1.135.245-1.472.352-.338.092-.568.261-.89.614 0 0 .491.138.736.215 0 0 .414-.276.86-.46.321-.108.46-.415.766-.721ZM71.412 32.806c.077-.076.17-.184.093-.368-.046-.138-.338-.307-.507-.383-.276-.138-1.058-.338-1.319-.414 0 0-.122.153-.199.306-.03.062.015.123.123.138.215.031.736-.06.874.016.138.092.092.215.092.337 0 0 .245-.138.383-.107.215.03.338.122.46.475ZM70.706 31.717c.06.016.368.108.66.307 0 0 .137-.046.198-.169.062-.122.338-.506.583-.567 0 0-.214-.015-.322-.061 0 0-.26.06-.43.138-.199.061-.429.184-.69.352ZM72.73 31.212c-.046.015-.122.061-.306.061 0 0-.69.476-.767.951-.061.414.153.598.245.66.108.046.583.245.905-.4 0 0-.537.17-.675-.076-.138-.26.092-.629.23-.736.184-.138.537-.245.737-.2 0 0-.17-.153-.368-.26Z" fill="#0155A5"/><path fill-rule="evenodd" clip-rule="evenodd" d="M68.22 36.687c.076-.353.184-.721.337-1.059.307-.66 1.074-2.407 2.669-2.73.153-.03-.169-.398-.322-.383-.138.015-.43.2-.552.291v-.444c0-.062-.062-.093-.123-.093-.062 0-.445 0-.568.139-.368.414-.981 1.549-1.319 2.392-.352.844-.582 1.105-.95.967-.369-.123-.583-.553-1.228-.415-.214.046-.46.2-.66.415.047.107.124.23.415.23s.874.122 1.181.352c.322.215.66.276 1.12.338ZM74.57 31.242c.03.276.168.522.306.782 0 0-.49 2.24-2.24 2.408 0 0 .032-.46.553-.813.521-.352 1.288-.904 1.242-1.733 0 0-.138.031-.383.338-.246.307-.798 1.211-1.641 1.211 0 0 .122-.429.49-.66.369-.244.86-.551 1.074-.92.215-.367.445-.536.598-.613ZM73.742 39.387l1.073 1.488.813-1.442-.291-.506c-.215.383-.43.782-.568 1.012-.092-.138-.368-.521-.72-1.012l-.307.46Z" fill="#0155A5"/><path fill-rule="evenodd" clip-rule="evenodd" d="M73.466 38.129c-1.043-1.457-2.316-3.252-2.454-3.436l.398-.291-1.272-.49.03 1.38.43-.307 2.56 3.604.308-.46ZM64.709 29.954c.307-.337.843-.046 1.38.445.537.49.874.997.568 1.334-.292.322-.844.046-1.38-.445-.553-.49-.89-.997-.568-1.334Z" fill="#0155A5"/><path fill-rule="evenodd" clip-rule="evenodd" d="m65.566 36.027-.046-.046c-.291-.245-.445-.629-.445-1.058a1.473 1.473 0 0 1 2.945 0c0 .107-.015.291-.015.291.061-.122.306-.69.352-.782a1.877 1.877 0 0 0-1.794-1.365c-.736 0-1.38.43-1.687 1.058.123-.736.475-1.41.751-1.656.307-.291.844-.383.844-.383-.353.06-.813-.154-1.32-.63-.49-.444-.735-.843-.75-1.165.03.46.015.72-.108 1.089-.184.506-.66 1.457-.49 2.515.091.583.52 1.457 1.226 2.163.154.153.215.399.23.521 0 0 1.043 0 1.289.016 0 0 .245-.016.245-.184 0-.154-.138-.2-.26-.2-.17.016-.69.016-.967-.184ZM71.35 36.38c-.675.246-1.334.369-1.978.476a5.401 5.401 0 0 1-1.212.062c0 .061 0 .153-.03.214 0 0 .076.092.076.184a6.76 6.76 0 0 0 1.227-.076c.69-.108 1.426-.246 2.163-.522l-.246-.337ZM72.438 36.335c.89-.491 1.764-1.243 2.546-2.439l.138-.23c-.215.092-.49.03-.49.03a.665.665 0 0 0-.062.108c-.736 1.074-1.534 1.764-2.362 2.209l.23.322ZM66.564 36.718a3.305 3.305 0 0 0-.751.03c-.261.047-.553.093-.583.23-.03.139.061.277.2.476.076.123.275.062.383.016.107-.046.705-.368.813-.476.091-.092.137-.245-.062-.276ZM67.193 37.117c-.061-.046-.215-.108-.383-.046-.169.061-.752.414-.798.583-.046.168.046.245.138.276.092.03.2.076.292.076.153.016.291-.076.368-.168.076-.092.352-.43.399-.507.015-.06.046-.184-.016-.214ZM67.255 37.484a5.615 5.615 0 0 0-.353.43c-.03.046.016.122.093.122.076-.015.475-.046.72-.214.23-.154.4-.476.23-.583-.168-.107-.414-.061-.69.245ZM67.392 36.595c-.077-.015-.383-.092-.46 0-.077.123-.03.261.215.384.245.107.69.2.782.076.092-.122-.03-.337-.537-.46ZM77.577 28.252c-.076.245-.306.69-.337.828-.061.26.015.568.49.905 0 0 .307-.215.43-.49.108-.262.046-.446-.077-.584-.107-.138-.383-.46-.506-.659ZM76.58 29.218c0 .138.091.874.306 1.242.291.522.72.905 1.104.905.353 0 .43-.215.598-.291 0 0-.092-.445-.49-.568-.46-.153-1.212-.736-1.519-1.288ZM77.852 30.153c.076-.061.153-.107.245-.214 0 0 .368.137.69.352.307.215.614.568.782.752 0 0-.46.123-.751-.016 0 0-.108-.444-.43-.644-.092-.046-.322-.122-.536-.23ZM78.235 29.785a.92.92 0 0 0 .184-.644s.644.414.843.567c.2.154.599.583.69.721 0 0-.49-.107-.874-.23-.398-.154-.69-.338-.843-.414ZM79.34 30.476c.353.122 1.135.245 1.472.352.338.092.568.261.89.614 0 0-.491.138-.736.215 0 0-.414-.276-.86-.46-.306-.108-.46-.415-.766-.721ZM80.076 32.806c-.076-.076-.168-.184-.092-.368.046-.138.338-.307.506-.383.276-.138 1.059-.338 1.32-.414 0 0 .122.153.199.306.03.062-.016.123-.123.138-.215.031-.736-.06-.874.016-.138.092-.092.215-.092.337 0 0-.246-.138-.384-.107-.214.03-.337.122-.46.475ZM80.768 31.717a2.318 2.318 0 0 0-.66.307s-.138-.046-.2-.169c-.06-.122-.337-.506-.582-.567 0 0 .215-.015.322-.061 0 0 .26.06.43.138.199.061.429.184.69.352ZM78.742 31.212c.046.015.123.061.307.061 0 0 .69.476.767.951.077.414-.138.598-.245.66-.108.046-.583.245-.905-.4 0 0 .537.17.675-.076.138-.26-.092-.629-.23-.736-.185-.138-.537-.245-.737-.2.016 0 .184-.153.368-.26Z" fill="#0155A5"/><path fill-rule="evenodd" clip-rule="evenodd" d="M83.267 36.687a5.3 5.3 0 0 0-.337-1.059c-.307-.66-1.074-2.407-2.669-2.73-.153-.03.17-.398.307-.383.138.015.43.2.552.291v-.444c0-.062.062-.093.123-.093s.445 0 .568.139c.368.414.981 1.549 1.318 2.392.353.844.583 1.105.951.967.368-.123.583-.553 1.227-.415.215.046.46.2.66.415-.046.107-.123.23-.414.23-.307 0-.874.122-1.181.352-.322.215-.644.276-1.105.338ZM76.903 31.242c-.03.276-.169.522-.307.782 0 0 .491 2.24 2.24 2.408 0 0-.031-.46-.552-.813-.522-.352-1.289-.904-1.243-1.733 0 0 .138.031.384.338.245.307.797 1.211 1.64 1.211 0 0-.122-.429-.49-.66-.368-.244-.859-.551-1.074-.92-.214-.367-.444-.536-.598-.613ZM75.736 33.405c.107.292.766 1.227 1.058 1.503.291.261.997.967 1.38 1.335 0 0-1.074-.261-1.687-.813 0 0-.43.245-.751.245h-.016c-.307 0-.751-.245-.751-.245-.598.552-1.688.813-1.688.813.384-.353 1.09-1.059 1.38-1.335.308-.26.967-1.196 1.075-1.503Z" fill="#0155A5"/><path fill-rule="evenodd" clip-rule="evenodd" d="M75.753 35.89c.23 0 .46-.092.583-.154-.123.261-.368.69-.598.86-.23-.17-.46-.584-.599-.86.123.062.353.154.583.154h.03Z" fill="#0155A5"/><path fill-rule="evenodd" clip-rule="evenodd" d="m76.673 40.874 4.203-5.89.429.307.03-1.38-1.272.49.398.292c-.199.292-3.358 4.694-3.742 5.261l-1.902-3.45-.23.352-1.702 2.561-.43-.276v1.365L73.744 40l-.43-.291c.23-.353 1.15-1.749 1.457-2.209l1.902 3.374Z" fill="#0155A5"/><path fill-rule="evenodd" clip-rule="evenodd" d="M77.439 38.558c-.292-.43-.568-.859-.721-1.074-.108.2-.322.583-.568 1.012l-.306-.536.812-1.473.23.353.844 1.273-.291.445ZM78.299 38.941l.307.46.43-.276v1.365l-1.29-.506.43-.291c-.046-.061-.107-.169-.2-.291l.323-.46ZM86.78 29.954c-.322-.337-.844-.046-1.38.445-.537.49-.875.997-.568 1.334.291.322.844.046 1.38-.445.537-.49.875-.997.568-1.334Z" fill="#0155A5"/><path fill-rule="evenodd" clip-rule="evenodd" d="m85.905 36.027.046-.046c.291-.245.445-.629.445-1.058 0-.813-.66-1.473-1.473-1.473a1.46 1.46 0 0 0-1.457 1.473c0 .107.016.291.016.291-.062-.122-.307-.69-.353-.782a1.863 1.863 0 0 1 1.794-1.365c.737 0 1.38.43 1.688 1.058-.123-.736-.491-1.41-.752-1.656-.307-.291-.844-.383-.844-.383.353.06.813-.154 1.32-.63.49-.444.736-.843.75-1.165-.03.46-.014.72.108 1.089.184.506.66 1.457.491 2.515-.092.583-.521 1.457-1.227 2.163-.153.153-.215.399-.23.521 0 0-1.043 0-1.288.016 0 0-.246-.016-.246-.184 0-.154.138-.2.261-.2.153.016.675.016.951-.184ZM79.033 36.335c-.89-.491-1.764-1.243-2.546-2.439l-.138-.23c.215.092.49.03.49.03.016.016.047.077.062.108.737 1.074 1.534 1.764 2.362 2.209l-.23.322ZM80.122 36.38c.675.246 1.35.369 1.979.476.414.062.813.092 1.211.062 0 .061 0 .153.031.214 0 0-.077.092-.077.184a6.76 6.76 0 0 1-1.227-.076c-.69-.108-1.426-.246-2.162-.522l.245-.337ZM84.908 36.718a3.28 3.28 0 0 1 .752.03c.26.047.552.093.583.23.03.139-.062.277-.2.476-.077.123-.276.062-.383.016-.108-.046-.706-.368-.813-.476-.092-.092-.123-.245.061-.276ZM84.295 37.117c.061-.046.23-.108.383-.046.17.061.752.414.798.583.046.168-.046.245-.138.276-.092.03-.2.076-.291.076-.154.016-.292-.076-.368-.168a9.488 9.488 0 0 1-.4-.507c-.03-.06-.045-.184.016-.214ZM84.219 37.484c.092.092.322.384.353.43.03.046-.016.122-.092.122-.077-.015-.491-.046-.721-.214-.23-.154-.399-.476-.23-.583.169-.107.414-.061.69.245ZM84.096 36.595c.077-.015.383-.092.46 0 .077.123.03.261-.215.384-.245.107-.69.2-.782.076-.107-.122.015-.337.537-.46Z" fill="#0155A5"/></g><defs><clipPath id="a"><path fill="#fff" d="M0 0h100v48.512H0z"/></clipPath></defs></svg>
