<svg width="75" height="75" fill="none" xmlns="http://www.w3.org/2000/svg"><path fill="#008752" d="M.108.129h28v2h-28zm72 74.001v-28h2v28z"/><path d="M28.107.053L74.108 46.13l.083 28.115L0 .054h28.107z" fill="#1AB248"/><path d="M30.156 11.104c.65.65.997 1.346 1.04 2.086.052.74-.205 1.417-.771 2.03l-1.266-1.266c.245-.302.36-.61.347-.927-.01-.31-.146-.598-.41-.862-.335-.335-.74-.457-1.217-.368-.466.09-.942.377-1.428.863-.486.485-.775.964-.87 1.435-.085.472.036.87.36 1.195.265.264.557.401.878.41.325.014.646-.103.961-.353l1.28 1.28c-.67.575-1.371.834-2.107.777-.735-.056-1.426-.407-2.072-1.053-.726-.726-1.065-1.532-1.018-2.418.057-.887.493-1.738 1.308-2.553.816-.816 1.667-1.247 2.553-1.294.89-.052 1.702.287 2.432 1.018zm1.887 8.35l-.502 3.33-1.442-1.442.615-2.637-.014-.015-1.627 1.627-1.174-1.174 3.593-3.592 1.173 1.174-1.414 1.414.014.014 2.376-.453L35 19.058l-2.956.396zm7.477 4.125l-3.593 3.592-1.138-1.139 1.273-1.273c.471-.47.966-.923 1.485-1.357l-.014-.014a13.19 13.19 0 01-1.853.792l-2.05.693-1.698-1.697 3.592-3.592 1.139 1.138-1.28 1.28c-.49.49-.985.938-1.485 1.343l.014.015a15.678 15.678 0 011.86-.785l2.05-.693 1.697 1.697zm1.842 7.316l.481.48-1.987 1.987-1.16-1.16 1.132-1.13-2.291-2.292-1.131 1.132-1.16-1.16 1.987-1.987.431.431c.335-.08.733-.28 1.195-.6.472-.321 1.143-.875 2.016-1.662l3.224 3.224-2.736 2.737zm-1.16-1.16l1.882-1.88-.962-.963c-.844.76-1.56 1.297-2.15 1.613l1.23 1.23zm5.417 3.295l-.502 3.33-1.442-1.442.615-2.638-.014-.014-1.627 1.627-1.174-1.174 3.593-3.592L46.24 30.3l-1.414 1.414.014.014 2.376-.453 1.358 1.358-2.956.396zm5.06 1.481c1.088 1.09 1.147 2.12.176 3.09l-1.237 1.238c-.43.429-.731.801-.906 1.117l-1.06-1.06c.099-.166.238-.338.417-.517l-.014-.014c-.646.099-1.221-.104-1.725-.608-.382-.382-.58-.788-.594-1.216-.015-.43.139-.804.46-1.125.315-.316.676-.46 1.081-.431.41.033.912.266 1.506.7.344.25.665.504.962.764l.127-.128c.377-.377.398-.733.064-1.067-.33-.33-.667-.333-1.011-.008l-1.132-1.13a1.697 1.697 0 011.33-.453c.509.037 1.027.32 1.555.848zm-1.705 2.708l.127-.127a6.188 6.188 0 00-.707-.566c-.207-.141-.389-.214-.544-.219-.146-.005-.283.057-.41.184a.562.562 0 00-.184.424c.01.151.087.3.233.446.25.25.495.353.736.31.24-.041.49-.192.75-.452zM59.2 40.911l-.969.968-2.192-2.192-1.06.863.014.014c.485.014.919.212 1.3.594.472.471.71 1.002.715 1.591.005.59-.226 1.117-.693 1.584-.523.523-1.12.766-1.789.728-.665-.042-1.287-.353-1.867-.933-.556-.556-.87-1.13-.94-1.718-.066-.594.127-1.118.58-1.57l1.216 1.216a.734.734 0 00-.22.587.961.961 0 00.298.58c.221.221.455.327.7.318.245-.01.49-.137.735-.382.24-.24.36-.483.36-.728.01-.245-.089-.471-.296-.679a.913.913 0 00-.538-.283.802.802 0 00-.537.127l-1.103-1.258 3.125-2.588 3.161 3.16zm2.348 7.127c.462-.037.889.14 1.28.53.391.392.568.819.53 1.28-.033.467-.28.932-.742 1.394-.462.462-.927.71-1.393.742-.462.038-.889-.139-1.28-.53-.392-.391-.568-.818-.53-1.28.037-.462.287-.924.749-1.386.462-.462.924-.712 1.386-.75zm.212 2.348c.542-.542.688-.938.438-1.188-.25-.25-.645-.104-1.188.439-.537.537-.68.93-.43 1.18.249.25.643.106 1.18-.43zm-1.57-8.004c.462-.038.889.139 1.28.53s.568.818.53 1.28c-.032.467-.28.93-.742 1.393-.462.462-.926.71-1.393.742-.462.038-.889-.139-1.28-.53s-.568-.818-.53-1.28c.038-.462.287-.924.75-1.386.461-.462.923-.712 1.385-.75zm.212 2.347c.538-.537.682-.93.432-1.18-.25-.25-.644-.107-1.181.43-.542.543-.688.939-.438 1.189.25.25.645.103 1.187-.439zm4.568 1.528l-7.813 2.566-.707-.707 7.813-2.566.707.707z" fill="#fff"/></svg>