<svg width="30" height="28" fill="none" xmlns="http://www.w3.org/2000/svg"><path d="M20.11.222L8.87 6.699 3.86 3.813c-.358.394-.694.808-1.006 1.239l6.015 3.467 12.938-7.457a14.48 14.48 0 00-1.669-.84h-.028zM8.87 10.337L1.998 6.375c-.26.455-.496.926-.705 1.412l7.575 4.365L24.53 3.13c-.4-.387-.823-.75-1.265-1.09L8.869 10.337zm0 3.636L.74 9.285c-.16.52-.29 1.05-.39 1.594l8.52 4.911 17.7-10.205a14.968 14.968 0 00-.942-1.274l-16.759 9.66zm0 3.637L.14 12.575a14.36 14.36 0 00-.032.675v.608c.169 7.834 6.56 14.136 14.418 14.136 7.966 0 14.423-6.473 14.423-14.453a14.43 14.43 0 00-1.584-6.594L8.87 17.61z" fill="#299F34"/></svg>