<svg width="100" height="28" fill="none" xmlns="http://www.w3.org/2000/svg"><g clip-path="url(#a)" fill-rule="evenodd" clip-rule="evenodd" fill="#1AB248"><path d="M67.532 27.273h7.107l3.053-8.579 3.175-2.63 2.5 7.759c.774 2.398 1.57 3.45 3.306 3.45h5.441l-5.613-15.224L100 0h-8.718l-8.194 8.579c-.954.999-1.92 1.982-2.888 3.156h-.082L84.209 0h-7.107l-9.57 27.273ZM67.226.001h6.201L71.96 4.506c-.46 1.415-1.631 2.091-4.21 2.091l-15.583-.001 1.467-4.503C54.094.676 55.264 0 57.844 0l9.382.001ZM54.227 10.338l15.583.002-1.467 4.503c-.46 1.415-1.631 2.091-4.21 2.091-4.478 0-11.104 0-15.583-.002l1.467-4.502c.46-1.415 1.63-2.092 4.21-2.092Zm11.788 10.34-15.582-.002c-2.58 0-3.75.677-4.21 2.091l-1.467 4.504 15.583.002c2.579 0 3.749-.677 4.21-2.092l1.466-4.503ZM35.31 6.569l3.813.001c3.25.001 2.508 3.929.864 7.757-1.45 3.374-4.018 6.352-7.081 6.351h-6.358c-2.536 0-3.706.677-4.199 2.09l-1.57 4.504h4.663l4.557-.036c4.042-.032 7.35-.315 11.22-3.68 4.089-3.556 8.856-12.792 8.04-18.134-.64-4.187-2.965-5.42-8.593-5.42L30.411 0l-5.972 16.915 3.794.005c2.258.002 3.392.03 4.593-3.099L35.31 6.57ZM17.777 6.592l-2.869.001c-5.746.003-10.67 14.088-3.876 14.085h4.366c2.518 0 4.387.89 3.559 3.289l-1.14 3.305h-4.63l-3.767-.036C4.602 27.189 1.493 24.891.374 21.4-.838 17.623.873 9.745 5.837 4.698 8.717 1.77 12.707.002 17.822.002L27.272 0l-1.477 4.128c-.954 2.667-2.904 2.468-4.017 2.467l-4.001-.003Z"/></g><defs><clipPath id="a"><path fill="#fff" d="M0 0h100v27.273H0z"/></clipPath></defs></svg>
