<svg width="50" height="18" fill="none" xmlns="http://www.w3.org/2000/svg"><path d="M19.985.173h4.018L21.49 15.484h-4.017L19.985.173z" fill="url(#paint0_linear_276_3019)"/><path d="M36.083.668c-.796-.31-2.044-.644-3.601-.644-3.97 0-6.768 2.077-6.791 5.054-.023 2.2 1.996 3.427 3.52 4.16 1.565.75 2.09 1.229 2.083 1.9-.01 1.026-1.25 1.494-2.404 1.494-1.608 0-2.463-.232-3.783-.803l-.517-.244-.564 3.428c.938.428 2.674.798 4.476.817 4.223 0 6.966-2.053 6.997-5.231.015-1.742-1.056-3.068-3.374-4.16-1.404-.71-2.265-1.182-2.256-1.899 0-.636.729-1.317 2.302-1.317a7.174 7.174 0 013.007.587l.36.176.545-3.318z" fill="url(#paint1_linear_276_3019)"/><path d="M46.388.305h-3.105c-.962 0-1.682.272-2.104 1.27L35.21 15.606h4.22s.69-1.887.845-2.3l5.146.006c.12.536.49 2.294.49 2.294h3.728L46.388.305zm-4.955 9.87c.332-.883 1.6-4.281 1.6-4.281-.023.04.33-.887.533-1.462l.272 1.32s.77 3.656.93 4.422h-3.335z" fill="url(#paint2_linear_276_3019)"/><path d="M14.124.303L10.19 10.745l-.42-2.122c-.732-2.447-3.014-5.097-5.564-6.424l3.597 13.392 4.251-.005L18.38.303h-4.256z" fill="url(#paint3_linear_276_3019)"/><path d="M6.54.293H.062L.01.612c5.04 1.267 8.376 4.33 9.761 8.01L8.362 1.586C8.12.616 7.413.326 6.541.293z" fill="url(#paint4_linear_276_3019)"/><defs><linearGradient id="paint0_linear_276_3019" x1="17.041" y1="7.097" x2="24.948" y2="7.083" gradientUnits="userSpaceOnUse"><stop stop-color="#191E5F"/><stop offset="1" stop-color="#142787" stop-opacity=".818"/></linearGradient><linearGradient id="paint1_linear_276_3019" x1="12.151" y1="5.682" x2="43.573" y2="5.506" gradientUnits="userSpaceOnUse"><stop stop-color="#191E5F"/><stop offset="1" stop-color="#142787" stop-opacity=".818"/></linearGradient><linearGradient id="paint2_linear_276_3019" x1="3.003" y1="4.497" x2="51.008" y2="4.086" gradientUnits="userSpaceOnUse"><stop stop-color="#191E5F"/><stop offset="1" stop-color="#142787" stop-opacity=".818"/></linearGradient><linearGradient id="paint3_linear_276_3019" x1="2.753" y1="4.489" x2="40.123" y2="4.179" gradientUnits="userSpaceOnUse"><stop stop-color="#191E5F"/><stop offset="1" stop-color="#142787" stop-opacity=".818"/></linearGradient><linearGradient id="paint4_linear_276_3019" x1="3.133" y1="4.341" x2="29.41" y2="3.993" gradientUnits="userSpaceOnUse"><stop stop-color="#191E5F"/><stop offset="1" stop-color="#142787" stop-opacity=".818"/></linearGradient></defs></svg>