<svg xmlns="http://www.w3.org/2000/svg" width="646.455" height="99.99" viewBox="0 0 1305.969 202">
  <defs>
    <style>
      .cls-1 {
        fill: #fff;
        fill-rule: evenodd;
      }
    </style>
  </defs>
  <path id="doctorproff.ru" class="cls-1" d="M125.391,38.012V88.2h-0.2V88a42.946,42.946,0,0,1-10.056,1.008H100.651c-12.068,0-23.533,6.249-31.98,16.932-6.235,10.281-9.655,23.786-9.655,37.292v3.628c0,8.265,3.419,21.367,9.453,31.647v0.2c8.649,12.7,20.717,19.351,32.182,19.351H132.43c5.431,0,8.649-3.628,8.649-7.861V45.47c0-4.032-3.419-7.458-8.649-7.458h-7.039Zm0,144.126H99.444c-17.7,0-24.74-28.826-24.74-36.889v-2.015c0-10.885,3.218-20.763,7.442-27.011h-0.2c6.436-8.466,11.062-11.289,18.706-11.289h16.292a49.67,49.67,0,0,0,7.643-1.007h-0.2a2.178,2.178,0,0,1,1.006-.2v78.413Zm82.837-92.926a52.966,52.966,0,0,0-24.74,6.249c-15.085,8.467-24.337,23.786-24.337,40.92V151.7a47.469,47.469,0,0,0,6.638,23.987,49.016,49.016,0,0,0,42.439,24.592h1.609a49.029,49.029,0,0,0,24.337-6.652c15.085-9.071,24.74-25.8,24.74-41.927V136.38a45.516,45.516,0,0,0-6.638-23.584c-8.246-14.11-25.342-23.584-42.439-23.584h-1.609Zm2.011,14.311c16.292-.4,32.182,13.1,32.182,32.857V151.7c0,15.924-13.275,33.461-32.584,33.461h-1.609c-14.281,0-32.584-13.707-32.584-33.461V136.38c0-15.924,13.677-32.857,32.584-32.857h2.011Zm112.2-13.1c-24.539,0-45.457,16.731-45.457,46.967v16.126c0,24.794,14.08,46.564,48.876,46.564,14.08,0,28.762-2.218,38.015-17.739,4.827-8.264-.805-10.683-7.241-15.723-4.224,10.885-12.068,20.359-30.17,20.359-28.964,0-35.2-21.77-35.2-33.461V137.388c0-18.343,11.666-33.26,31.377-33.26,24.538,0,32.383,17.336,32.785,17.134l6.235-3.628c3.218-2.621,3.017-6.249.6-9.877h-0.2C350.8,95.057,337.12,90.421,322.437,90.421Zm114.009,92.926c-17.7.2-19.51-11.087-19.51-29.833V105.338h32.182V99.089c0-3.83-3.822-7.257-8.85-7.257H416.936V55.75h-7.442c-4.827,0-8.649,3.83-8.649,7.861v28.22H392.6c-5.029,0-8.85,3.427-8.85,7.257v6.249h17.1v48.176c0,19.15,4.626,44.951,36,44.951H445.9c7.24,0,7.24-7.458,7.24-15.118H436.446Zm83.846-94.135a52.962,52.962,0,0,0-24.739,6.249c-15.085,8.467-24.337,23.786-24.337,40.92V151.7a47.468,47.468,0,0,0,6.637,23.987,49.016,49.016,0,0,0,42.439,24.592h1.61a49.035,49.035,0,0,0,24.337-6.652c15.085-9.071,24.739-25.8,24.739-41.927V136.38a45.515,45.515,0,0,0-6.637-23.584C556.094,98.686,539,89.212,521.9,89.212h-1.61Zm2.012,14.311c16.292-.4,32.181,13.1,32.181,32.857V151.7c0,15.924-13.275,33.461-32.583,33.461h-1.61c-14.28,0-32.583-13.707-32.583-33.461V136.38c0-15.924,13.677-32.857,32.583-32.857H522.3Zm135.73-3.023c-18.3-19.15-68.989-17.537-68.989,21.77V190.6a8.138,8.138,0,0,0,8.448,7.861h7.039v-71.76c0-26.81,25.745-30.237,45.457-14.917,3.017,2.217,5.631-3.83,7.442-7.458C658.436,102.314,658.839,101.306,658.034,100.5ZM685.16,88c-5.43,0-8.648,3.628-8.648,7.861V232.531c0,4.032,3.419,7.458,8.648,7.458h7.04v-38.3c0-3.628,5.833-2.822,10.258-2.822H716.94c29.768,0,40.428-23.987,40.428-52.208v-2.822c0-12.3-2.012-27.212-8.046-37.492v-0.2C740.674,93.445,728.4,88,716.94,88H685.16Zm7.04,15.925h25.946c6.839,0,12.873,4.031,17.1,12.7v0.2c4.425,7.257,6.436,16.529,6.436,28.624v1.209c0,10.885-.4,36.284-23.935,36.284H692.2V103.927ZM844.427,100.5c-18.3-19.15-68.989-17.537-68.989,21.77V190.6a8.138,8.138,0,0,0,8.447,7.861h7.04v-71.76c0-26.81,25.745-30.237,45.457-14.917,3.017,2.217,5.631-3.83,7.442-7.458C844.829,102.314,845.232,101.306,844.427,100.5Zm61.522-11.288a52.962,52.962,0,0,0-24.739,6.249c-15.085,8.467-24.338,23.786-24.338,40.92V151.7a47.469,47.469,0,0,0,6.638,23.987,49.016,49.016,0,0,0,42.439,24.592h1.609a49.036,49.036,0,0,0,24.338-6.652c15.085-9.071,24.739-25.8,24.739-41.927V136.38A45.515,45.515,0,0,0,950,112.8c-8.247-14.11-25.343-23.584-42.44-23.584h-1.609Zm2.012,14.311c16.292-.4,32.181,13.1,32.181,32.857V151.7c0,15.924-13.275,33.461-32.584,33.461h-1.609c-14.28,0-32.584-13.707-32.584-33.461V136.38c0-15.924,13.678-32.857,32.584-32.857h2.012ZM1010.5,94.05V76.916c0-15.521,1.61-23.181,15.49-23.181,13.68,0,20.72,4.233,20.72,4.233,0-7.055.2-10.885,0.2-13.505,0-3.024-11.87-5.039-21.52-5.039-24.34,0-30.977,9.676-31.379,41.121V94.05h-8.046c-4.827,0-9.051.806-9.051,6.249v7.862h17.1l0.2,56.642c0,11.691-1.207,18.948-9.252,18.948h-2.816c-5.23,0-7.442-.2-7.442.4,0,10.885-1.207,14.312,6.235,14.312h4.023c19.51-.2,25.54-11.49,25.54-37.9V108.16h28.36V100.3c0-3.023.81-6.249-8.85-6.249H1010.5Zm88.27,0V76.916c0-15.521,1.61-23.181,15.49-23.181,13.68,0,20.72,4.233,20.72,4.233,0-7.055.2-10.885,0.2-13.505,0-3.024-11.87-5.039-21.52-5.039-24.34,0-30.98,9.676-31.38,41.121V94.05h-8.04c-4.83,0-9.06.806-9.06,6.249v7.862h17.1l0.2,56.642c0,11.691-1.2,18.948-9.25,18.948h-2.82c-5.23,0-7.44-.2-7.44.4,0,10.885-1.2,14.312,6.24,14.312h4.02c19.51-.2,25.54-11.49,25.54-37.9V108.16h28.36V100.3c0-3.023.81-6.249-8.85-6.249h-19.51Zm55.49,97.563c0,1.007,3.02,3.628,6.24,3.628h8.04V179.114c0-1.008-.6-1.008-2.82-1.008-10.86,0-11.46.2-11.46-.4v13.909Zm101.56-89.7c-17.7-17.134-63.16-15.118-63.16,20.359V190.6a5.19,5.19,0,0,0,5.43,4.837h4.03V126.705c0-29.43,29.76-33.26,50.28-17.336-0.6-.4.8-2.217,3.02-6.249C1255.62,102.717,1255.62,102.314,1255.82,101.911Zm108.59-8.063h-4.63a5.184,5.184,0,0,0-5.43,4.838l0.61,56.642c0,10.885-2.82,19.351-9.06,25.4-5.83,5.442-16.09,8.466-25.94,8.466-19.91,0-33.99-11.692-33.79-33.865l0.6-56.642a5.184,5.184,0,0,0-5.43-4.838h-4.63l-0.6,61.48a44.06,44.06,0,0,0,14.68,33.058c4.83,4.435,12.07,7.459,21.32,9.071a50.254,50.254,0,0,0,8.45.605,45.282,45.282,0,0,0,8.05-.605c21.12-3.225,29.76-15.118,33.79-25.6a55.709,55.709,0,0,0,2.61-16.529Z" transform="translate(-59.031 -38)"/>
</svg>
