<svg width="145" height="123" viewBox="0 0 145 123" xmlns="http://www.w3.org/2000/svg" xmlns:xlink="http://www.w3.org/1999/xlink"><svg width="16" height="10" fill="none" viewBox="-1 -1 16 10" id="arrow-down" x="58" y="72" xmlns="http://www.w3.org/2000/svg"><path d="M1 1l6 6 6-6" stroke="#000" stroke-width="1.4"/></svg><svg width="16" height="10" fill="none" viewBox="-1 -1 16 10" id="arrow-top-mini" x="94" y="82" xmlns="http://www.w3.org/2000/svg"><path d="M1 7l6-5 6 5" stroke="#fff" stroke-width="2"/></svg><svg width="13" height="20" fill="none" viewBox="-1 -1 13 20" id="arrow_right" x="21" y="82" xmlns="http://www.w3.org/2000/svg"><path d="M1 17l8-8-8-8" stroke="#000" stroke-width="2"/></svg><svg width="29" height="72" fill="none" viewBox="-1 -1 29 72" id="arrow_right_lg" x="58" xmlns="http://www.w3.org/2000/svg"><path d="M1 69l24-34L1 1" stroke="#fff" stroke-width="2"/></svg><svg width="20" height="20" fill="none" viewBox="-1 -1 20 20" id="cart" x="34" y="82" xmlns="http://www.w3.org/2000/svg"><rect x="1.8" y="6.3" width="13.4" height="9.4" rx="1.2" stroke="#000" stroke-width="1.6"/><path d="M4 6c0-1.667.65-5 4.25-5s4.417 3.333 4.25 5" stroke="#000" stroke-width="1.6"/></svg><svg width="22" height="22" fill="none" viewBox="-1 -1 22 22" id="close-card" x="87" y="24" xmlns="http://www.w3.org/2000/svg"><path fill="gray" d="M4.242 5.758l1.414-1.414 9.9 9.9-1.414 1.414z"/><path fill="gray" d="M5.656 15.658l-1.414-1.415 9.9-9.9 1.414 1.415z"/></svg><svg width="14" height="14" fill="none" viewBox="-1 -1 14 14" id="close-filter" x="131" xmlns="http://www.w3.org/2000/svg"><path d="M1 1l5 5 5-5M1 11l5-5 5 5" stroke="#fff" stroke-width="1.4"/></svg><svg width="14" height="14" fill="none" viewBox="-1 -1 14 14" id="close-filter-bl" x="131" y="14" xmlns="http://www.w3.org/2000/svg"><path d="M1 1l5 5 5-5M1 11l5-5 5 5" stroke="#000" stroke-width="1.4"/></svg><svg width="20" height="20" fill="none" viewBox="-1 -1 20 20" id="close-popup" x="54" y="82" xmlns="http://www.w3.org/2000/svg"><path fill-rule="evenodd" clip-rule="evenodd" d="M8.712 7.298L1.414 0 0 1.414l7.298 7.298L0 16.009l1.414 1.415 7.298-7.298 7.297 7.298 1.415-1.415-7.298-7.297 7.298-7.298L16.009 0 8.712 7.298z" fill="#000"/></svg><svg width="21" height="21" fill="none" viewBox="-1 -1 21 21" id="close-search" y="82" xmlns="http://www.w3.org/2000/svg"><path fill-rule="evenodd" clip-rule="evenodd" d="M9.5 8.086L2.202.788.788 2.202 8.085 9.5.788 16.797l1.414 1.415L9.5 10.914l7.297 7.298 1.415-1.415L10.914 9.5l7.298-7.298L16.797.788 9.5 8.086z" fill="#000"/></svg><svg width="20" height="20" fill="none" viewBox="-1 -1 20 20" id="facebook" x="74" y="82" xmlns="http://www.w3.org/2000/svg"><g clip-path="url(#kclip0_207_154)"><path d="M11.998 2.989h1.643V.127A21.22 21.22 0 0011.247 0C8.878 0 7.255 1.49 7.255 4.23v2.52H4.641v3.2h2.614V18h3.206V9.95h2.508l.399-3.2H10.46V4.547c0-.924.25-1.557 1.538-1.557z" fill="#000"/></g><defs><clipPath id="kclip0_207_154"><path fill="#fff" d="M0 0h18v18H0z"/></clipPath></defs></svg><svg width="20" height="18" fill="none" viewBox="-1 -1 20 18" id="fav" x="111" xmlns="http://www.w3.org/2000/svg"><path d="M17.988 5.08a2.02 2.02 0 00-.016-.139C17.72 2.183 15.628 0 12.913 0a5.07 5.07 0 00-3.952 1.887A4.859 4.859 0 005.095 0C2.389 0 .302 2.168.033 4.957l-.015.118c-.046.45-.008 1.048.17 1.775.377 1.545 1.259 2.953 2.503 4.043l5.792 4.926c.283.24.705.241.988.003l5.835-4.918c1.376-1.385 2.193-2.63 2.517-4.065.163-.72.2-1.314.165-1.759zm-1.63 1.45c-.255 1.128-.933 2.162-2.086 3.325l-5.291 4.456-5.292-4.5c-1.015-.89-1.736-2.04-2.042-3.294-.139-.57-.167-1.006-.134-1.33l.01-.074c.194-2.1 1.692-3.663 3.572-3.663 1.4 0 2.59.826 3.169 2.152.258.59 1.123.59 1.381 0a3.568 3.568 0 013.268-2.152c1.88 0 3.378 1.564 3.571 3.664l.009.08c.024.306-.004.757-.135 1.336z" fill="#000"/></svg><svg width="20" height="18" fill="none" viewBox="-1 -1 20 18" id="fav-active" x="111" y="18" xmlns="http://www.w3.org/2000/svg"><path d="M17.988 5.08a2.02 2.02 0 00-.016-.139C17.72 2.183 15.628 0 12.913 0a5.07 5.07 0 00-3.952 1.887A4.859 4.859 0 005.095 0C2.389 0 .302 2.168.033 4.957l-.015.118c-.046.45-.008 1.048.17 1.775.377 1.545 1.259 2.953 2.503 4.043l5.792 4.926c.283.24.705.241.988.003l5.835-4.918c1.376-1.385 2.193-2.63 2.517-4.065.163-.72.2-1.314.165-1.759z" fill="#000"/></svg><svg width="19" height="18" fill="none" viewBox="-1 -1 19 18" id="filter-burger" x="100" y="103" xmlns="http://www.w3.org/2000/svg"><path d="M1 3h15M1 8h15M1 13h15" stroke="#000" stroke-width="2" stroke-linecap="round"/><circle cx="6" cy="3" r="2" fill="#fff" stroke="#000" stroke-width="2"/><circle cx="13" cy="8" r="2" fill="#fff" stroke="#000" stroke-width="2"/><circle cx="6" cy="13" r="2" fill="#fff" stroke="#000" stroke-width="2"/></svg><svg width="24" height="24" fill="none" viewBox="-1 -1 24 24" id="gift" x="87" xmlns="http://www.w3.org/2000/svg"><path d="M14.516 5.588h-2.498l.15-.382c.451-1.143.756-1.878 1.094-2.33.166-.222.338-.371.535-.466.198-.095.428-.138.719-.138a1.66 1.66 0 011.657 1.658 1.66 1.66 0 01-1.657 1.658zm-2.338-3.551l.08.06-.08-.06c-.45.593-.786 1.401-1.178 2.393-.392-.992-.728-1.8-1.178-2.393l-.08.06.08-.06C9.235 1.262 8.487.9 7.484.9a3.033 3.033 0 00-3.03 3.03c0 .611.183 1.18.496 1.658H2.758A1.86 1.86 0 00.9 7.445v1.172a1.86 1.86 0 001.172 1.726v8.9A1.86 1.86 0 003.93 21.1h14.14a1.86 1.86 0 001.858-1.858v-8.899A1.86 1.86 0 0021.1 8.617V7.445a1.86 1.86 0 00-1.858-1.857H17.05a3.012 3.012 0 00.495-1.658c0-1.671-1.359-3.03-3.03-3.03-1.002 0-1.75.362-2.337 1.137zm-4.694.235c.29 0 .521.043.719.138.197.095.369.244.535.467.338.451.643 1.186 1.093 2.33l.151.38H7.484A1.66 1.66 0 015.827 3.93a1.66 1.66 0 011.657-1.658zm1.072 17.456H3.93a.487.487 0 01-.486-.486v-8.767h5.112v9.253zm0-10.625H2.758a.487.487 0 01-.486-.486V7.445c0-.268.218-.486.486-.486h5.798v2.144zm1.372 10.625V6.96H12.072v12.77H9.928zm8.628-.486a.487.487 0 01-.486.486h-4.626v-9.253h5.112v8.767zm1.172-10.625a.487.487 0 01-.486.486h-5.798V6.96h5.798c.268 0 .486.218.486.486v1.172z" fill="#000" stroke="#000" stroke-width=".2"/></svg><svg width="20" height="20" fill="none" viewBox="-1 -1 20 20" id="instagram" x="111" y="36" xmlns="http://www.w3.org/2000/svg"><g clip-path="url(#pclip0_207_156)"><path d="M17.982 5.292c-.042-.956-.197-1.614-.418-2.184a4.393 4.393 0 00-1.041-1.596A4.43 4.43 0 0014.93.475c-.573-.222-1.227-.377-2.184-.419C11.783.011 11.476 0 9.033 0c-2.444 0-2.75.01-3.71.053C4.367.095 3.71.25 3.14.47a4.392 4.392 0 00-1.597 1.041c-.457.45-.812.995-1.037 1.593C.284 3.678.13 4.332.088 5.288.042 6.252.03 6.558.03 9.002s.01 2.75.053 3.71c.042.956.197 1.613.419 2.183a4.439 4.439 0 001.04 1.596c.45.458.995.813 1.593 1.038.573.221 1.227.376 2.184.418.96.043 1.266.053 3.71.053 2.443 0 2.75-.01 3.71-.053.956-.042 1.613-.197 2.183-.418a4.604 4.604 0 002.634-2.634c.221-.573.376-1.227.418-2.184.042-.96.053-1.265.053-3.71 0-2.443-.004-2.749-.046-3.709z" fill="#000"/><path d="M9.034 4.378a4.625 4.625 0 000 9.248 4.625 4.625 0 000-9.248zm0 7.623a3 3 0 11.001-6 3 3 0 010 6zM14.92 4.195a1.08 1.08 0 11-2.158 0 1.08 1.08 0 012.159 0z" fill="#fff"/></g><defs><clipPath id="pclip0_207_156"><path fill="#fff" d="M0 0h18v18H0z"/></clipPath></defs></svg><svg width="20" height="20" fill="none" viewBox="-1 -1 20 20" id="login" x="111" y="56" xmlns="http://www.w3.org/2000/svg"><circle cx="9" cy="5" r="3.3" stroke="#000" stroke-width="1.4"/><path d="M2.7 14.3a5.6 5.6 0 015.6-5.6h1.4a5.6 5.6 0 015.6 5.6 2 2 0 01-2 2H4.7a2 2 0 01-2-2z" stroke="#000" stroke-width="1.4"/></svg><svg width="58" height="82" fill="none" viewBox="-1 -1 58 82" id="logo" xmlns="http://www.w3.org/2000/svg"><path fill-rule="evenodd" clip-rule="evenodd" d="M25.788.14c8.158-.87 16.94 2.354 21.941 9.12 2.37 3.317 4.316 6.961 5.526 10.872 2.44 7.503 2.884 15.314 2.712 23.165-.09 7.3-1.33 14.66-4.275 21.354-4.517 9.735-12.14 14.751-22.697 15.345-7.552.123-15.054-2.488-20.136-8.282C2.658 64.641.187 52.971.087 43.737c-.222-4.227.02-8.465.302-12.693.565-7.002 2.763-13.953 6.625-19.808C11.329 5.032 18.377.999 25.788.139zm.404 3.787c-6.433.768-12.463 4.381-16.174 9.776-3.71 5.681-5.656 12.673-6.04 19.45-.342 5.63-.423 11.301.354 16.9 1.008 6.224 2.319 12.366 6.15 17.464 4.457 5.948 11.183 8.845 18.503 8.67 9.054-.603 15.215-4.903 19.228-13.092 1.472-3.245 2.43-6.705 3.096-10.196 1.16-5.65 1.059-11.455.877-17.197-.554-8.64-2.299-17.781-7.915-24.61-4.336-5.271-11.404-7.871-18.08-7.165zm1.35 4.504A171.334 171.334 0 0119.9 26.468c-.575 1.188-1.23 2.375-2.208 3.266-.575.542-1.372.675-2.118.798l-.09.573c3.105-.01 6.21-.01 9.316 0 0-.143 0-.44-.01-.583-.857-.164-1.845-.307-2.37-1.106.172-2.129 1.12-4.105 1.906-6.06 2.48.01 4.961-.02 7.442.133a176.18 176.18 0 011.573 4.412c.242.655.272 1.505-.283 2.007-.494.48-1.23.327-1.855.378-.03.267-.05.533-.08.81 3.135-.011 6.261-.011 9.397 0a18.58 18.58 0 01-.141-.728 4.116 4.116 0 01-3.156-2.19C33.774 21.85 31.042 15.167 28.47 8.43a2.775 2.775 0 00-.303-.532c-.403-.144-.534.235-.625.532zm-2.711 13.461c2.137-.01 4.275.052 6.412-.04-1.089-2.785-2.117-5.6-3.277-8.364-.978 2.825-2.107 5.6-3.135 8.404zM10.855 35.026c-2.127 1.771-3.045 5.21-1.411 7.606 1.593 2.16 4.104 3.255 6.302 4.606 1.502.86 3.146 1.71 4.093 3.245.757 1.26.686 3.04-.342 4.116-.958.952-2.33 1.443-3.66 1.423a8.435 8.435 0 01-4.457-1.68c-.898-.716-1.362-1.79-1.926-2.763-.343.9-.555 1.832-.746 2.784.796.84 1.855 1.382 2.873 1.894 2.511 1.116 5.526 1.607 8.097.41 1.553-.686 2.632-2.13 3.297-3.665.696-1.659.323-3.624-.635-5.098-1.069-1.587-2.702-2.672-4.356-3.552-1.825-.901-3.62-1.915-5.243-3.174-.887-.706-1.634-1.77-1.553-2.958.212-1.556 1.492-2.897 3.035-3.153 1.482-.266 3.136.082 4.295 1.095.666.563.958 1.413 1.12 2.242.504-.665 1.119-1.27 1.472-2.027-1.13-1.238-2.571-2.242-4.215-2.58-2.057-.399-4.366-.132-6.04 1.229zm12.624 6.203l-.04.625c.787.072 1.664.02 2.32.543.493.511.493 1.29.554 1.965.02 5.702-.02 11.414.03 17.126.01 1.085-.131 2.354-.998 3.102-.585.43-1.361.378-2.057.378v.635h8.984c0-.266.01-.522.02-.778-.867-.01-1.865-.061-2.51-.727-.364-.593-.414-1.32-.485-1.996-.02-2.784 0-5.579-.01-8.363 3.076-.02 6.14.04 9.216.04.02.81.03 1.628.06 2.437-.03.491-.03.983 0 1.484-.06 1.546 0 3.102-.03 4.648-.01.716-.191 1.474-.665 2.027-.595.573-1.472.522-2.228.604-.01.153-.04.47-.05.624 2.984.01 5.978-.01 8.973 0-.01-.194-.02-.573-.03-.757-.807-.01-1.704-.052-2.34-.615-.544-.624-.655-1.504-.655-2.313V55.15c-.181-3.45-.03-6.9-.1-10.349 0-.952.221-2.068 1.058-2.63.585-.42 1.351-.267 2.017-.287.01-.144.04-.43.06-.574-2.974.01-5.959-.01-8.933.01 0 .144-.01.43-.01.574.847 0 1.895-.103 2.49.645.403.737.383 1.627.393 2.457-.02 2.293.02 4.575.02 6.868h-9.236c0-2.497.01-5.005 0-7.503-.03-.717.162-1.464.646-2.007.635-.603 1.552-.44 2.339-.45 0-.174.01-.512.01-.686-2.934.03-5.878.01-8.813.01z" fill="#000"/></svg><svg width="20" height="20" fill="none" viewBox="-1 -1 20 20" id="nav-fav" x="111" y="76" xmlns="http://www.w3.org/2000/svg"><path d="M17.988 6.08a2.02 2.02 0 00-.016-.139C17.72 3.183 15.628 1 12.913 1a5.07 5.07 0 00-3.952 1.887A4.859 4.859 0 005.095 1C2.389 1 .302 3.168.033 5.957l-.015.118c-.046.45-.008 1.048.17 1.775.377 1.545 1.259 2.953 2.503 4.043l5.792 4.926c.283.24.705.241.988.003l5.835-4.918c1.376-1.385 2.193-2.63 2.517-4.065.163-.72.2-1.314.165-1.759zm-1.63 1.45c-.255 1.128-.933 2.162-2.086 3.325l-5.291 4.456-5.292-4.5c-1.015-.89-1.736-2.04-2.042-3.294-.139-.57-.167-1.006-.134-1.33l.01-.074c.194-2.1 1.692-3.663 3.572-3.663 1.4 0 2.59.826 3.169 2.152.258.59 1.123.59 1.381 0a3.568 3.568 0 013.268-2.152c1.88 0 3.378 1.563 3.571 3.664l.009.08c.024.306-.004.757-.135 1.336z" fill="#444"/></svg><svg width="20" height="20" fill="none" viewBox="-1 -1 20 20" id="nav-login" y="103" xmlns="http://www.w3.org/2000/svg"><path fill-rule="evenodd" clip-rule="evenodd" d="M11.6 5a2.6 2.6 0 11-5.2 0 2.6 2.6 0 015.2 0zm-.231 3.223a4 4 0 10-4.738 0A6.303 6.303 0 002 14.3 2.7 2.7 0 004.7 17h8.6a2.7 2.7 0 002.7-2.7 6.303 6.303 0 00-4.631-6.077zM3.4 14.3a4.9 4.9 0 014.9-4.9h1.4a4.9 4.9 0 014.9 4.9 1.3 1.3 0 01-1.3 1.3H4.7a1.3 1.3 0 01-1.3-1.3z" fill="#444"/></svg><svg width="20" height="20" fill="none" viewBox="-1 -1 20 20" id="nav-new" x="20" y="103" xmlns="http://www.w3.org/2000/svg"><rect x=".8" y=".8" width="6.4" height="6.4" rx="2.2" stroke="#444" stroke-width="1.6"/><rect x="10.8" y=".8" width="6.4" height="6.4" rx="2.2" stroke="#444" stroke-width="1.6"/><rect x=".8" y="10.8" width="6.4" height="6.4" rx="2.2" stroke="#444" stroke-width="1.6"/><rect x="10.8" y="10.8" width="6.4" height="6.4" rx="2.2" stroke="#444" stroke-width="1.6"/></svg><svg width="20" height="20" fill="none" viewBox="-1 -1 20 20" id="nav-world" x="40" y="103" xmlns="http://www.w3.org/2000/svg"><circle cx="9" cy="9" r="7.8" fill="#fff" stroke="#444" stroke-width="1.6" stroke-linecap="round"/><path d="M15.705 10.912a.8.8 0 101.59.176l-1.59-.176zM4.343 14.215a.8.8 0 00.314 1.57l-.314-1.57zm-2.4-7.88a.8.8 0 00-.887 1.33l.888-1.33zm5.773-4.693L7.358.927l-1.431.715.357.716 1.432-.716zm9.58 9.446c.154-1.393-.36-2.515-1.227-3.282-.841-.745-1.978-1.128-3.085-1.192-1.107-.064-2.278.184-3.195.816C8.843 8.081 8.2 9.121 8.2 10.5h1.6c0-.821.357-1.381.896-1.752.566-.39 1.365-.585 2.195-.537.83.048 1.6.334 2.118.793.492.435.791 1.05.696 1.908l1.59.176zM8.2 10.5c0 1.019-.165 1.701-.389 2.164-.218.45-.509.728-.838.92-.344.2-.752.318-1.214.405-.23.043-.461.076-.701.11-.233.034-.481.07-.715.116l.314 1.57c.183-.037.388-.067.629-.102.234-.034.498-.071.768-.122.537-.1 1.15-.261 1.723-.595a3.651 3.651 0 001.474-1.605c.36-.741.549-1.68.549-2.861H8.2zM1.056 7.666c.593.395 1.582.834 2.683.883 1.14.052 2.402-.32 3.386-1.55L5.875 6c-.616.77-1.354.983-2.064.95-.749-.033-1.46-.344-1.867-.616l-.888 1.332zM7.125 7c.899-1.124 1.228-2.176 1.212-3.138-.015-.938-.36-1.697-.621-2.22l-1.432.716c.239.477.444.968.454 1.53.009.538-.162 1.236-.863 2.112l1.25 1z" fill="#444"/></svg><svg width="22" height="22" fill="none" viewBox="-1 -1 22 22" id="password-view" x="87" y="46" xmlns="http://www.w3.org/2000/svg"><path d="M19.873 9.61c-.179-.244-4.436-5.984-9.873-5.984-5.437 0-9.695 5.74-9.873 5.984a.66.66 0 000 .779c.178.244 4.436 5.984 9.873 5.984 5.437 0 9.694-5.74 9.873-5.984a.66.66 0 000-.778zM10 15.056c-4.005 0-7.474-3.81-8.5-5.056C2.524 8.753 5.985 4.945 10 4.945c4.005 0 7.473 3.809 8.5 5.055-1.025 1.247-4.486 5.055-8.5 5.055z" fill="#000"/><path d="M9.999 6.044A3.96 3.96 0 006.043 10a3.96 3.96 0 003.956 3.956A3.96 3.96 0 0013.955 10 3.96 3.96 0 0010 6.044zm0 6.593A2.64 2.64 0 017.362 10a2.64 2.64 0 012.637-2.637A2.64 2.64 0 0112.636 10 2.64 2.64 0 0110 12.637z" fill="#000"/></svg><svg width="22" height="10" fill="none" viewBox="-1 -1 22 10" id="scale-ruler" x="87" y="68" xmlns="http://www.w3.org/2000/svg"><g clip-path="url(#xclip0_341_3058)"><path d="M20 6.874V.636a.624.624 0 00-.624-.623H.663a.624.624 0 00-.624.623v6.238c0 .345.28.624.624.624h18.713c.345 0 .624-.28.624-.624zM1.287 6.251V1.26h1.87v3.118h1.248V1.26h1.872v1.872h1.247V1.26h1.872v3.12h1.247V1.26h1.872v1.872h1.247V1.26h1.871v3.12h1.248V1.26h1.871v4.99H1.287z" fill="#000"/></g><defs><clipPath id="xclip0_341_3058"><path fill="#fff" transform="rotate(90 10 10)" d="M0 0h7.524v20H0z"/></clipPath></defs></svg><svg width="20" height="20" fill="none" viewBox="-1 -1 20 20" id="search" x="60" y="103" xmlns="http://www.w3.org/2000/svg"><path d="M7.333 13.767a6.4 6.4 0 003.971-1.378l4.487 4.486a.765.765 0 001.084 0c.3-.3.3-.784 0-1.084l-4.486-4.487a6.4 6.4 0 001.378-3.97A6.44 6.44 0 007.333.9 6.44 6.44 0 00.9 7.333a6.44 6.44 0 006.433 6.434zm0-1.534a4.905 4.905 0 01-4.9-4.9c0-2.702 2.198-4.9 4.9-4.9 2.702 0 4.9 2.198 4.9 4.9 0 2.702-2.198 4.9-4.9 4.9z" fill="#000" stroke="#000" stroke-width=".2"/></svg><svg width="20" height="20" fill="none" viewBox="-1 -1 20 20" id="search-w" x="80" y="103" xmlns="http://www.w3.org/2000/svg"><path d="M7.333 13.767a6.4 6.4 0 003.971-1.378l4.487 4.486a.765.765 0 001.084 0c.3-.3.3-.784 0-1.084l-4.486-4.487a6.4 6.4 0 001.378-3.97A6.44 6.44 0 007.333.9 6.44 6.44 0 00.9 7.333a6.44 6.44 0 006.433 6.434zm0-1.534a4.905 4.905 0 01-4.9-4.9c0-2.702 2.198-4.9 4.9-4.9 2.702 0 4.9 2.198 4.9 4.9 0 2.702-2.198 4.9-4.9 4.9z" fill="#fff" stroke="#fff" stroke-width=".2"/></svg></svg>