<svg width="100" height="93" viewBox="0 0 100 93" xmlns="http://www.w3.org/2000/svg" xmlns:xlink="http://www.w3.org/1999/xlink"><svg width="31" height="31" fill="none" viewBox="-1 -1 31 31" id="arrow" y="42" xmlns="http://www.w3.org/2000/svg"><path d="M9.081 27.269a.9.9 0 0 1-.651.27.923.923 0 0 1-.652-1.574L19.243 14.5 7.778 3.035A.923.923 0 0 1 9.08 1.73l12.117 12.117c.36.36.36.944 0 1.304L9.081 27.269z" fill="#50555C"/></svg><svg width="31" height="31" fill="none" viewBox="-1 -1 31 31" id="arrow_white" x="31" y="42" xmlns="http://www.w3.org/2000/svg"><path d="M9.081 27.269a.9.9 0 0 1-.651.27.923.923 0 0 1-.652-1.574L19.243 14.5 7.778 3.035A.923.923 0 0 1 9.08 1.73l12.117 12.117c.36.36.36.944 0 1.304L9.081 27.269z" fill="#fff"/></svg><svg width="63" height="42" fill="none" viewBox="-1 -1 63 42" id="button" xmlns="http://www.w3.org/2000/svg"><rect width="61" height="40" rx="20" fill="#E6DF00"/><path d="M34.835 11.975a.883.883 0 0 0-1.26 0 .889.889 0 0 0 0 1.248l6.388 6.388H18.882a.878.878 0 0 0-.882.883c0 .491.39.895.882.895h21.081l-6.388 6.376a.905.905 0 0 0 0 1.26.883.883 0 0 0 1.26 0l7.9-7.9a.868.868 0 0 0 0-1.248l-7.9-7.902z" fill="#23262B"/></svg><svg width="19" height="20" viewBox="-1 -1 19 20" id="close_popup" x="62" y="42" xmlns="http://www.w3.org/2000/svg"><path fill-rule="evenodd" stroke="#000" d="M9.971 8.5l6.195 6.118a1.095 1.095 0 0 1 0 1.564 1.132 1.132 0 0 1-1.584 0l-6.086-6.01-6.087 6.01a1.13 1.13 0 0 1-1.584 0 1.097 1.097 0 0 1 0-1.564L7.021 8.5.825 2.381a1.096 1.096 0 0 1 0-1.563 1.13 1.13 0 0 1 1.584 0l6.087 6.009L14.582.818a1.13 1.13 0 0 1 1.584 0 1.095 1.095 0 0 1 0 1.564L9.971 8.5z"/></svg><svg width="20" height="20" fill="none" viewBox="-1 -1 20 20" id="loupe" y="73" xmlns="http://www.w3.org/2000/svg"><path d="M10.261 7.106H8.363V5.204a.6.6 0 1 0-1.2 0v1.902H5.267a.765.765 0 0 0-.407.096.416.416 0 0 0-.193.372.85.85 0 0 0 .165.48c.1.137.252.254.435.254h1.898v1.901a.6.6 0 1 0 1.2 0V8.308h1.898a.6.6 0 0 0 .6-.601h0a.6.6 0 0 0-.6-.6zm6.657 8.952l-4.062-3.997a6.63 6.63 0 0 0 1.707-4.436C14.563 3.909 11.503.9 7.732.9 3.96.9.9 3.909.9 7.625c0 3.715 3.06 6.724 6.832 6.724a6.87 6.87 0 0 0 4.23-1.446l4.084 4.019a.624.624 0 0 0 .872 0 .604.604 0 0 0 0-.864zM7.732 13.13c-3.092 0-5.596-2.466-5.596-5.505 0-3.04 2.504-5.506 5.596-5.506s5.596 2.467 5.596 5.506-2.504 5.505-5.596 5.505z" fill="#7D838C" stroke="#7D838C" stroke-width=".2"/></svg><svg width="37" height="37" fill="none" viewBox="-1 -1 37 37" id="mouse" x="63" xmlns="http://www.w3.org/2000/svg"><path d="M17.475 0C11.798 0 7.18 4.618 7.18 10.295v14.41C7.18 30.382 11.798 35 17.475 35c5.676 0 10.295-4.618 10.295-10.295v-14.41C27.77 4.618 23.15 0 17.475 0zm8.195 24.705c0 4.519-3.677 8.195-8.195 8.195-4.519 0-8.195-3.676-8.195-8.195v-14.41c0-4.519 3.676-8.195 8.195-8.195 4.518 0 8.195 3.676 8.195 8.195v14.41z" fill="#fff"/><path d="M17.472 6.963c-.58 0-1.05.47-1.05 1.05v4.832a1.05 1.05 0 1 0 2.1 0V8.013c0-.58-.47-1.05-1.05-1.05z" fill="#fff"/></svg></svg>