<svg width="130" height="120" viewBox="0 0 130 120" xmlns="http://www.w3.org/2000/svg" xmlns:xlink="http://www.w3.org/1999/xlink"><svg width="22" height="23" viewBox="-1 -1 22 23" id="icon-add-inner-app" x="46" y="48" xmlns="http://www.w3.org/2000/svg"><g fill="none" fill-rule="evenodd"><rect width="19.369" height="20.724" y=".148" fill="#C93C69" rx="2.42"/><path d="M11.194 7.541v9.047m4.523-4.523H6.671" stroke="#FFF" stroke-linecap="round" stroke-width="1.556"/></g></svg><svg width="10" height="10" viewBox="-1 -1 10 10" id="icon-add-new-zip" x="46" y="92" xmlns="http://www.w3.org/2000/svg"><path d="M1 3.967h5.934M3.967 1v5.934" fill="none" fill-rule="evenodd" stroke="#C93C69" stroke-linecap="round" stroke-width="1.484"/></svg><svg width="22" height="23" viewBox="-1 -1 22 23" id="icon-add-out-app" x="75" xmlns="http://www.w3.org/2000/svg"><g fill="none" fill-rule="evenodd"><rect width="19.369" height="20.724" y=".148" fill="#3578D5" rx="2.42"/><path d="M11.194 7.541v9.047m4.523-4.523H6.671" stroke="#FFF" stroke-linecap="round" stroke-width="1.556"/></g></svg><svg width="12" height="18" viewBox="-1 -1 12 18" id="icon-add-step-state" x="97" y="20" xmlns="http://www.w3.org/2000/svg"><path fill="none" stroke="#3578D5" stroke-width=".92" d="M8.817 5.873H5.48L8.574 1H4.676L1.02 8.31h2.875L1.02 15.13z"/></svg><svg width="27" height="25" viewBox="-1 -1 27 25" id="icon-automatic-dialing" xmlns="http://www.w3.org/2000/svg"><g fill="none" fill-rule="evenodd" transform="translate(1 1)"><rect width="23" height="21" stroke="#3578D5" stroke-width="1.5" rx="2"/><path fill="#C93C69" fill-rule="nonzero" stroke="#C93C69" stroke-width=".5" d="M11.5 16a.785.785 0 0 1-.503-.18c-.525-.436-1.031-.847-1.478-1.209l-.002-.002c-1.31-1.061-2.44-1.978-3.228-2.88C5.41 10.718 5 9.76 5 8.715c0-1.016.366-1.953 1.031-2.64C6.704 5.382 7.628 5 8.631 5c.751 0 1.438.226 2.043.67.305.225.582.5.826.82.244-.32.52-.595.826-.82A3.379 3.379 0 0 1 14.368 5c1.004 0 1.928.382 2.6 1.076C17.635 6.763 18 7.7 18 8.716c0 1.045-.41 2.003-1.29 3.012-.786.903-1.917 1.82-3.227 2.881-.447.363-.954.774-1.48 1.212A.786.786 0 0 1 11.5 16zM8.632 5.724c-.79 0-1.514.3-2.04.843-.536.552-.83 1.315-.83 2.149 0 .88.343 1.666 1.114 2.55.744.855 1.852 1.753 3.135 2.792l.002.002c.449.363.957.775 1.486 1.215.532-.44 1.041-.853 1.49-1.217 1.283-1.04 2.39-1.937 3.135-2.792.77-.884 1.115-1.67 1.115-2.55 0-.834-.295-1.597-.83-2.149a2.81 2.81 0 0 0-2.04-.843 2.61 2.61 0 0 0-1.577.52 3.568 3.568 0 0 0-.88.967.482.482 0 0 1-.412.223.482.482 0 0 1-.413-.223 3.565 3.565 0 0 0-.879-.968 2.61 2.61 0 0 0-1.576-.519z"/></g></svg><svg width="15" height="16" viewBox="-1 -1 15 16" id="icon-bin-blue" x="97" y="56" xmlns="http://www.w3.org/2000/svg"><g fill="#3578D5" stroke="#3578D5" stroke-width=".2"><path d="M11.645 2.774H9.08v-.418C9.08 1.608 8.472 1 7.724 1H5.286c-.748 0-1.356.608-1.356 1.356v.418H1.365a.34.34 0 0 0-.342.342c0 .19.152.343.342.343h.618v8.04c0 1.008.822 1.83 1.83 1.83h5.384c1.009 0 1.83-.822 1.83-1.83v-8.04h.618a.34.34 0 0 0 .342-.343.34.34 0 0 0-.342-.342zm-7.03-.418c0-.37.3-.672.67-.672h2.44c.37 0 .67.302.67.672v.418h-3.78v-.418zm5.727 9.142c0 .631-.514 1.146-1.145 1.146H3.813a1.148 1.148 0 0 1-1.145-1.146v-8.04h7.677v8.04h-.003z"/><path d="M6.505 11.417a.34.34 0 0 0 .342-.342V5.027a.34.34 0 0 0-.342-.342.34.34 0 0 0-.342.342v6.045c0 .19.152.345.342.345zm-2.233-.377a.34.34 0 0 0 .342-.343V5.403a.34.34 0 0 0-.342-.343.34.34 0 0 0-.342.343v5.294c0 .19.155.342.342.342zm4.466 0a.34.34 0 0 0 .342-.343V5.403a.34.34 0 0 0-.342-.343.34.34 0 0 0-.342.343v5.294c0 .19.152.342.342.342z"/></g></svg><svg width="14" height="14" viewBox="-1 -1 14 14" id="icon-calendar" x="114" y="90" xmlns="http://www.w3.org/2000/svg"><g fill="#3578D5"><path d="M10.594.938h-.563V0h-.937v.938H2.906V0H1.97v.938h-.563C.631.938 0 1.567 0 2.343v8.25C0 11.369.63 12 1.406 12h9.188c.775 0 1.406-.63 1.406-1.406v-8.25c0-.776-.63-1.406-1.406-1.406zm.469 9.656a.47.47 0 0 1-.47.469H1.407a.47.47 0 0 1-.468-.47V4.407h10.124v6.188zm0-7.125H.937V2.344a.47.47 0 0 1 .47-.469h.562v.938h.937v-.938h6.188v.938h.937v-.938h.563a.47.47 0 0 1 .469.469v1.125z"/><path d="M1.781 5.391h1v1h-1zm1.875 0h1v1h-1zm1.875 0h1v1h-1zm1.875 0h1v1h-1zm1.875 0h1v1h-1zm-7.5 1.875h1v1h-1zm1.875 0h1v1h-1zm1.875 0h1v1h-1zm1.875 0h1v1h-1zM1.781 9.141h1v1h-1zm1.875 0h1v1h-1zm1.875 0h1v1h-1zm1.875 0h1v1h-1zm1.875-1.875h1v1h-1z"/></g></svg><svg width="16" height="16" viewBox="-1 -1 16 16" id="icon-checkbox-ok" x="114" xmlns="http://www.w3.org/2000/svg"><path fill="none" stroke="#3578D5" stroke-linecap="round" stroke-linejoin="round" stroke-width="2" d="M1 9.4L4.6 13 13 1"/></svg><svg width="10" height="10" viewBox="-1 -1 10 10" id="icon-close-mini" x="10" y="110" xmlns="http://www.w3.org/2000/svg"><path d="M1 1l6 6m0-6L1 7" fill="none" fill-rule="evenodd" stroke="#7F7F7F" stroke-linecap="round" stroke-linejoin="round" stroke-width="1.091"/></svg><svg width="15" height="15" viewBox="-1 -1 15 15" id="icon-close-popup" x="114" y="47" xmlns="http://www.w3.org/2000/svg"><path d="M1 1l11 11m0-11L1 12" fill="none" fill-rule="evenodd" stroke="#7F7F7F" stroke-linecap="round" stroke-linejoin="round" stroke-width="2"/></svg><svg width="24" height="23" viewBox="-1 -1 24 23" id="icon-contracts" y="48" xmlns="http://www.w3.org/2000/svg"><g fill="none" fill-rule="evenodd"><rect width="22" height="21" fill="#3578D5" rx="2"/><path stroke="#FFF" stroke-linecap="round" d="M10.118 17H6a2 2 0 0 1-2-2V6a2 2 0 0 1 2-2h8a2 2 0 0 1 2 2v3.129M7 7h6M7 9h6m-6 2h5"/><path fill="#FFF" fill-rule="nonzero" d="M17.3 10l1.7 1.7-4.302 4.3L13 14.3l4.3-4.3zm3.512-.891l-.837-.86a.815.815 0 0 0-1.173 0L18 9.073 19.877 11l.935-.96a.67.67 0 0 0 0-.931zm-8.808 7.673a.18.18 0 0 0 .22.213L14 16.57 12.407 15l-.403 1.782z"/></g></svg><svg width="9" height="9" viewBox="-1 -1 9 9" id="icon-delete" x="20" y="110" xmlns="http://www.w3.org/2000/svg"><path d="M1.327 1.526l4.196 4.196m0-4.196L1.327 5.722" fill="none" fill-rule="evenodd" stroke="#C93C69" stroke-linecap="round" stroke-width="1.484"/></svg><svg width="24" height="25" viewBox="-1 -1 24 25" id="icon-delete-app" x="27" xmlns="http://www.w3.org/2000/svg"><g fill="none" fill-rule="evenodd" transform="translate(1 1)"><rect width="19.369" height="20.724" stroke="#3578D5" stroke-width="1.5" rx="2.421"/><g fill="#C93C69" fill-rule="nonzero" stroke="#C93C69" stroke-width=".2"><path d="M14.645 5.774H12.08v-.418c0-.748-.608-1.356-1.356-1.356H8.286c-.748 0-1.356.608-1.356 1.356v.418H4.365a.34.34 0 0 0-.342.342c0 .19.152.343.342.343h.618v8.04c0 1.008.822 1.83 1.83 1.83h5.384c1.009 0 1.83-.822 1.83-1.83v-8.04h.618a.34.34 0 0 0 .342-.343.34.34 0 0 0-.342-.342zm-7.03-.418c0-.37.3-.672.67-.672h2.44c.37 0 .67.302.67.672v.418h-3.78v-.418zm5.727 9.142c0 .631-.514 1.146-1.145 1.146H6.813a1.148 1.148 0 0 1-1.145-1.146v-8.04h7.677v8.04h-.003z"/><path d="M9.505 14.417a.34.34 0 0 0 .342-.342V8.027a.34.34 0 0 0-.342-.342.34.34 0 0 0-.342.342v6.045c0 .19.152.345.342.345zm-2.233-.377a.34.34 0 0 0 .342-.343V8.403a.34.34 0 0 0-.342-.343.34.34 0 0 0-.342.343v5.294c0 .19.155.342.342.342zm4.466 0a.34.34 0 0 0 .342-.343V8.403a.34.34 0 0 0-.342-.343.34.34 0 0 0-.342.343v5.294c0 .19.152.342.342.342z"/></g></g></svg><svg width="15" height="16" viewBox="-1 -1 15 16" id="icon-delete-zip" x="97" y="72" xmlns="http://www.w3.org/2000/svg"><g fill="#C93C69" stroke="#C93C69" stroke-width=".2"><path d="M11.645 2.774H9.08v-.418C9.08 1.608 8.472 1 7.724 1H5.286c-.748 0-1.356.608-1.356 1.356v.418H1.365a.34.34 0 0 0-.342.342c0 .19.152.343.342.343h.618v8.04c0 1.008.822 1.83 1.83 1.83h5.384c1.009 0 1.83-.822 1.83-1.83v-8.04h.618a.34.34 0 0 0 .342-.343.34.34 0 0 0-.342-.342zm-7.03-.418c0-.37.3-.672.67-.672h2.44c.37 0 .67.302.67.672v.418h-3.78v-.418zm5.727 9.142c0 .631-.514 1.146-1.145 1.146H3.813a1.148 1.148 0 0 1-1.145-1.146v-8.04h7.677v8.04h-.003z"/><path d="M6.505 11.417a.34.34 0 0 0 .342-.342V5.027a.34.34 0 0 0-.342-.342.34.34 0 0 0-.342.342v6.045c0 .19.152.345.342.345zm-2.233-.377a.34.34 0 0 0 .342-.343V5.403a.34.34 0 0 0-.342-.343.34.34 0 0 0-.342.343v5.294c0 .19.155.342.342.342zm4.466 0a.34.34 0 0 0 .342-.343V5.403a.34.34 0 0 0-.342-.343.34.34 0 0 0-.342.343v5.294c0 .19.152.342.342.342z"/></g></svg><svg width="22" height="23" viewBox="-1 -1 22 23" id="icon-edit-app" x="24" y="48" xmlns="http://www.w3.org/2000/svg"><g fill="none" fill-rule="evenodd"><rect width="19.369" height="20.724" fill="#3578D5" rx="2.421"/><path fill="#FFF" fill-rule="nonzero" d="M11.082 6.166l2.644 2.644-6.692 6.692-2.643-2.644 6.691-6.692zm4.65-.638l-1.179-1.18a1.17 1.17 0 0 0-1.653 0l-1.129 1.13 2.644 2.644 1.317-1.317a.901.901 0 0 0 0-1.277zM3.007 16.575a.3.3 0 0 0 .364.358l2.947-.715-2.643-2.644-.668 3z"/></g></svg><svg width="15" height="15" viewBox="-1 -1 15 15" id="icon-edit-zip" x="114" y="32" xmlns="http://www.w3.org/2000/svg"><path fill="#3578D5" d="M8.082 2.166l2.644 2.644-6.692 6.692L1.39 8.858l6.691-6.692zm4.65-.638L11.553.348a1.17 1.17 0 0 0-1.653 0l-1.129 1.13 2.644 2.644 1.317-1.317a.901.901 0 0 0 0-1.277zM.007 12.575a.3.3 0 0 0 .364.358l2.947-.715L.675 9.574l-.668 3z"/></svg><svg width="10" height="8" viewBox="-1 -1 10 8" id="icon-equal" x="56" y="92" xmlns="http://www.w3.org/2000/svg"><path d="M1 1.495h5.934M1 4.709h5.934" fill="none" fill-rule="evenodd" stroke="#3578D5" stroke-linecap="round" stroke-width="1.484"/></svg><svg width="24" height="23" viewBox="-1 -1 24 23" id="icon-files" x="24" y="25" xmlns="http://www.w3.org/2000/svg"><g fill="none" fill-rule="evenodd"><rect width="22" height="21" fill="#3578D5" rx="2"/><path fill="#FFF" fill-rule="nonzero" stroke="#FFF" stroke-width=".2" d="M6.426 5.787c.827 0 1.5.674 1.5 1.5a1.501 1.501 0 1 1-1.5-1.5z"/><path fill="#FFF" d="M8.5 11l5.5 5H3z"/><path fill="#FFF" d="M13.5 8l5.5 8H8z"/></g></svg><svg width="17" height="18" viewBox="-1 -1 17 18" id="icon-files-doc" x="97" y="38" xmlns="http://www.w3.org/2000/svg"><path fill="#3578D5" d="M3.933 15.477a3.853 3.853 0 0 1-2.745-1.133A3.855 3.855 0 0 1 .055 11.6c0-1.04.402-2.014 1.133-2.745L9.216.828c1.148-1.148 2.933-1.097 4.15.121 1.219 1.218 1.271 3.002.123 4.151l-7.542 7.542a1.82 1.82 0 0 1-2.57 0 1.82 1.82 0 0 1 0-2.57l5.109-5.109a.44.44 0 1 1 .623.624l-5.108 5.109a.936.936 0 0 0 0 1.322.937.937 0 0 0 1.322 0l7.542-7.542c.792-.792.74-2.04-.122-2.903-.862-.862-2.11-.914-2.904-.122L1.812 9.48a2.978 2.978 0 0 0-.875 2.12c0 .805.31 1.558.875 2.122a2.978 2.978 0 0 0 2.12.874c.804 0 1.557-.31 2.121-.874l8.028-8.028a.44.44 0 1 1 .624.624l-8.028 8.027a3.854 3.854 0 0 1-2.744 1.133z"/></svg><svg width="10" height="10" viewBox="-1 -1 10 10" id="icon-green-plus" y="110" xmlns="http://www.w3.org/2000/svg"><path d="M1 3.709h5.934M3.967.742v5.934" fill="none" fill-rule="evenodd" stroke="#00BDB1" stroke-linecap="round" stroke-width="1.484"/></svg><svg width="12" height="14" viewBox="-1 -1 12 14" id="icon-guide-zip" x="34" y="92" xmlns="http://www.w3.org/2000/svg"><g fill="#00BDB1" fill-rule="evenodd" stroke="#00BDB1" stroke-width=".5" transform="translate(0 1)"><path stroke-linejoin="round" d="M5 0l4.28 4.332H.555z"/><rect width="4" height="6" x="3" y="4" rx="1"/></g></svg><svg width="24" height="23" viewBox="-1 -1 24 23" id="icon-history-all-app" y="25" xmlns="http://www.w3.org/2000/svg"><g fill="none" fill-rule="evenodd"><rect width="22" height="21" fill="#3578D5" rx="2"/><circle cx="14.75" cy="14.75" r="3.75" stroke="#FFF"/><path stroke="#FFF" stroke-linecap="round" d="M14.5 13.5v2m0 0h2M10.118 17H6a2 2 0 0 1-2-2V6a2 2 0 0 1 2-2h8a2 2 0 0 1 2 2v3.129M4 10.5h6m-6 2h6m-6 2h5"/></g></svg><svg width="20" height="21" viewBox="-1 -1 20 21" id="icon-history-call" y="71" xmlns="http://www.w3.org/2000/svg"><g fill="none" fill-rule="evenodd" stroke="#3578D5"><path fill="#3578D5" fill-rule="nonzero" stroke-width=".5" d="M2.551 5.47c-.562 0-1.07.536-1.52 1.009-.09.095-.178.187-.264.274-.432.431-.388 1.564.11 2.888.618 1.635 1.843 3.422 3.452 5.03 1.61 1.609 3.395 2.834 5.03 3.45 1.324.5 2.457.543 2.888.112.086-.086.179-.173.274-.263.483-.46 1.032-.98 1.008-1.558-.017-.397-.306-.825-.86-1.27-1.657-1.332-2.12-.862-2.888-.082l-.151.152c-.367.367-.964.286-1.774-.24-.562-.366-1.256-.96-2.062-1.767-1.992-1.992-2.63-3.21-2.006-3.836l.15-.148c.781-.768 1.253-1.232-.08-2.89-.446-.554-.873-.843-1.27-.86h-.037z"/><g transform="translate(9 1)"><circle cx="4.219" cy="4.219" r="4.219"/><path stroke-linecap="round" d="M3.938 2.813v2.25m0 0h2.25"/></g></g></svg><svg width="17" height="20" viewBox="-1 -1 17 20" id="icon-history-change" x="97" xmlns="http://www.w3.org/2000/svg"><g fill="none" fill-rule="evenodd"><path stroke="#3578D5" stroke-width=".96" d="M11.5 14c0 .34-1.853 1-5.25 1C2.853 15 1 14.34 1 14v-.81c0-.642.35-1.233.915-1.54l2.23-1.217a1.16 1.16 0 0 0 .605-1.02V8.41l-.058-.07a4.72 4.72 0 0 1-.853-1.766l-.022-.099-.086-.055A.499.499 0 0 1 3.5 6V5c0-.14.06-.271.167-.369l.083-.074V3l-.002-.033c-.001-.007-.086-.7.401-1.255C4.563 1.239 5.27 1 6.25 1c.976 0 1.682.238 2.096.707.487.55.407 1.254.406 1.26l-.002 1.59.082.074A.492.492 0 0 1 9 5v1c0 .218-.143.41-.356.475l-.124.038-.04.124c-.167.52-.406 1-.709 1.428a3.29 3.29 0 0 1-.209.27l-.062.07v1.032c0 .443.246.84.641 1.038l2.389 1.194c.598.3.97.901.97 1.57V14z"/><g stroke="#FFF" stroke-width="1.125" transform="translate(6 9)"><circle cx="4.219" cy="4.219" r="4.219" fill="#3578D5"/><path stroke-linecap="round" d="M3.938 2.813v2.25m0 0h2.25"/></g></g></svg><svg width="22" height="11" viewBox="-1 -1 22 11" id="icon-history-step-state" x="75" y="23" xmlns="http://www.w3.org/2000/svg"><path d="M.5 7.5h7m-1-3h7m-1-3h7" fill="none" fill-rule="evenodd" stroke="#3578D5" stroke-width="2"/></svg><svg width="24" height="23" viewBox="-1 -1 24 23" id="icon-id-obj" x="51" xmlns="http://www.w3.org/2000/svg"><g fill="none" fill-rule="evenodd"><rect width="22" height="21" fill="#3578D5" rx="2"/><g fill="#FFF" fill-rule="nonzero"><path d="M15.356 12.144a.876.876 0 0 0-.253-.622l-4.888-4.88a2.116 2.116 0 0 0-.697-.441 2.111 2.111 0 0 0-.8-.181H5.875a.841.841 0 0 0-.615.26.84.84 0 0 0-.26.615v2.843c0 .242.06.508.181.8.12.292.268.522.441.69l4.887 4.894a.837.837 0 0 0 .615.253.875.875 0 0 0 .623-.253l3.356-3.363a.838.838 0 0 0 .253-.615zm-7.55-3.318a.843.843 0 0 1-.619.256.843.843 0 0 1-.618-.256.843.843 0 0 1-.257-.619c0-.242.086-.448.257-.619a.843.843 0 0 1 .618-.256c.242 0 .448.085.619.256.17.171.256.377.256.619a.843.843 0 0 1-.256.619z"/><path d="M18.727 11.522l-4.887-4.88a2.116 2.116 0 0 0-.697-.441 2.11 2.11 0 0 0-.8-.181h-1.53c.24 0 .507.06.799.18.291.122.524.269.697.442l4.887 4.88a.875.875 0 0 1 .253.622.837.837 0 0 1-.253.615l-3.212 3.213c.136.141.257.244.362.307.105.064.24.096.403.096a.875.875 0 0 0 .622-.253l3.356-3.363a.837.837 0 0 0 .253-.615.876.876 0 0 0-.253-.622z"/></g></g></svg><svg width="24" height="23" viewBox="-1 -1 24 23" id="icon-ke" x="51" y="23" xmlns="http://www.w3.org/2000/svg"><g fill="none" fill-rule="evenodd" transform="translate(0 -1)"><rect width="22" height="21" y="1" fill="#3578D5" rx="2"/><text fill="#FFF" font-family="OpenSans-Bold, Open Sans" font-size="10" font-weight="bold"><tspan x="4.84" y="11">КЕ</tspan></text></g></svg><svg width="19" height="16" viewBox="-1 -1 19 16" id="icon-messenger" x="75" y="55" xmlns="http://www.w3.org/2000/svg"><g fill="#3578D5"><path d="M15.476 13.353c.382 0 .713-.127.995-.376l-4.815-4.814-.333.24c-.36.265-.653.472-.877.62-.225.15-.524.3-.897.456-.373.155-.72.232-1.043.232h-.019a2.73 2.73 0 0 1-1.043-.232 5.388 5.388 0 0 1-.896-.456 22.334 22.334 0 0 1-.877-.62c-.1-.074-.212-.155-.333-.242L.523 12.977c.281.25.612.376.994.376h13.96zM.958 5.13c-.36-.24-.68-.514-.958-.824v7.325l4.244-4.244A328.062 328.062 0 0 0 .958 5.131zm15.087 0a279.34 279.34 0 0 0-3.293 2.26l4.242 4.241V4.306a5.234 5.234 0 0 1-.949.825z"/><path d="M15.476 0H1.517C1.03 0 .656.165.394.493.13.823 0 1.233 0 1.726c0 .398.174.83.522 1.295.347.464.717.83 1.11 1.095.214.152.862.602 1.943 1.351A628.4 628.4 0 0 1 6.06 7.198l.141.1.262.19c.205.148.376.268.512.36.136.092.3.194.493.308.193.114.375.2.546.256.17.057.328.085.474.085h.019c.145 0 .303-.028.474-.085a2.87 2.87 0 0 0 .545-.256 10.47 10.47 0 0 0 1.005-.668 63.605 63.605 0 0 1 .403-.29l.96-.667 3.478-2.415A4.51 4.51 0 0 0 16.53 2.95c.31-.455.465-.933.465-1.432 0-.418-.15-.775-.45-1.072A1.467 1.467 0 0 0 15.475 0z"/></g></svg><svg width="14" height="14" viewBox="-1 -1 14 14" id="icon-moves-ke" x="114" y="62" xmlns="http://www.w3.org/2000/svg"><g fill="none" fill-rule="evenodd" stroke="#3578D5" transform="translate(1 1)"><circle cx="5" cy="5" r="5" stroke-width=".909"/><path stroke-linecap="round" stroke-width=".714" d="M5 2.857v2.857m0 0h2.857"/></g></svg><svg width="19" height="19" viewBox="-1 -1 19 19" id="icon-new-app" x="40" y="71" xmlns="http://www.w3.org/2000/svg"><g fill="none" fill-rule="evenodd" stroke="#3578D5" transform="translate(1 1)"><path stroke-linecap="round" stroke-width=".847" d="M4.94 10.9H1.614C.723 10.9 0 10.148 0 9.221V1.677C0 .75.723 0 1.615 0h6.459c.891 0 1.614.75 1.614 1.677V3.3"/><path stroke-linecap="round" stroke-width=".838" d="M2.036 2.545H6.11M2.036 4.581H5.09"/><rect width="9.688" height="10.899" x="5.09" y="4.072" stroke-width=".847" rx="2.036"/><path stroke-linecap="round" stroke-width=".838" d="M7.127 6.618h5m-5 2h5m-5 2.036h4"/></g></svg><svg width="17" height="21" viewBox="-1 -1 17 21" id="icon-phone-call" x="75" y="34" xmlns="http://www.w3.org/2000/svg"><path d="M14.277 14.48l-1.228-2.047a6.081 6.081 0 0 1-.867-3.13V7.512a5.013 5.013 0 0 0-3.576-4.796V1.43a1.431 1.431 0 0 0-2.862 0v1.285A5.013 5.013 0 0 0 2.168 7.51v1.793c0 1.101-.3 2.183-.866 3.128L.074 14.479a.357.357 0 0 0 .306.542h13.59a.359.359 0 0 0 .307-.541zm-9.354 2.139a2.5 2.5 0 0 0 2.252 1.43 2.5 2.5 0 0 0 2.253-1.43H4.923z" fill="#3578D5"/></svg><svg width="16" height="16" viewBox="-1 -1 16 16" id="icon-phone-client" x="114" y="16" xmlns="http://www.w3.org/2000/svg"><path fill="#3578D5" stroke="#3578D5" d="M10.645 13c-.5 0-1.103-.125-1.766-.375-1.454-.548-3.035-1.632-4.454-3.05-1.418-1.419-2.502-3.001-3.05-4.455-.499-1.322-.5-2.407-.003-2.903.071-.072.144-.148.219-.227.453-.477.965-1.013 1.644-.99.468.02.921.31 1.386.888 1.371 1.706.753 2.314.037 3.019l-.126.125c-.117.117-.338.659 1.72 2.717.67.671 1.244 1.163 1.701 1.46.288.187.804.47 1.015.26l.128-.129c.703-.714 1.311-1.33 3.016.04.577.464.868.917.887 1.386.028.678-.513 1.191-.99 1.644-.078.075-.155.148-.227.22-.246.246-.64.37-1.137.37zM3.187 1.404c-.482 0-.918.458-1.303.864-.078.081-.153.16-.227.234-.37.37-.332 1.341.095 2.476.53 1.401 1.58 2.933 2.959 4.312 1.379 1.378 2.91 2.429 4.311 2.957 1.135.429 2.106.465 2.475.096.074-.074.153-.149.235-.226.415-.394.885-.84.864-1.336-.014-.34-.262-.706-.736-1.087-1.42-1.143-1.818-.74-2.477-.071l-.129.13c-.315.315-.826.245-1.52-.206-.482-.313-1.077-.823-1.768-1.514-1.707-1.707-2.254-2.752-1.72-3.288l.13-.127c.67-.659 1.073-1.056-.07-2.477-.382-.475-.747-.722-1.088-.737h-.031z"/></svg><svg width="18" height="19" viewBox="-1 -1 18 19" id="icon-print-app" x="59" y="71" xmlns="http://www.w3.org/2000/svg"><g fill="none" fill-rule="evenodd" transform="translate(1 1)"><rect width="13.569" height="14.518" fill="#F5F5F5" stroke="#3578D5" stroke-width="1.11" rx="1.995"/><path d="M3.15 11.227h7.754M3.15 8.965l7.875-.04" stroke="#3578D5" stroke-linecap="round" stroke-width="1.131"/><path fill="#C93C69" fill-rule="nonzero" stroke="#C93C69" stroke-linejoin="round" stroke-width=".2" d="M2.72 4.228l3.789.002-1.194-1.197a.31.31 0 0 1-.09-.22.31.31 0 0 1 .09-.22l.186-.187a.308.308 0 0 1 .219-.09c.083 0 .16.032.22.09l2.046 2.047a.3.3 0 0 1 .09.22.308.308 0 0 1-.09.22L5.94 6.94a.308.308 0 0 1-.22.09.308.308 0 0 1-.218-.09l-.186-.186a.307.307 0 0 1 0-.434l1.207-1.204H2.715a.322.322 0 0 1-.315-.318v-.263c0-.171.148-.307.32-.307z"/></g></svg><svg width="14" height="14" viewBox="-1 -1 14 14" id="icon-refresh-gradient" x="114" y="76" xmlns="http://www.w3.org/2000/svg"><g fill="none" stroke-width=".2"><path fill="#00BDB1" stroke="#00BDB1" d="M11.475 1.871a.372.372 0 0 0-.44.295l-.27 1.305C9.904 1.953 8.326 1 6.597 1 3.936 1 1.77 3.243 1.77 6a.38.38 0 0 0 .372.385.378.378 0 0 0 .37-.385c0-2.333 1.833-4.23 4.086-4.23 1.47 0 2.81.812 3.534 2.105L8.894 3.6a.372.372 0 0 0-.441.296.385.385 0 0 0 .285.457l2.126.471a.358.358 0 0 0 .28-.053.385.385 0 0 0 .161-.242l.456-2.201a.385.385 0 0 0-.286-.457z"/><path fill="#3578D5" stroke="#3578D5" d="M10.612 5.616a.374.374 0 0 0-.36.386 4.092 4.092 0 0 1-1.107 2.947 4.075 4.075 0 0 1-2.998 1.303 4.103 4.103 0 0 1-3.492-1.95l1.297.348a.373.373 0 1 0 .194-.722l-2.11-.567a.373.373 0 0 0-.457.264L1.013 9.74a.374.374 0 0 0 .72.193l.319-1.188a4.848 4.848 0 0 0 7.638.715 4.836 4.836 0 0 0 1.307-3.483.373.373 0 0 0-.385-.361z"/></g></svg><svg width="20" height="19" viewBox="-1 -1 20 19" id="icon-repeat-app" x="20" y="71" xmlns="http://www.w3.org/2000/svg"><g fill="none" fill-rule="evenodd" transform="translate(1 1)"><path stroke="#3578D5" stroke-linecap="round" stroke-width=".964" d="M5.6 12.358H1.83c-1.01 0-1.83-.851-1.83-1.901V1.9C0 .851.82 0 1.83 0h7.324c1.011 0 1.83.851 1.83 1.901v2.974"/><path stroke="#3578D5" stroke-linecap="round" stroke-width=".945" d="M2.746 3.433h5.492M2.746 6.179h4.12"/><rect width="10.985" height="12.358" x="4.765" y="2.342" fill="#F5F5F5" stroke="#3578D5" stroke-width=".964" rx="1.729"/><path stroke="#3578D5" stroke-linecap="round" stroke-width=".945" d="M7.996 5.533h5.492"/><path stroke="#C93C69" stroke-linecap="round" stroke-width=".945" d="M9.366 8.033l3.884 3.884m0-3.884l-3.884 3.884"/></g></svg><svg width="19" height="18" viewBox="-1 -1 19 18" id="icon-tree" x="77" y="71" xmlns="http://www.w3.org/2000/svg"><g fill="none"><path fill="#414040" d="M8.207 4.103h1v7.034h-1z"/><path fill="#414040" d="M15.241 11.138h-.586V7.914H2.345v3.224h-.586v-3.81H15.24z"/><path fill="#3578D5" d="M0 11.138h4.103v4.103H0zm12.897 0H17v4.103h-4.103zm-6.449 0h4.103v4.103H6.448zM6.448 0h4.103v4.103H6.448z"/></g></svg><svg width="16" height="15" viewBox="-1 -1 16 15" id="icon-update-arrows" x="18" y="92" xmlns="http://www.w3.org/2000/svg"><path d="M13.618 1.132a.483.483 0 0 0-.573.384l-.351 1.696C11.576 1.238 9.526 0 7.278 0 3.816 0 1 2.916 1 6.5c0 .276.216.5.483.5a.492.492 0 0 0 .483-.5c0-3.033 2.383-5.5 5.312-5.5 1.91 0 3.651 1.056 4.594 2.738l-1.61-.358a.483.483 0 0 0-.573.385.5.5 0 0 0 .37.593l2.765.614a.466.466 0 0 0 .363-.07.5.5 0 0 0 .21-.315l.592-2.861a.5.5 0 0 0-.37-.594zM12.495 6a.486.486 0 0 0-.468.502 5.32 5.32 0 0 1-1.438 3.832 5.298 5.298 0 0 1-3.898 1.694 5.334 5.334 0 0 1-4.54-2.536l1.687.453a.485.485 0 1 0 .251-.94L1.346 8.27a.485.485 0 0 0-.594.344L.017 11.36a.486.486 0 0 0 .937.252l.413-1.545a6.302 6.302 0 0 0 5.533 2.93 6.261 6.261 0 0 0 4.397-1.998 6.287 6.287 0 0 0 1.7-4.529.485.485 0 0 0-.502-.47z" fill="#3578D5"/></svg><svg width="18" height="18" viewBox="-1 -1 18 18" id="icon-works" y="92" xmlns="http://www.w3.org/2000/svg"><g fill="#3578D5"><path d="M3.186 6.134c.32 0 .635-.05.938-.147l1.802 1.801L7.9 5.815 6.099 4.012A3.067 3.067 0 0 0 5.35.916 3.032 3.032 0 0 0 3.194.022c-.455 0-.911.103-1.32.298a.21.21 0 0 0-.059.339l1.896 1.896a.734.734 0 0 1 0 1.045.755.755 0 0 1-1.044 0L.77 1.704a.21.21 0 0 0-.338.058 3.061 3.061 0 0 0 .595 3.478 3.033 3.033 0 0 0 2.159.894zm9.629 3.508c-.32 0-.636.05-.94.147L9.883 7.796 7.907 9.77l1.994 1.994a3.07 3.07 0 0 0 .748 3.097 3.032 3.032 0 0 0 2.157.893c.455 0 .911-.103 1.32-.298a.21.21 0 0 0 .059-.339l-1.896-1.897a.734.734 0 0 1 0-1.044.755.755 0 0 1 1.044 0l1.897 1.896a.21.21 0 0 0 .338-.058 3.061 3.061 0 0 0-.595-3.478 3.032 3.032 0 0 0-2.158-.894z"/><path d="M12.004 5.146s.33.29.602.154c.307-.155 1.173.7 1.45.899l.006.002-.151.152a.508.508 0 0 0 .717.717l1.196-1.195a.509.509 0 0 0-.718-.718l-.199.2c-.165-.228-.44-.616-.404-.744.145-.562-1-1.89-1-1.89C10.657-.122 8.756-.057 7.852.253c-.363.126-.296.205.081.271 2.744.48 3.084 2.097 2.619 2.721-.18.241.082.532.082.532l.098.098L6.1 8.506a.911.911 0 0 1 .177.135l.78.779a.906.906 0 0 1 .133.176l4.633-4.632.181.182zM5.965 8.952a.482.482 0 0 0-.644-.023L.173 13.544a.405.405 0 0 0-.023.6l1.402 1.402a.405.405 0 0 0 .6-.021l4.616-5.15a.481.481 0 0 0-.023-.644l-.78-.779z"/></g></svg></svg>