<svg width="219" height="206" viewBox="0 0 219 206" xmlns="http://www.w3.org/2000/svg" xmlns:xlink="http://www.w3.org/1999/xlink"><svg width="8" height="16" viewBox="-1 -1 8 16" id="i-arrow-bottom-slider_white" x="122" y="188" xmlns="http://www.w3.org/2000/svg"><path fill="#FFF" d="M3.212 13.377l2.725-2.99a.25.25 0 0 0 .04-.272.226.226 0 0 0-.227-.148H3.476V.249a.242.242 0 0 0-.07-.179.243.243 0 0 0-.179-.07h-.491a.242.242 0 0 0-.18.07.243.243 0 0 0-.07.18v9.717H.27c-.104 0-.18.05-.226.148a.243.243 0 0 0 .047.272l2.756 2.99a.254.254 0 0 0 .366 0z"/></svg><svg width="16" height="8" viewBox="-1 -1 16 8" id="i-arrow-left-slider_black" x="174" y="134" xmlns="http://www.w3.org/2000/svg"><path d="M.623 2.788L3.613.063a.25.25 0 0 1 .272-.04.226.226 0 0 1 .148.227v2.274h9.718a.24.24 0 0 1 .249.249v.491a.242.242 0 0 1-.07.18.243.243 0 0 1-.18.07H4.034V5.73c0 .104-.05.18-.148.226a.243.243 0 0 1-.272-.047L.623 3.154a.254.254 0 0 1 0-.366z"/></svg><svg width="32" height="20" viewBox="-1 -1 32 20" id="i-arrow-left-slider_white" x="142" y="122" xmlns="http://www.w3.org/2000/svg"><defs><filter id="aca" width="160.9%" height="240%" x="-30.4%" y="-50%" filterUnits="objectBoundingBox"><feOffset dy="2" in="SourceAlpha" result="shadowOffsetOuter1"/><feGaussianBlur in="shadowOffsetOuter1" result="shadowBlurOuter1" stdDeviation="2"/><feColorMatrix in="shadowBlurOuter1" result="shadowMatrixOuter1" values="0 0 0 0 0 0 0 0 0 0 0 0 0 0 0 0 0 0 0.5 0"/><feMerge><feMergeNode in="shadowMatrixOuter1"/><feMergeNode in="SourceGraphic"/></feMerge></filter></defs><path fill="#FFF" d="M21.977 4.647L17.065.104a.406.406 0 0 0-.448-.064c-.162.069-.243.194-.243.376v3.79H.409A.395.395 0 0 0 0 4.621v.82a.396.396 0 0 0 .41.415h15.964v3.696c0 .173.081.298.243.376.162.07.312.043.448-.078l4.912-4.594a.427.427 0 0 0 0-.61z" filter="url(#aca)" transform="matrix(-1 0 0 1 26 2)"/></svg><svg width="13" height="8" viewBox="-1 -1 13 8" id="i-arrow-little_blue" x="64" y="164" xmlns="http://www.w3.org/2000/svg"><path fill-rule="evenodd" d="M4.998 5.784L.392 1.255a.726.726 0 0 1 0-1.042.758.758 0 0 1 1.06 0L5.529 4.22 9.605.213a.76.76 0 0 1 1.061 0 .729.729 0 0 1 0 1.043L6.059 5.784a.757.757 0 0 1-1.061 0z"/></svg><svg width="16" height="8" viewBox="-1 -1 16 8" id="i-arrow-right-slider_black" x="174" y="114" xmlns="http://www.w3.org/2000/svg"><path d="M13.377 2.788L10.387.063a.25.25 0 0 0-.272-.04.226.226 0 0 0-.148.227v2.274H.249a.242.242 0 0 0-.179.07.243.243 0 0 0-.07.179v.491c0 .073.023.133.07.18.047.046.107.07.18.07h9.717V5.73c0 .104.05.18.148.226a.24.24 0 0 0 .272-.047l2.99-2.756a.254.254 0 0 0 0-.366z"/></svg><svg width="32" height="20" viewBox="-1 -1 32 20" id="i-arrow-right-slider_white" x="142" y="70" xmlns="http://www.w3.org/2000/svg"><defs><filter id="afa" width="160.9%" height="240%" x="-30.4%" y="-50%" filterUnits="objectBoundingBox"><feOffset dy="2" in="SourceAlpha" result="shadowOffsetOuter1"/><feGaussianBlur in="shadowOffsetOuter1" result="shadowBlurOuter1" stdDeviation="2"/><feColorMatrix in="shadowBlurOuter1" result="shadowMatrixOuter1" values="0 0 0 0 0 0 0 0 0 0 0 0 0 0 0 0 0 0 0.5 0"/><feMerge><feMergeNode in="shadowMatrixOuter1"/><feMergeNode in="SourceGraphic"/></feMerge></filter></defs><path fill="#FFF" d="M21.977 4.647L17.065.104a.406.406 0 0 0-.448-.064c-.162.069-.243.194-.243.376v3.79H.409A.395.395 0 0 0 0 4.621v.82a.396.396 0 0 0 .41.415h15.964v3.696c0 .173.081.298.243.376.162.07.312.043.448-.078l4.912-4.594a.427.427 0 0 0 0-.61z" filter="url(#afa)" transform="translate(4 2)"/></svg><svg width="8" height="16" viewBox="-1 -1 8 16" id="i-arrow-top-slider_white" x="186" y="142" xmlns="http://www.w3.org/2000/svg"><path fill="#FFF" d="M3.212.623l2.725 2.99a.25.25 0 0 1 .04.272.226.226 0 0 1-.227.148H3.476v9.718a.242.242 0 0 1-.07.179.243.243 0 0 1-.179.07h-.491a.242.242 0 0 1-.18-.07.243.243 0 0 1-.07-.18V4.034H.27a.235.235 0 0 1-.226-.148.243.243 0 0 1 .047-.272L2.846.623a.254.254 0 0 1 .366 0z"/></svg><svg width="16" height="16" viewBox="-1 -1 16 16" id="i-close" x="70" y="188" xmlns="http://www.w3.org/2000/svg"><path fill="#fff" d="M13.628 13.403a1.27 1.27 0 0 1-1.797 0L7.112 8.685 2.17 13.628A1.27 1.27 0 1 1 .372 11.83l4.943-4.943L.597 2.169A1.27 1.27 0 1 1 2.394.372l4.718 4.719L11.606.597a1.27 1.27 0 1 1 1.797 1.797L8.909 6.888l4.719 4.718a1.27 1.27 0 0 1 0 1.797z"/></svg><svg width="18" height="18" viewBox="-1 -1 18 18" id="i-close-gray" y="188" xmlns="http://www.w3.org/2000/svg"><path fill="#A7A7A7" d="M9.415 8l6.292-6.292A1 1 0 1 0 14.293.293L8 6.585 1.708.293A1 1 0 1 0 .293 1.708L6.586 8 .293 14.292a1 1 0 1 0 1.415 1.415L8 9.415l6.293 6.292a.998.998 0 0 0 1.414 0 1 1 0 0 0 0-1.415L9.415 8z"/></svg><svg width="16" height="16" viewBox="-1 -1 16 16" id="i-close-img" x="54" y="188" xmlns="http://www.w3.org/2000/svg"><path fill="#FFF" d="M8.238 7l5.505-5.505A.875.875 0 1 0 12.505.257L7 5.762 1.495.257A.875.875 0 1 0 .257 1.495L5.762 7 .257 12.506a.875.875 0 1 0 1.238 1.237L7 8.238l5.505 5.505a.873.873 0 0 0 1.238 0 .875.875 0 0 0 0-1.238L8.238 7z"/></svg><svg width="21" height="20" viewBox="-1 -1 21 20" id="i-comments_black" x="174" y="70" xmlns="http://www.w3.org/2000/svg"><path d="M2.179 9.604l-.46 2.645a.682.682 0 0 0 .269.679.62.62 0 0 0 .393.126.584.584 0 0 0 .314-.08L5.39 11.49c.584 2.588 3.391 4.555 6.749 4.555.236 0 .472-.012.707-.035l3.47 1.91a.64.64 0 0 0 .315.08c.134 0 .28-.046.393-.127a.682.682 0 0 0 .27-.678l-.461-2.646C18.214 13.503 19 12.054 19 10.501c0-2.576-2.212-4.82-5.3-5.406C13.408 2.255 10.455 0 6.86 0 3.077 0 0 2.484 0 5.544c.011 1.564.797 3.025 2.179 4.06zm15.485.897c0 1.208-.696 2.358-1.92 3.151a.71.71 0 0 0-.304.702l.292 1.68-2.425-1.335a.676.676 0 0 0-.393-.08 9.005 9.005 0 0 1-.775.045c-2.774 0-5.076-1.552-5.458-3.565h.18c3.391 0 6.21-2.001 6.76-4.612 2.37.506 4.043 2.15 4.043 4.014zM6.872 1.39c3.043 0 5.514 1.864 5.514 4.164S9.916 9.72 6.872 9.72a5.95 5.95 0 0 1-.774-.046.677.677 0 0 0-.394.08L3.28 11.088l.292-1.68a.69.69 0 0 0-.303-.701c-1.224-.794-1.92-1.944-1.92-3.152.01-2.289 2.481-4.163 5.524-4.163z"/></svg><svg width="21" height="20" viewBox="-1 -1 21 20" id="i-comments_white" x="196" y="148" xmlns="http://www.w3.org/2000/svg"><path fill="#fff" d="M2.179 9.604l-.46 2.645a.682.682 0 0 0 .269.679.62.62 0 0 0 .393.126.584.584 0 0 0 .314-.08L5.39 11.49c.584 2.588 3.391 4.555 6.749 4.555.236 0 .472-.012.707-.035l3.47 1.91a.64.64 0 0 0 .315.08c.134 0 .28-.046.393-.127a.682.682 0 0 0 .27-.678l-.461-2.646C18.214 13.503 19 12.054 19 10.501c0-2.576-2.212-4.82-5.3-5.406C13.408 2.255 10.455 0 6.86 0 3.077 0 0 2.484 0 5.544c.011 1.564.797 3.025 2.179 4.06zm15.485.897c0 1.208-.696 2.358-1.92 3.151a.71.71 0 0 0-.304.702l.292 1.68-2.425-1.335a.676.676 0 0 0-.393-.08 9.005 9.005 0 0 1-.775.045c-2.774 0-5.076-1.552-5.458-3.565h.18c3.391 0 6.21-2.001 6.76-4.612 2.37.506 4.043 2.15 4.043 4.014zM6.872 1.39c3.043 0 5.514 1.864 5.514 4.164S9.916 9.72 6.872 9.72a5.95 5.95 0 0 1-.774-.046.677.677 0 0 0-.394.08L3.28 11.088l.292-1.68a.69.69 0 0 0-.303-.701c-1.224-.794-1.92-1.944-1.92-3.152.01-2.289 2.481-4.163 5.524-4.163z"/></svg><svg width="20" height="22" viewBox="-1 -1 20 22" id="i-dis_black" x="196" y="39" xmlns="http://www.w3.org/2000/svg"><path d="M.581 8.843A3.53 3.53 0 0 0 .008 10.8c0 .823.296 1.539.889 2.147.593.608 1.296.912 2.107.912h2.06c-.374.792-.562 1.56-.562 2.303 0 .936.137 1.68.41 2.231.273.552.672.958 1.194 1.218.524.26 1.113.39 1.768.39.398 0 .75-.148 1.054-.444.335-.336.577-.768.725-1.296.149-.527.268-1.033.358-1.517.09-.484.228-.826.415-1.026.383-.424.8-.936 1.253-1.535.788-1.048 1.323-1.668 1.603-1.86h3.208c.414 0 .767-.15 1.06-.45.292-.3.438-.661.438-1.085V3.109c0-.424-.146-.785-.439-1.085-.292-.3-.645-.45-1.059-.45h-3.371c-.172 0-.71-.16-1.616-.48A26.42 26.42 0 0 0 8.97.308a9.23 9.23 0 0 0-2.22-.27H5.24c-1.1 0-1.986.322-2.657.966-.671.644-1.003 1.521-.995 2.633-.468.616-.702 1.328-.702 2.135 0 .176.011.348.035.516a3.511 3.511 0 0 0-.34 2.555zm14.633-5.506a.712.712 0 0 1 .527-.228c.203 0 .378.076.527.228a.747.747 0 0 1 .222.54.747.747 0 0 1-.222.54.712.712 0 0 1-.527.228.711.711 0 0 1-.527-.228.747.747 0 0 1-.223-.54c0-.208.075-.388.223-.54zM1.757 9.814c.168-.367.377-.555.627-.563a1.634 1.634 0 0 1-.293-.57 2.205 2.205 0 0 1-.117-.666c0-.552.207-1.028.62-1.427a1.69 1.69 0 0 1-.21-.828c0-.296.068-.59.204-.882.137-.291.322-.501.556-.63a4.2 4.2 0 0 1-.058-.67c0-1.336.75-2.004 2.248-2.004H6.75c1.022 0 2.357.292 4.004.876a85.163 85.163 0 0 0 .755.276c.09.032.226.077.41.137.183.06.331.104.444.132.114.028.242.054.387.078.144.024.267.036.368.036h.375v7.677h-.375a.987.987 0 0 0-.415.108 1.96 1.96 0 0 0-.468.324c-.16.144-.31.286-.451.426-.14.14-.297.316-.469.528a23.656 23.656 0 0 0-.772 1.002 20.74 20.74 0 0 1-1.17 1.452c-.32.343-.553.78-.697 1.313a22.176 22.176 0 0 0-.357 1.505c-.094.472-.242.812-.445 1.02-.75 0-1.249-.188-1.499-.564-.25-.376-.374-.956-.374-1.74 0-.471.187-1.113.562-1.925.375-.811.562-1.45.562-1.913h-4.12c-.391 0-.739-.154-1.043-.462a1.48 1.48 0 0 1-.457-1.074c0-.28.084-.603.252-.972z"/></svg><svg width="20" height="22" viewBox="-1 -1 20 22" id="i-dis_red" x="196" y="61" xmlns="http://www.w3.org/2000/svg"><path fill="#D0021B" d="M.581 8.843A3.53 3.53 0 0 0 .008 10.8c0 .823.296 1.539.889 2.147.593.608 1.296.912 2.107.912h2.06c-.374.792-.562 1.56-.562 2.303 0 .936.137 1.68.41 2.231.273.552.672.958 1.194 1.218.524.26 1.113.39 1.768.39.398 0 .75-.148 1.054-.444.335-.336.577-.768.725-1.296.149-.527.268-1.033.358-1.517.09-.484.228-.826.415-1.026.383-.424.8-.936 1.253-1.535.788-1.048 1.323-1.668 1.603-1.86h3.208c.414 0 .767-.15 1.06-.45.292-.3.438-.661.438-1.085V3.109c0-.424-.146-.785-.439-1.085-.292-.3-.645-.45-1.059-.45h-3.371c-.172 0-.71-.16-1.616-.48A26.42 26.42 0 0 0 8.97.308a9.23 9.23 0 0 0-2.22-.27H5.24c-1.1 0-1.986.322-2.657.966-.671.644-1.003 1.521-.995 2.633-.468.616-.702 1.328-.702 2.135 0 .176.011.348.035.516a3.511 3.511 0 0 0-.34 2.555zm14.633-5.506a.712.712 0 0 1 .527-.228c.203 0 .378.076.527.228a.747.747 0 0 1 .222.54.747.747 0 0 1-.222.54.712.712 0 0 1-.527.228.711.711 0 0 1-.527-.228.747.747 0 0 1-.223-.54c0-.208.075-.388.223-.54zM1.757 9.814c.168-.367.377-.555.627-.563a1.634 1.634 0 0 1-.293-.57 2.205 2.205 0 0 1-.117-.666c0-.552.207-1.028.62-1.427a1.69 1.69 0 0 1-.21-.828c0-.296.068-.59.204-.882.137-.291.322-.501.556-.63a4.2 4.2 0 0 1-.058-.67c0-1.336.75-2.004 2.248-2.004H6.75c1.022 0 2.357.292 4.004.876a85.163 85.163 0 0 0 .755.276c.09.032.226.077.41.137.183.06.331.104.444.132.114.028.242.054.387.078.144.024.267.036.368.036h.375v7.677h-.375a.987.987 0 0 0-.415.108 1.96 1.96 0 0 0-.468.324c-.16.144-.31.286-.451.426-.14.14-.297.316-.469.528a23.656 23.656 0 0 0-.772 1.002 20.74 20.74 0 0 1-1.17 1.452c-.32.343-.553.78-.697 1.313a22.176 22.176 0 0 0-.357 1.505c-.094.472-.242.812-.445 1.02-.75 0-1.249-.188-1.499-.564-.25-.376-.374-.956-.374-1.74 0-.471.187-1.113.562-1.925.375-.811.562-1.45.562-1.913h-4.12c-.391 0-.739-.154-1.043-.462a1.48 1.48 0 0 1-.457-1.074c0-.28.084-.603.252-.972z"/></svg><svg width="11" height="14" viewBox="-1 -1 11 14" id="i-eur" x="68" y="174" xmlns="http://www.w3.org/2000/svg"><path d="M1.83 3.86c.25-1.15.727-2.012 1.433-2.587C3.968.697 4.87.41 5.97.41c.44 0 .812.03 1.118.09.305.06.612.145.922.255l-.39 1.47a4.493 4.493 0 0 0-1.665-.3c-.68 0-1.202.172-1.567.517-.366.346-.618.818-.758 1.418h3.405l-.24 1.275H3.45c-.01.12-.015.232-.015.338v.607c0 .09.005.19.015.3h3.105L6.3 7.67H3.615c.16.74.437 1.257.833 1.553.395.295.887.442 1.477.442A4.67 4.67 0 0 0 7.89 9.26l.375 1.455a5.96 5.96 0 0 1-2.415.48c-1.21 0-2.14-.31-2.79-.93-.65-.62-1.075-1.485-1.275-2.595H.57V6.38h1.095c-.01-.11-.015-.21-.015-.3v-.615c0-.11.005-.22.015-.33H.57V3.86h1.26z" fill="#fff" fill-rule="evenodd"/></svg><svg width="10" height="16" viewBox="-1 -1 10 16" id="i-fb" x="44" y="188" xmlns="http://www.w3.org/2000/svg"><path fill="#CACACA" d="M7.699.003L5.779 0C3.625 0 2.232 1.352 2.232 3.445v1.589H.301A.294.294 0 0 0 0 5.32v2.3c0 .158.135.286.302.286H2.23v5.808c0 .157.135.285.302.285H5.05a.294.294 0 0 0 .302-.285V7.907h2.255a.294.294 0 0 0 .302-.286L7.91 5.32a.278.278 0 0 0-.088-.202.31.31 0 0 0-.214-.084H5.352V3.687c0-.647.163-.975 1.054-.975h1.292A.294.294 0 0 0 8 2.425V.288a.294.294 0 0 0-.301-.285z"/></svg><svg width="10" height="16" viewBox="-1 -1 10 16" id="i-fb-color" x="86" y="188" xmlns="http://www.w3.org/2000/svg"><path fill="#4C73CD" d="M7.699.003L5.779 0C3.625 0 2.232 1.352 2.232 3.445v1.589H.301A.294.294 0 0 0 0 5.32v2.3c0 .158.135.286.302.286H2.23v5.808c0 .157.135.285.302.285H5.05a.294.294 0 0 0 .302-.285V7.907h2.255a.294.294 0 0 0 .302-.286L7.91 5.32a.278.278 0 0 0-.088-.202.31.31 0 0 0-.214-.084H5.352V3.687c0-.647.163-.975 1.054-.975h1.292A.294.294 0 0 0 8 2.425V.288a.294.294 0 0 0-.301-.285z"/></svg><svg width="10" height="16" viewBox="-1 -1 10 16" id="i-fb_white" x="18" y="188" xmlns="http://www.w3.org/2000/svg"><path fill="#fff" d="M7.699.003L5.779 0C3.625 0 2.232 1.352 2.232 3.445v1.589H.301A.294.294 0 0 0 0 5.32v2.3c0 .158.135.286.302.286H2.23v5.808c0 .157.135.285.302.285H5.05a.294.294 0 0 0 .302-.285V7.907h2.255a.294.294 0 0 0 .302-.286L7.91 5.32a.278.278 0 0 0-.088-.202.31.31 0 0 0-.214-.084H5.352V3.687c0-.647.163-.975 1.054-.975h1.292A.294.294 0 0 0 8 2.425V.288a.294.294 0 0 0-.301-.285z"/></svg><svg width="25" height="18" viewBox="-1 -1 25 18" id="i-forex-arrow" x="89" y="142" xmlns="http://www.w3.org/2000/svg"><path fill="#FFF" d="M18.221 0v1.37h2.328L12.95 8.614 9.84 5.65 0 15.032 1.015 16 9.84 7.585l3.11 2.967 8.614-8.215v2.22H23V0z"/></svg><svg width="23" height="16" viewBox="-1 -1 23 16" id="i-google-plus_white" x="196" y="23" xmlns="http://www.w3.org/2000/svg"><path fill="#FFF" d="M7.368 8.444a.46.46 0 0 1-.45-.469V6.256a.46.46 0 0 1 .45-.469h6.066s-.003 1.56-.008 1.607C13.23 11.076 10.302 14 6.718 14 2.992 14-.026 10.839 0 6.95.026 3.09 3.148-.074 6.852.001a6.557 6.557 0 0 1 4.485 1.917.483.483 0 0 1 0 .682L10.13 3.782a.439.439 0 0 1-.614.002 4.06 4.06 0 0 0-2.799-1.127c-2.353 0-4.257 2.042-4.165 4.515.086 2.307 1.918 4.154 4.134 4.17 1.826.015 3.386-1.201 3.962-2.898h-3.28zm11.626-2.5h1.611c.218 0 .395.183.395.41v1.414a.403.403 0 0 1-.395.41h-1.611v1.68a.403.403 0 0 1-.395.411h-1.357a.403.403 0 0 1-.394-.41v-1.68h-1.612a.403.403 0 0 1-.395-.411V6.354c0-.227.177-.41.395-.41h1.612v-1.68c0-.227.177-.411.394-.411H18.6c.218 0 .395.184.395.41v1.68z"/></svg><svg width="18" height="18" viewBox="-1 -1 18 18" id="i-insta" x="138" y="142" xmlns="http://www.w3.org/2000/svg"><path d="M16 11.964A4.04 4.04 0 0 1 11.964 16H4.036A4.04 4.04 0 0 1 0 11.964V4.036A4.04 4.04 0 0 1 4.036 0h7.928A4.04 4.04 0 0 1 16 4.036v7.928zM11.874 1.882H4.126a2.246 2.246 0 0 0-2.244 2.244v7.748a2.246 2.246 0 0 0 2.244 2.244h7.748a2.246 2.246 0 0 0 2.244-2.244V4.126a2.246 2.246 0 0 0-2.244-2.244zM8 12.235A4.24 4.24 0 0 1 3.765 8 4.24 4.24 0 0 1 8 3.765 4.24 4.24 0 0 1 12.235 8 4.24 4.24 0 0 1 8 12.235zm4.235-7.53a.942.942 0 0 1 0-1.881.942.942 0 0 1 0 1.882zM8 5.648A2.356 2.356 0 0 0 5.647 8 2.356 2.356 0 0 0 8 10.353a2.356 2.356 0 0 0 2.353-2.354A2.355 2.355 0 0 0 8 5.647z" fill="#FFF" fill-rule="nonzero"/></svg><svg width="25" height="22" viewBox="-1 -1 25 22" id="i-like-disabled" x="64" y="142" xmlns="http://www.w3.org/2000/svg"><path fill="#DCE0EC" d="M20.858 1.965A5.686 5.686 0 0 0 16.523 0c-2.37 0-3.871 1.425-4.713 2.62a8.69 8.69 0 0 0-.56.913 8.682 8.682 0 0 0-.56-.913C9.848 1.425 8.347 0 5.977 0a5.687 5.687 0 0 0-4.335 1.965C.583 3.173 0 4.792 0 6.522c0 1.884.73 3.636 2.3 5.514 1.403 1.679 3.42 3.409 5.757 5.412.871.747 1.771 1.519 2.73 2.362l.029.026a.655.655 0 0 0 .868 0l.029-.026c.959-.843 1.859-1.615 2.73-2.362 2.336-2.003 4.354-3.733 5.757-5.412 1.57-1.878 2.3-3.63 2.3-5.514 0-1.73-.583-3.349-1.642-4.557z"/></svg><svg width="20" height="22" viewBox="-1 -1 20 22" id="i-like_black" x="196" y="126" xmlns="http://www.w3.org/2000/svg"><path d="M17.419 11.157a3.53 3.53 0 0 0 .573-1.956c0-.823-.296-1.539-.889-2.147-.593-.608-1.296-.912-2.107-.912h-2.06c.374-.792.562-1.56.562-2.303 0-.936-.137-1.68-.41-2.231A2.605 2.605 0 0 0 11.894.39C11.37.13 10.78 0 10.126 0c-.398 0-.75.148-1.054.444-.335.336-.577.768-.725 1.296a17.218 17.218 0 0 0-.358 1.517c-.09.484-.228.826-.415 1.026-.383.424-.8.936-1.253 1.535-.788 1.048-1.323 1.668-1.603 1.86H1.51c-.414 0-.767.15-1.06.45-.292.3-.438.661-.438 1.085v7.678c0 .424.146.785.439 1.085.292.3.645.45 1.059.45h3.371c.172 0 .71.16 1.616.48.96.344 1.805.606 2.534.786.73.18 1.47.27 2.219.27h1.51c1.1 0 1.986-.322 2.657-.966.671-.644 1.003-1.521.995-2.633.468-.616.702-1.328.702-2.135 0-.176-.011-.348-.035-.516a3.511 3.511 0 0 0 .34-2.555zM2.786 16.663a.712.712 0 0 1-.527.228.712.712 0 0 1-.527-.228.747.747 0 0 1-.222-.54c0-.208.074-.388.222-.54a.712.712 0 0 1 .527-.228c.203 0 .379.076.527.228a.747.747 0 0 1 .223.54.747.747 0 0 1-.223.54zm13.457-6.477c-.168.367-.377.555-.627.563.118.136.215.326.293.57.078.244.117.466.117.666 0 .552-.207 1.028-.62 1.427.14.256.21.532.21.828 0 .296-.068.59-.204.882-.137.291-.322.501-.556.63a4.2 4.2 0 0 1 .058.67c0 1.336-.75 2.004-2.248 2.004H11.25c-1.022 0-2.357-.292-4.004-.876a85.163 85.163 0 0 0-.755-.276c-.09-.032-.226-.077-.41-.137a6.455 6.455 0 0 0-.444-.132 5.183 5.183 0 0 0-.387-.078 2.305 2.305 0 0 0-.368-.036h-.375V9.214h.375a.987.987 0 0 0 .415-.108 1.96 1.96 0 0 0 .468-.324c.16-.144.31-.286.451-.426.14-.14.297-.316.469-.528a23.656 23.656 0 0 0 .772-1.002 20.74 20.74 0 0 1 1.17-1.452c.32-.343.553-.78.697-1.313.145-.532.264-1.033.357-1.505.094-.472.242-.812.445-1.02.75 0 1.249.188 1.499.564.25.376.374.956.374 1.74 0 .471-.187 1.113-.562 1.925-.375.811-.562 1.45-.562 1.913h4.12c.391 0 .739.154 1.043.462.304.308.457.666.457 1.074 0 .28-.084.603-.252.972z"/></svg><svg width="20" height="22" viewBox="-1 -1 20 22" id="i-like_green" x="196" y="83" xmlns="http://www.w3.org/2000/svg"><path fill="#589812" d="M17.419 11.157a3.53 3.53 0 0 0 .573-1.956c0-.823-.296-1.539-.889-2.147-.593-.608-1.296-.912-2.107-.912h-2.06c.374-.792.562-1.56.562-2.303 0-.936-.137-1.68-.41-2.231A2.605 2.605 0 0 0 11.894.39C11.37.13 10.78 0 10.126 0c-.398 0-.75.148-1.054.444-.335.336-.577.768-.725 1.296a17.218 17.218 0 0 0-.358 1.517c-.09.484-.228.826-.415 1.026-.383.424-.8.936-1.253 1.535-.788 1.048-1.323 1.668-1.603 1.86H1.51c-.414 0-.767.15-1.06.45-.292.3-.438.661-.438 1.085v7.678c0 .424.146.785.439 1.085.292.3.645.45 1.059.45h3.371c.172 0 .71.16 1.616.48.96.344 1.805.606 2.534.786.73.18 1.47.27 2.219.27h1.51c1.1 0 1.986-.322 2.657-.966.671-.644 1.003-1.521.995-2.633.468-.616.702-1.328.702-2.135 0-.176-.011-.348-.035-.516a3.511 3.511 0 0 0 .34-2.555zM2.786 16.663a.712.712 0 0 1-.527.228.712.712 0 0 1-.527-.228.747.747 0 0 1-.222-.54c0-.208.074-.388.222-.54a.712.712 0 0 1 .527-.228c.203 0 .379.076.527.228a.747.747 0 0 1 .223.54.747.747 0 0 1-.223.54zm13.457-6.477c-.168.367-.377.555-.627.563.118.136.215.326.293.57.078.244.117.466.117.666 0 .552-.207 1.028-.62 1.427.14.256.21.532.21.828 0 .296-.068.59-.204.882-.137.291-.322.501-.556.63a4.2 4.2 0 0 1 .058.67c0 1.336-.75 2.004-2.248 2.004H11.25c-1.022 0-2.357-.292-4.004-.876a85.163 85.163 0 0 0-.755-.276c-.09-.032-.226-.077-.41-.137a6.455 6.455 0 0 0-.444-.132 5.183 5.183 0 0 0-.387-.078 2.305 2.305 0 0 0-.368-.036h-.375V9.214h.375a.987.987 0 0 0 .415-.108 1.96 1.96 0 0 0 .468-.324c.16-.144.31-.286.451-.426.14-.14.297-.316.469-.528a23.656 23.656 0 0 0 .772-1.002 20.74 20.74 0 0 1 1.17-1.452c.32-.343.553-.78.697-1.313.145-.532.264-1.033.357-1.505.094-.472.242-.812.445-1.02.75 0 1.249.188 1.499.564.25.376.374.956.374 1.74 0 .471-.187 1.113-.562 1.925-.375.811-.562 1.45-.562 1.913h4.12c.391 0 .739.154 1.043.462.304.308.457.666.457 1.074 0 .28-.084.603-.252.972z"/></svg><svg width="32" height="32" viewBox="-1 -1 32 32" id="i-news-media" y="142" xmlns="http://www.w3.org/2000/svg"><g fill="none" fill-rule="evenodd"><circle cx="15" cy="15" r="15" fill="#000" opacity=".6"/><path fill="#FFF" d="M19 12a1 1 0 0 1 1 1v6a1 1 0 0 1-1 1h-6a1 1 0 0 1-1-1h6a1 1 0 0 0 1-1v-6zm-8-2h6a1 1 0 0 1 1 1v6a1 1 0 0 1-1 1h-6a1 1 0 0 1-1-1v-6a1 1 0 0 1 1-1z"/></g></svg><svg width="32" height="32" viewBox="-1 -1 32 32" id="i-news-poll" x="32" y="142" xmlns="http://www.w3.org/2000/svg"><g fill="none" fill-rule="evenodd"><circle cx="15" cy="15" r="15" fill="#000" opacity=".6"/><path fill="#FFF" d="M9.5 9h11a1.5 1.5 0 0 1 0 3h-11a1.5 1.5 0 0 1 0-3zm0 5h7a1.5 1.5 0 0 1 0 3h-7a1.5 1.5 0 0 1 0-3zm0 5h2a1.5 1.5 0 0 1 0 3h-2a1.5 1.5 0 0 1 0-3z"/></g></svg><svg width="32" height="32" viewBox="-1 -1 32 32" id="i-news-video" x="142" y="90" xmlns="http://www.w3.org/2000/svg"><g fill="none" fill-rule="evenodd"><circle cx="15" cy="15" r="15" fill="#000" opacity=".6"/><path fill="#FFF" fill-rule="nonzero" d="M13.251 10.07a.49.49 0 0 1 .503 0l5.994 4.482A.521.521 0 0 1 20 15a.52.52 0 0 1-.252.448l-5.994 4.483a.491.491 0 0 1-.502 0 .521.521 0 0 1-.252-.449v-8.964a.52.52 0 0 1 .251-.449z"/></g></svg><svg width="12" height="18" viewBox="-1 -1 12 18" id="i-ok" x="126" y="142" xmlns="http://www.w3.org/2000/svg"><path fill="#CCC" d="M4.18 11.27c-1.29-.13-2.455-.435-3.451-1.184C.605 9.993.477 9.903.364 9.8c-.436-.402-.48-.863-.135-1.339.296-.406.791-.515 1.307-.281.1.045.194.101.285.162 1.858 1.226 4.41 1.26 6.274.055.184-.136.382-.247.61-.304.446-.11.86.048 1.1.422.272.427.269.844-.067 1.175-.516.509-1.136.877-1.825 1.133-.652.243-1.365.365-2.071.446.106.112.157.166.223.23.96.926 1.922 1.848 2.878 2.777.326.316.394.708.214 1.076-.196.403-.634.667-1.065.639-.272-.018-.485-.149-.674-.331-.724-.7-1.46-1.387-2.17-2.1-.206-.207-.305-.168-.487.012-.728.72-1.468 1.43-2.213 2.134-.334.317-.731.374-1.119.193-.412-.192-.674-.596-.654-1.002.014-.274.155-.484.35-.672.95-.91 1.896-1.824 2.843-2.736.063-.06.121-.125.212-.218zm.787-3.171C2.664 8.09.775 6.257.788 4.04.802 1.8 2.691-.006 5.018 0c2.33.006 4.2 1.838 4.189 4.102-.012 2.212-1.914 4.004-4.24 3.997zM7.06 4.046c-.004-1.1-.916-1.977-2.06-1.978-1.152-.001-2.073.891-2.064 2.001.009 1.097.929 1.967 2.075 1.963 1.143-.004 2.053-.886 2.049-1.986z"/></svg><svg width="12" height="18" viewBox="-1 -1 12 18" id="i-ok-color" x="114" y="142" xmlns="http://www.w3.org/2000/svg"><path fill="#F5B44A" d="M4.18 11.27c-1.29-.13-2.455-.435-3.451-1.184C.605 9.993.477 9.903.364 9.8c-.436-.402-.48-.863-.135-1.339.296-.406.791-.515 1.307-.281.1.045.194.101.285.162 1.858 1.226 4.41 1.26 6.274.055.184-.136.382-.247.61-.304.446-.11.86.048 1.1.422.272.427.269.844-.068 1.175-.515.509-1.135.877-1.824 1.133-.652.243-1.365.365-2.071.446.106.112.157.166.223.23.96.926 1.922 1.848 2.878 2.777.326.316.394.708.214 1.076-.196.403-.634.667-1.065.639-.272-.018-.485-.149-.674-.331-.724-.7-1.46-1.387-2.17-2.1-.206-.207-.305-.168-.487.012-.728.72-1.468 1.43-2.213 2.134-.334.317-.731.374-1.119.193-.412-.192-.674-.596-.654-1.002.014-.274.155-.484.35-.672.95-.91 1.896-1.824 2.843-2.736.063-.06.121-.125.212-.218zm.787-3.171C2.664 8.09.775 6.257.788 4.04.802 1.8 2.691-.006 5.018 0c2.33.006 4.2 1.838 4.189 4.102-.012 2.212-1.914 4.004-4.24 3.997zM7.06 4.046c-.004-1.1-.916-1.977-2.06-1.978-1.152-.001-2.073.891-2.064 2.001.009 1.097.929 1.967 2.075 1.963 1.143-.004 2.053-.886 2.049-1.986z"/></svg><svg width="12" height="18" viewBox="-1 -1 12 18" id="i-ok_white" x="156" y="142" xmlns="http://www.w3.org/2000/svg"><path fill="#fff" d="M4.18 11.27c-1.29-.13-2.455-.435-3.451-1.184C.605 9.993.477 9.903.364 9.8c-.436-.402-.48-.863-.135-1.339.296-.406.791-.515 1.307-.281.1.045.194.101.285.162 1.858 1.226 4.41 1.26 6.274.055.184-.136.382-.247.61-.304.446-.11.86.048 1.1.422.272.427.269.844-.067 1.175-.516.509-1.136.877-1.825 1.133-.652.243-1.365.365-2.071.446.106.112.157.166.223.23.96.926 1.922 1.848 2.878 2.777.326.316.394.708.214 1.076-.196.403-.634.667-1.065.639-.272-.018-.485-.149-.674-.331-.724-.7-1.46-1.387-2.17-2.1-.206-.207-.305-.168-.487.012-.728.72-1.468 1.43-2.213 2.134-.334.317-.731.374-1.119.193-.412-.192-.674-.596-.654-1.002.014-.274.155-.484.35-.672.95-.91 1.896-1.824 2.843-2.736.063-.06.121-.125.212-.218zm.787-3.171C2.664 8.09.775 6.257.788 4.04.802 1.8 2.691-.006 5.018 0c2.33.006 4.2 1.838 4.189 4.102-.012 2.212-1.914 4.004-4.24 3.997zM7.06 4.046c-.004-1.1-.916-1.977-2.06-1.978-1.152-.001-2.073.891-2.064 2.001.009 1.097.929 1.967 2.075 1.963 1.143-.004 2.053-.886 2.049-1.986z"/></svg><svg width="52" height="52" viewBox="-1 -1 52 52" id="i-play-lg" x="142" y="18" xmlns="http://www.w3.org/2000/svg"><g fill="none" fill-rule="evenodd"><circle cx="25" cy="25" r="24" stroke="#FFF" stroke-width="2"/><path fill="#FFF" fill-rule="nonzero" d="M22.086 16.782a.818.818 0 0 1 .838 0l9.99 7.471c.259.154.42.439.42.747s-.16.593-.42.747l-9.99 7.471a.819.819 0 0 1-.838 0 .869.869 0 0 1-.42-.747V17.529c0-.308.16-.593.42-.747z"/></g></svg><svg width="142" height="142" viewBox="-1 -1 142 142" id="i-play-poster-lg" xmlns="http://www.w3.org/2000/svg"><g fill="none" fill-rule="evenodd"><circle cx="70" cy="70" r="70" fill="#070707" fill-opacity=".3"/><circle cx="70" cy="70" r="50" fill="#070707" fill-opacity=".4"/><path fill="#FFF" fill-rule="nonzero" d="M63.826 53.229a1.607 1.607 0 0 1 1.653 0l19.695 14.792c.51.305.826.87.826 1.48s-.315 1.173-.826 1.478L65.479 85.772a1.608 1.608 0 0 1-1.652 0 1.722 1.722 0 0 1-.827-1.48V54.708c0-.61.315-1.174.826-1.479z"/></g></svg><svg width="18" height="18" viewBox="-1 -1 18 18" id="i-search" x="168" y="142" xmlns="http://www.w3.org/2000/svg"><path fill="#FFF" d="M15.756 14.565l-3.874-3.958a6.368 6.368 0 0 0 1.542-4.15C13.424 2.896 10.476 0 6.853 0 3.229 0 .28 2.896.28 6.456c0 3.56 2.948 6.456 6.572 6.456a6.58 6.58 0 0 0 3.764-1.168l3.904 3.988a.858.858 0 0 0 .617.258.86.86 0 0 0 .594-.234.833.833 0 0 0 .024-1.191zM6.853 1.685c2.678 0 4.857 2.14 4.857 4.771s-2.18 4.772-4.857 4.772c-2.679 0-4.858-2.14-4.858-4.772 0-2.631 2.18-4.772 4.858-4.772z"/></svg><svg width="16" height="16" viewBox="-1 -1 16 16" id="i-star" x="28" y="188" xmlns="http://www.w3.org/2000/svg"><path fill="#D8D8D8" d="M7.14.53l1.735 4.106 4.441.382a.35.35 0 0 1 .2.613l-3.369 2.918 1.01 4.341a.35.35 0 0 1-.522.38L6.82 10.967l-3.817 2.301a.35.35 0 0 1-.521-.379l1.01-4.34L.12 5.63a.35.35 0 0 1 .2-.613l4.44-.382L6.496.531a.35.35 0 0 1 .645 0z"/></svg><svg width="22" height="21" viewBox="-1 -1 22 21" id="i-star-color" x="196" y="105" xmlns="http://www.w3.org/2000/svg"><path fill="#E8A427" d="M10.201.758l2.478 5.865 6.344.545a.5.5 0 0 1 .285.876l-4.812 4.169 1.442 6.202a.5.5 0 0 1-.745.541l-5.452-3.288-5.452 3.288a.5.5 0 0 1-.745-.541l1.442-6.202-4.813-4.17a.5.5 0 0 1 .285-.876l6.344-.545L9.28.758a.5.5 0 0 1 .921 0z"/></svg><svg width="23" height="23" viewBox="-1 -1 23 23" id="i-star-dis" x="196" xmlns="http://www.w3.org/2000/svg"><path fill="none" stroke="#979797" d="M11.201 1.758l2.478 5.865 6.344.545a.5.5 0 0 1 .285.876l-4.812 4.169 1.442 6.202a.5.5 0 0 1-.745.541l-5.452-3.288-5.452 3.288a.5.5 0 0 1-.745-.541l1.442-6.202-4.813-4.17a.5.5 0 0 1 .285-.876l6.344-.545 2.478-5.864a.5.5 0 0 1 .921 0z"/></svg><svg viewBox="-1 -1 514 514" width="14" height="14" id="i-tick" x="54" y="174" xmlns="http://www.w3.org/2000/svg"><path d="M504.502 75.496c-9.997-9.998-26.205-9.998-36.204 0L161.594 382.203 43.702 264.311c-9.997-9.998-26.205-9.997-36.204 0-9.998 9.997-9.998 26.205 0 36.203l135.994 135.992c9.994 9.997 26.214 9.99 36.204 0L504.502 111.7c9.998-9.997 9.997-26.206 0-36.204z" fill="#FFF"/></svg><svg width="18" height="14" viewBox="-1 -1 18 14" id="i-tw" x="18" y="174" xmlns="http://www.w3.org/2000/svg"><path fill="#CACACA" d="M16 1.42c-.589.24-1.22.404-1.885.477A3.1 3.1 0 0 0 15.558.222a6.96 6.96 0 0 1-2.086.735A3.405 3.405 0 0 0 11.077 0C9.264 0 7.794 1.357 7.794 3.03c0 .237.03.469.085.69C5.152 3.594 2.733 2.387 1.115.554A2.833 2.833 0 0 0 .67 2.077c0 1.052.58 1.98 1.46 2.522a3.492 3.492 0 0 1-1.487-.38v.038c0 1.467 1.132 2.692 2.632 2.971a3.584 3.584 0 0 1-.864.106c-.212 0-.417-.019-.618-.056.418 1.205 1.63 2.08 3.065 2.105a6.94 6.94 0 0 1-4.076 1.295c-.265 0-.526-.015-.783-.041A9.845 9.845 0 0 0 5.031 12c6.038 0 9.338-4.618 9.338-8.622l-.01-.393A6.303 6.303 0 0 0 16 1.42z"/></svg><svg width="18" height="14" viewBox="-1 -1 18 14" id="i-tw-color" x="36" y="174" xmlns="http://www.w3.org/2000/svg"><path fill="#7CBDF5" d="M16 1.42c-.589.24-1.22.404-1.885.477A3.1 3.1 0 0 0 15.558.222a6.96 6.96 0 0 1-2.086.735A3.405 3.405 0 0 0 11.077 0C9.264 0 7.794 1.357 7.794 3.03c0 .237.03.469.085.69C5.152 3.594 2.733 2.387 1.115.554A2.833 2.833 0 0 0 .67 2.077c0 1.052.58 1.98 1.46 2.522a3.492 3.492 0 0 1-1.487-.38v.038c0 1.467 1.132 2.692 2.632 2.971a3.584 3.584 0 0 1-.864.106c-.212 0-.417-.019-.618-.056.418 1.205 1.63 2.08 3.065 2.105a6.94 6.94 0 0 1-4.076 1.295c-.265 0-.526-.015-.783-.041A9.845 9.845 0 0 0 5.031 12c6.038 0 9.338-4.618 9.338-8.622l-.01-.393A6.303 6.303 0 0 0 16 1.42z"/></svg><svg width="18" height="14" viewBox="-1 -1 18 14" id="i-tw_white" y="174" xmlns="http://www.w3.org/2000/svg"><path fill="#fff" d="M16 1.42c-.589.24-1.22.404-1.885.477A3.1 3.1 0 0 0 15.558.222a6.96 6.96 0 0 1-2.086.735A3.405 3.405 0 0 0 11.077 0C9.264 0 7.794 1.357 7.794 3.03c0 .237.03.469.085.69C5.152 3.594 2.733 2.387 1.115.554A2.833 2.833 0 0 0 .67 2.077c0 1.052.58 1.98 1.46 2.522a3.492 3.492 0 0 1-1.487-.38v.038c0 1.467 1.132 2.692 2.632 2.971a3.584 3.584 0 0 1-.864.106c-.212 0-.417-.019-.618-.056.418 1.205 1.63 2.08 3.065 2.105a6.94 6.94 0 0 1-4.076 1.295c-.265 0-.526-.015-.783-.041A9.845 9.845 0 0 0 5.031 12c6.038 0 9.338-4.618 9.338-8.622l-.01-.393A6.303 6.303 0 0 0 16 1.42z"/></svg><svg width="16" height="16" viewBox="-1 -1 16 16" id="i-upload-img" x="96" y="188" xmlns="http://www.w3.org/2000/svg"><path fill="#F5B44A" fill-rule="evenodd" d="M12.6 2.8h.4a1 1 0 0 1 1 1V13a1 1 0 0 1-1 1H3.8a1 1 0 0 1-1-1v-.4h8.8a1 1 0 0 0 1-1V2.8zM1 0h9.2a1 1 0 0 1 1 1v9.2a1 1 0 0 1-1 1H1a1 1 0 0 1-1-1V1a1 1 0 0 1 1-1z"/></svg><svg width="10" height="16" viewBox="-1 -1 10 16" id="i-usa" x="112" y="188" xmlns="http://www.w3.org/2000/svg"><path d="M3.51 11.805c-.72-.05-1.302-.147-1.747-.293-.446-.145-.778-.277-.998-.397l.51-1.425c.32.16.707.305 1.163.435.455.13.972.195 1.552.195.69 0 1.167-.102 1.433-.308a.982.982 0 0 0 .397-.817c0-.23-.055-.43-.165-.6-.11-.17-.265-.32-.465-.45s-.437-.25-.713-.36c-.275-.11-.577-.225-.907-.345-.31-.11-.617-.235-.922-.375a3.652 3.652 0 0 1-.826-.518 2.387 2.387 0 0 1-.592-.742c-.15-.29-.225-.645-.225-1.065 0-.69.205-1.277.615-1.763.41-.485 1.04-.797 1.89-.937V.36h1.56v1.62c.48.04.91.107 1.29.203.38.095.68.187.9.277l-.375 1.485a9.508 9.508 0 0 0-1.027-.315c-.396-.1-.848-.15-1.358-.15-.54 0-.945.097-1.215.292a.937.937 0 0 0-.405.803c0 .2.04.367.12.502.08.136.2.255.36.36.16.106.355.205.585.3.23.096.49.193.78.293.41.16.797.327 1.163.502.365.176.682.38.952.615.27.236.482.513.638.833.155.32.232.7.232 1.14 0 .66-.205 1.23-.615 1.71-.41.48-1.085.79-2.025.93v1.875H3.51v-1.83z" fill="#fff" fill-rule="evenodd"/></svg><svg width="20" height="12" viewBox="-1 -1 20 12" id="i-vk" x="174" y="122" xmlns="http://www.w3.org/2000/svg"><path fill="#CACACA" d="M17.84 8.92c-.049-.08-.348-.713-1.788-2.014-1.508-1.363-1.305-1.142.51-3.498 1.107-1.435 1.549-2.311 1.41-2.686-.131-.357-.945-.263-.945-.263l-2.704.015s-.2-.026-.35.06c-.145.086-.239.283-.239.283s-.429 1.111-1 2.055c-1.205 1.993-1.688 2.098-1.885 1.974-.457-.288-.343-1.159-.343-1.776 0-1.932.3-2.737-.586-2.945C9.625.056 9.41.01 8.657.002 7.69-.008 6.873.006 6.41.226c-.308.147-.546.474-.4.493.178.023.583.106.798.39.278.368.268 1.194.268 1.194s.16 2.273-.372 2.555c-.366.194-.867-.201-1.941-2.01-.55-.925-.967-1.95-.967-1.95s-.08-.19-.222-.292C3.4.482 3.158.443 3.158.443L.586.458S.201.469.06.632c-.126.146-.01.446-.01.446s2.014 4.587 4.293 6.9c2.091 2.119 4.465 1.98 4.465 1.98h1.076s.325-.035.49-.21c.154-.16.148-.46.148-.46s-.021-1.405.65-1.612c.66-.204 1.508 1.358 2.407 1.96.68.454 1.196.355 1.196.355l2.404-.033s1.258-.076.662-1.039z"/></svg><svg width="20" height="12" viewBox="-1 -1 20 12" id="i-vk-color" x="174" y="102" xmlns="http://www.w3.org/2000/svg"><path fill="#6092D5" d="M17.84 8.92c-.049-.08-.348-.713-1.788-2.014-1.508-1.363-1.305-1.142.51-3.498 1.107-1.435 1.549-2.311 1.41-2.686-.131-.357-.945-.263-.945-.263l-2.704.015s-.2-.026-.35.06c-.145.086-.239.283-.239.283s-.429 1.111-1 2.055c-1.205 1.993-1.688 2.098-1.885 1.974-.457-.288-.343-1.159-.343-1.776 0-1.932.3-2.737-.586-2.945C9.625.056 9.41.01 8.657.002 7.69-.008 6.873.006 6.41.226c-.308.147-.546.474-.4.493.178.023.583.106.798.39.278.368.268 1.194.268 1.194s.16 2.273-.372 2.555c-.366.194-.867-.201-1.941-2.01-.55-.925-.967-1.95-.967-1.95s-.08-.19-.222-.292C3.4.482 3.158.443 3.158.443L.586.458S.201.469.06.632c-.126.146-.01.446-.01.446s2.014 4.587 4.293 6.9c2.091 2.119 4.465 1.98 4.465 1.98h1.076s.325-.035.49-.21c.154-.16.148-.46.148-.46s-.021-1.405.65-1.612c.66-.204 1.508 1.358 2.407 1.96.68.454 1.196.355 1.196.355l2.404-.033s1.258-.076.662-1.039z"/></svg><svg width="20" height="12" viewBox="-1 -1 20 12" id="i-vk_white" x="174" y="90" xmlns="http://www.w3.org/2000/svg"><path fill="#fff" d="M17.84 8.92c-.049-.08-.348-.713-1.788-2.014-1.508-1.363-1.305-1.142.51-3.498 1.107-1.435 1.549-2.311 1.41-2.686-.131-.357-.945-.263-.945-.263l-2.704.015s-.2-.026-.35.06c-.145.086-.239.283-.239.283s-.429 1.111-1 2.055c-1.205 1.993-1.688 2.098-1.885 1.974-.457-.288-.343-1.159-.343-1.776 0-1.932.3-2.737-.586-2.945C9.625.056 9.41.01 8.657.002 7.69-.008 6.873.006 6.41.226c-.308.147-.546.474-.4.493.178.023.583.106.798.39.278.368.268 1.194.268 1.194s.16 2.273-.372 2.555c-.366.194-.867-.201-1.941-2.01-.55-.925-.967-1.95-.967-1.95s-.08-.19-.222-.292C3.4.482 3.158.443 3.158.443L.586.458S.201.469.06.632c-.126.146-.01.446-.01.446s2.014 4.587 4.293 6.9c2.091 2.119 4.465 1.98 4.465 1.98h1.076s.325-.035.49-.21c.154-.16.148-.46.148-.46s-.021-1.405.65-1.612c.66-.204 1.508 1.358 2.407 1.96.68.454 1.196.355 1.196.355l2.404-.033s1.258-.076.662-1.039z"/></svg><svg width="54" height="18" viewBox="-1 -1 54 18" id="logo_white" x="142" xmlns="http://www.w3.org/2000/svg"><path fill="#FFF" fill-rule="evenodd" d="M8.828.439v2.348H5.663v13.015H3.165V2.787H0V.44h8.828zm8.936-.198C7.838.241 7.816 16 17.764 16c9.905 0 9.883-15.759 0-15.759zm0 13.279c6.524 0 6.524-10.777 0-10.777-6.503 0-6.524 10.777 0 10.777zM35.7 15.802L32.384 6.52l-3.294 9.283h-2.713L32.384 0l6.03 15.802H35.7zM51.957.44l-6.223 7.813L52 15.802h-3.294l-4.651-5.838-1.421 1.624v4.214h-2.52V.44h2.52v7.748L48.814.44h3.143z"/></svg></svg>