<svg width="42" height="46" viewBox="0 0 42 46" fill="none" xmlns="http://www.w3.org/2000/svg">
<path fill-rule="evenodd" clip-rule="evenodd" d="M7.875 17.1751C7.875 10.19 13.8154 4.625 21 4.625C28.1846 4.625 34.125 10.19 34.125 17.1751C34.125 21.1153 31.9961 25.9899 29.6625 30.203C27.2948 34.4791 24.5647 38.33 23.1026 40.3066C22.8609 40.6375 22.5445 40.9067 22.1791 41.0922C21.8138 41.2778 21.4098 41.3745 21 41.3745C20.5902 41.3745 20.1862 41.2778 19.8209 41.0922C19.4555 40.9067 19.1391 40.6375 18.8974 40.3066C17.4326 38.33 14.7052 34.4765 12.3375 30.2004C10.0039 25.9873 7.875 21.11 7.875 17.1725V17.1751ZM21 7.25C15.141 7.25 10.5 11.7598 10.5 17.1751C10.5 20.3776 12.3086 24.7246 14.6344 28.9273C16.9181 33.0564 19.5694 36.8023 21 38.7343C22.4306 36.8023 25.0793 33.059 27.3656 28.9299C29.6888 24.7325 31.5 20.3776 31.5 17.1751C31.5 11.7598 26.859 7.25 21 7.25Z" fill="#aba8a8"/>
<path fill-rule="evenodd" clip-rule="evenodd" d="M21 15.125C20.3038 15.125 19.6361 15.4016 19.1438 15.8938C18.6516 16.3861 18.375 17.0538 18.375 17.75C18.375 18.4462 18.6516 19.1139 19.1438 19.6062C19.6361 20.0984 20.3038 20.375 21 20.375C21.6962 20.375 22.3639 20.0984 22.8562 19.6062C23.3484 19.1139 23.625 18.4462 23.625 17.75C23.625 17.0538 23.3484 16.3861 22.8562 15.8938C22.3639 15.4016 21.6962 15.125 21 15.125V15.125ZM15.75 17.75C15.75 16.3576 16.3031 15.0223 17.2877 14.0377C18.2723 13.0531 19.6076 12.5 21 12.5C22.3924 12.5 23.7277 13.0531 24.7123 14.0377C25.6969 15.0223 26.25 16.3576 26.25 17.75C26.25 19.1424 25.6969 20.4777 24.7123 21.4623C23.7277 22.4469 22.3924 23 21 23C19.6076 23 18.2723 22.4469 17.2877 21.4623C16.3031 20.4777 15.75 19.1424 15.75 17.75Z" fill="#aba8a8"/>
</svg>
