<svg width="42" height="46" fill="none" xmlns="http://www.w3.org/2000/svg"><path fill-rule="evenodd" clip-rule="evenodd" d="M7.875 17.175c0-6.985 5.94-12.55 13.125-12.55s13.125 5.565 13.125 12.55c0 3.94-2.129 8.815-4.462 13.028-2.368 4.276-5.098 8.127-6.56 10.104a2.603 2.603 0 01-4.206 0c-1.464-1.977-4.192-5.83-6.56-10.107-2.333-4.213-4.462-9.09-4.462-13.027v.002zM21 7.25c-5.859 0-10.5 4.51-10.5 9.925 0 3.203 1.809 7.55 4.134 11.752 2.284 4.13 4.935 7.875 6.366 9.807 1.43-1.932 4.08-5.675 6.366-9.804 2.323-4.197 4.134-8.552 4.134-11.755 0-5.415-4.641-9.925-10.5-9.925z" fill="#000"/><path fill-rule="evenodd" clip-rule="evenodd" d="M21 15.125a2.625 2.625 0 100 5.25 2.625 2.625 0 000-5.25zm-5.25 2.625a5.25 5.25 0 1110.5 0 5.25 5.25 0 01-10.5 0z" fill="#000"/></svg>