<svg width="56" height="80" fill="none" xmlns="http://www.w3.org/2000/svg"><path fill-rule="evenodd" clip-rule="evenodd" d="M25.788.14c8.158-.87 16.94 2.354 21.941 9.12 2.37 3.317 4.316 6.961 5.526 10.872 2.44 7.503 2.884 15.314 2.712 23.165-.09 7.3-1.33 14.66-4.275 21.354-4.517 9.735-12.14 14.751-22.697 15.345-7.552.123-15.054-2.488-20.136-8.282C2.658 64.641.187 52.971.087 43.737c-.222-4.227.02-8.465.302-12.693.565-7.002 2.763-13.953 6.625-19.808C11.329 5.032 18.377.999 25.788.139Zm.404 3.787c-6.433.768-12.463 4.381-16.174 9.776-3.71 5.681-5.656 12.673-6.04 19.45-.342 5.63-.423 11.301.354 16.9 1.008 6.224 2.319 12.366 6.15 17.464 4.457 5.948 11.183 8.845 18.503 8.67 9.054-.603 15.215-4.903 19.228-13.092 1.472-3.245 2.43-6.705 3.096-10.196 1.16-5.65 1.059-11.455.877-17.197-.554-8.64-2.299-17.781-7.915-24.61-4.336-5.271-11.404-7.871-18.08-7.165Zm1.35 4.504A171.334 171.334 0 0 1 19.9 26.468c-.575 1.188-1.23 2.375-2.208 3.266-.575.542-1.372.675-2.118.798l-.09.573c3.105-.01 6.21-.01 9.316 0 0-.143 0-.44-.01-.583-.857-.164-1.845-.307-2.37-1.106.172-2.129 1.12-4.105 1.906-6.06 2.48.01 4.961-.02 7.442.133a176.18 176.18 0 0 1 1.573 4.412c.242.655.272 1.505-.283 2.007-.494.48-1.23.327-1.855.378-.03.267-.05.533-.08.81 3.135-.011 6.261-.011 9.397 0a18.58 18.58 0 0 1-.141-.728 4.116 4.116 0 0 1-3.156-2.19C33.774 21.85 31.042 15.167 28.47 8.43a2.775 2.775 0 0 0-.303-.532c-.403-.144-.534.235-.625.532Zm-2.711 13.461c2.137-.01 4.275.052 6.412-.04-1.089-2.785-2.117-5.6-3.277-8.364-.978 2.825-2.107 5.6-3.135 8.404ZM10.855 35.026c-2.127 1.771-3.045 5.21-1.411 7.606 1.593 2.16 4.104 3.255 6.302 4.606 1.502.86 3.146 1.71 4.093 3.245.757 1.26.686 3.04-.342 4.116-.958.952-2.33 1.443-3.66 1.423a8.435 8.435 0 0 1-4.457-1.68c-.898-.716-1.362-1.79-1.926-2.763-.343.9-.555 1.832-.746 2.784.796.84 1.855 1.382 2.873 1.894 2.511 1.116 5.526 1.607 8.097.41 1.553-.686 2.632-2.13 3.297-3.665.696-1.659.323-3.624-.635-5.098-1.069-1.587-2.702-2.672-4.356-3.552-1.825-.901-3.62-1.915-5.243-3.174-.887-.706-1.634-1.77-1.553-2.958.212-1.556 1.492-2.897 3.035-3.153 1.482-.266 3.136.082 4.295 1.095.666.563.958 1.413 1.12 2.242.504-.665 1.119-1.27 1.472-2.027-1.13-1.238-2.571-2.242-4.215-2.58-2.057-.399-4.366-.132-6.04 1.229Zm12.624 6.203-.04.625c.787.072 1.664.02 2.32.543.493.511.493 1.29.554 1.965.02 5.702-.02 11.414.03 17.126.01 1.085-.131 2.354-.998 3.102-.585.43-1.361.378-2.057.378v.635h8.984c0-.266.01-.522.02-.778-.867-.01-1.865-.061-2.51-.727-.364-.593-.414-1.32-.485-1.996-.02-2.784 0-5.579-.01-8.363 3.076-.02 6.14.04 9.216.04.02.81.03 1.628.06 2.437-.03.491-.03.983 0 1.484-.06 1.546 0 3.102-.03 4.648-.01.716-.191 1.474-.665 2.027-.595.573-1.472.522-2.228.604-.01.153-.04.47-.05.624 2.984.01 5.978-.01 8.973 0-.01-.194-.02-.573-.03-.757-.807-.01-1.704-.052-2.34-.615-.544-.624-.655-1.504-.655-2.313V55.15c-.181-3.45-.03-6.9-.1-10.349 0-.952.221-2.068 1.058-2.63.585-.42 1.351-.267 2.017-.287.01-.144.04-.43.06-.574-2.974.01-5.959-.01-8.933.01 0 .144-.01.43-.01.574.847 0 1.895-.103 2.49.645.403.737.383 1.627.393 2.457-.02 2.293.02 4.575.02 6.868h-9.236c0-2.497.01-5.005 0-7.503-.03-.717.162-1.464.646-2.007.635-.603 1.552-.44 2.339-.45 0-.174.01-.512.01-.686-2.934.03-5.878.01-8.813.01Z" fill="#000"/></svg>