<svg width="100" height="71" fill="none" xmlns="http://www.w3.org/2000/svg"><mask id="a" fill="#fff"><path d="M98.748 56.417a3.25 3.25 0 00-.498-.314l-.749-5.25c-.578-4.051-4.066-7.092-8.125-7.092h-.05c-5.709.038-14.21-.506-22.813-3.212a1.569 1.569 0 00-.503-1.729L49.754 25.794l-4.9-24.534A1.566 1.566 0 0043.32-.001c-.239 0-5.891.065-9.653 5.717a1.558 1.558 0 00-.185.386 6.311 6.311 0 00-2.083.18c-3.58.949-14.91 4.821-14.91 4.821-1.204.402-2.46.607-3.73.607H8.247c-3.626 0-6.576 2.955-6.576 6.587v33.98a3.3 3.3 0 00-.708.534A3.225 3.225 0 000 55.115v11.697a3.242 3.242 0 003.236 3.241h26.722a3.242 3.242 0 003.236-3.241v-.781c1.781.265 3.55.537 5.274.802 10.773 1.656 20.949 3.22 33.244 3.22 13.42 0 22.598-2.128 25.921-3.042A3.24 3.24 0 00100 63.888v-4.904a3.228 3.228 0 00-1.252-2.567zm-9.403-9.519h.03c2.51 0 4.668 1.886 5.026 4.398l.68 4.767c-4.249 1.02-12.292 2.489-23.37 2.489-12.04 0-22.086-1.545-32.722-3.182a1701.08 1701.08 0 00-3.259-.499c3.199-2.939 10.287-7.553 21.807-5.42 1.985.367 4.022-.56 5.069-2.309l2.288-3.82c9.22 3.017 18.368 3.612 24.451 3.576zM42.072 3.314l3.88 19.433-4.582-3.671-1.997-8.001a6.54 6.54 0 00-2.858-3.963c1.845-2.56 4.157-3.474 5.556-3.798zM4.801 18.297a3.452 3.452 0 013.444-3.45h4.513c1.607 0 3.195-.259 4.72-.768l11.292-3.77 1.394 6.983a5.111 5.111 0 01-1.06 4.253 5.093 5.093 0 01-3.956 1.875H13.257c-3.333 0-6.34 1.419-8.455 3.683v-8.806zm0 16.73c0-4.67 3.793-8.47 8.455-8.47H25.15a8.211 8.211 0 006.377-3.023 8.242 8.242 0 001.709-6.857l-1.45-7.26.372-.092a3.418 3.418 0 012.608.389 3.43 3.43 0 011.57 2.121l2.124 8.515c.083.333.273.63.541.844l6.057 4.854-2.845 2.85a1.57 1.57 0 001.107 2.678c.4 0 .801-.154 1.107-.46l3.091-3.097 1.87 1.499-2.722 2.726a1.57 1.57 0 001.107 2.678c.4 0 .802-.153 1.107-.46l2.968-2.973 1.87 1.499-2.598 2.602a1.57 1.57 0 001.107 2.678c.4 0 .801-.153 1.107-.46l2.844-2.849 1.87 1.498-2.475 2.48a1.57 1.57 0 001.107 2.677c.4 0 .802-.153 1.107-.46l2.72-2.725 2.477 1.985-3.064 5.115a1.76 1.76 0 01-1.815.837c-3.92-.726-17.38-2.293-26.19 7.937-8.235-1.197-16.955-2.228-27.114-2.412V35.026zm92.067 28.861c0 .048-.027.087-.065.098-3.201.881-12.053 2.93-25.092 2.93-12.056 0-22.117-1.546-32.769-3.183a848.667 848.667 0 00-7.09-1.07 1.564 1.564 0 00-1.79 1.552v2.597a.104.104 0 01-.104.105H3.236a.104.104 0 01-.104-.105V55.116c0-.028.011-.053.034-.076a.117.117 0 01.08-.035c13.583.13 24.608 1.826 35.268 3.466 10.757 1.655 20.917 3.218 33.198 3.218 12.252 0 20.947-1.76 25.04-2.809a.081.081 0 01.076.015c.04.032.04.073.04.09v4.903z"/></mask><path d="M98.748 56.417a3.25 3.25 0 00-.498-.314l-.749-5.25c-.578-4.051-4.066-7.092-8.125-7.092h-.05c-5.709.038-14.21-.506-22.813-3.212a1.569 1.569 0 00-.503-1.729L49.754 25.794l-4.9-24.534A1.566 1.566 0 0043.32-.001c-.239 0-5.891.065-9.653 5.717a1.558 1.558 0 00-.185.386 6.311 6.311 0 00-2.083.18c-3.58.949-14.91 4.821-14.91 4.821-1.204.402-2.46.607-3.73.607H8.247c-3.626 0-6.576 2.955-6.576 6.587v33.98a3.3 3.3 0 00-.708.534A3.225 3.225 0 000 55.115v11.697a3.242 3.242 0 003.236 3.241h26.722a3.242 3.242 0 003.236-3.241v-.781c1.781.265 3.55.537 5.274.802 10.773 1.656 20.949 3.22 33.244 3.22 13.42 0 22.598-2.128 25.921-3.042A3.24 3.24 0 00100 63.888v-4.904a3.228 3.228 0 00-1.252-2.567zm-9.403-9.519h.03c2.51 0 4.668 1.886 5.026 4.398l.68 4.767c-4.249 1.02-12.292 2.489-23.37 2.489-12.04 0-22.086-1.545-32.722-3.182a1701.08 1701.08 0 00-3.259-.499c3.199-2.939 10.287-7.553 21.807-5.42 1.985.367 4.022-.56 5.069-2.309l2.288-3.82c9.22 3.017 18.368 3.612 24.451 3.576zM42.072 3.314l3.88 19.433-4.582-3.671-1.997-8.001a6.54 6.54 0 00-2.858-3.963c1.845-2.56 4.157-3.474 5.556-3.798zM4.801 18.297a3.452 3.452 0 013.444-3.45h4.513c1.607 0 3.195-.259 4.72-.768l11.292-3.77 1.394 6.983a5.111 5.111 0 01-1.06 4.253 5.093 5.093 0 01-3.956 1.875H13.257c-3.333 0-6.34 1.419-8.455 3.683v-8.806zm0 16.73c0-4.67 3.793-8.47 8.455-8.47H25.15a8.211 8.211 0 006.377-3.023 8.242 8.242 0 001.709-6.857l-1.45-7.26.372-.092a3.418 3.418 0 012.608.389 3.43 3.43 0 011.57 2.121l2.124 8.515c.083.333.273.63.541.844l6.057 4.854-2.845 2.85a1.57 1.57 0 001.107 2.678c.4 0 .801-.154 1.107-.46l3.091-3.097 1.87 1.499-2.722 2.726a1.57 1.57 0 001.107 2.678c.4 0 .802-.153 1.107-.46l2.968-2.973 1.87 1.499-2.598 2.602a1.57 1.57 0 001.107 2.678c.4 0 .801-.153 1.107-.46l2.844-2.849 1.87 1.498-2.475 2.48a1.57 1.57 0 001.107 2.677c.4 0 .802-.153 1.107-.46l2.72-2.725 2.477 1.985-3.064 5.115a1.76 1.76 0 01-1.815.837c-3.92-.726-17.38-2.293-26.19 7.937-8.235-1.197-16.955-2.228-27.114-2.412V35.026h0zm92.067 28.861c0 .048-.027.087-.065.098-3.201.881-12.053 2.93-25.092 2.93-12.056 0-22.117-1.546-32.769-3.183a848.667 848.667 0 00-7.09-1.07 1.564 1.564 0 00-1.79 1.552v2.597a.104.104 0 01-.104.105H3.236a.104.104 0 01-.104-.105V55.116c0-.028.011-.053.034-.076a.117.117 0 01.08-.035c13.583.13 24.608 1.826 35.268 3.466 10.757 1.655 20.917 3.218 33.198 3.218 12.252 0 20.947-1.76 25.04-2.809a.081.081 0 01.076.015c.04.032.04.073.04.09v4.903h0z" fill="#000" stroke="#fff" stroke-width="1.2" mask="url(#a)"/></svg>