<svg width="36" height="41" fill="none" xmlns="http://www.w3.org/2000/svg"><path d="M34.388 16.842c0 3.7-1.318 7.24-3.238 9.849-1.937 2.63-4.385 4.188-6.588 4.188-2.22 0-4.67-1.488-6.6-3.984-1.915-2.477-3.227-5.837-3.227-9.35 0-6.998 5.194-11.23 9.826-11.23 2.364 0 4.82.823 6.68 2.534 1.845 1.698 3.147 4.313 3.147 7.993Z" stroke="#000" stroke-width="1.4"/><path d="M20.353 11.228c0 3.7-1.318 7.24-3.238 9.848-1.937 2.631-4.385 4.189-6.589 4.189-2.219 0-4.668-1.489-6.599-3.984C2.012 18.804.7 15.443.7 11.93.7 4.933 5.894.7 10.526.7c2.364 0 4.82.824 6.679 2.534 1.846 1.699 3.148 4.313 3.148 7.994Z" fill="#fff" stroke="#000" stroke-width="1.4"/><path d="M24.067 40.495a.7.7 0 1 0 .99-.99l-.99.99Zm-13.54-12.424v-.7.7Zm-.626 11.616a.7.7 0 1 0 1.252.627l-1.252-.627Zm2.42-12.859-.678.17.679-.17Zm-.97 1.243v.7-.7Zm14.593 4.166-.626.314.626-.314ZM9.703 28.071v.7-.7Zm-1.258-2.977-.392 1.564 1.359.34.39-1.565-1.357-.34ZM13 26.658l-.391-1.564-1.358.34.39 1.564 1.359-.34Zm8.777 4.05-.391 1.564 1.358.34.391-1.565-1.358-.34Zm4.792 1.216-.68-1.36-1.252.627.68 1.36 1.252-.627Zm-3.534 2.46h1.175v-1.4h-1.175v1.4Zm1.175 0h.838v-1.4h-.838v1.4Zm-.573-1.1a6.533 6.533 0 0 0-1.098 3.1c-.104 1.323.238 2.822 1.527 4.111l.99-.99c-.956-.955-1.199-2.03-1.121-3.011.079-1.007.499-1.907.849-2.408l-1.147-.803ZM9.703 28.77h.824v-1.4h-.824v1.4Zm.824 0h.825v-1.4h-.825v1.4Zm-.6-1.06a7.664 7.664 0 0 0-.99 2.892c-.137 1.171.048 2.53 1.095 3.577l.99-.99c-.637-.637-.803-1.5-.694-2.424a6.268 6.268 0 0 1 .8-2.335l-1.201-.72Zm.105 6.469c.624.623.807 1.59.694 2.696-.113 1.092-.503 2.168-.825 2.812l1.252.626c.38-.76.832-2 .965-3.294.132-1.28-.035-2.77-1.096-3.83l-.99.99Zm11.355-1.908a1.7 1.7 0 0 0 1.649 2.113v-1.4a.3.3 0 0 1-.291-.373l-1.358-.34Zm-9.744-5.274a.3.3 0 0 1-.291.373v1.4A1.7 1.7 0 0 0 13 26.658l-1.358.34Zm13.675 5.553a.3.3 0 0 1-.269.434v1.4a1.7 1.7 0 0 0 1.521-2.46l-1.252.626ZM8.053 26.658a1.7 1.7 0 0 0 1.65 2.113v-1.4a.3.3 0 0 1-.291-.373l-1.359-.34Z" fill="#000"/><path d="M4.91 11.229c-.235 2.339.56 7.438 5.613 9.122M21.08 21.053c-.175 1.44.418 4.577 4.183 5.614" stroke="#000" stroke-width="1.4" stroke-linecap="round" stroke-linejoin="round"/></svg>
