<svg width="40" height="40" fill="none" xmlns="http://www.w3.org/2000/svg"><path d="m31.556 9.255-.241.32h5.17a3.32 3.32 0 0 1 3.315 3.316v2.343c0 1.44-.924 2.67-2.21 3.126l-.134.047V36.484a3.32 3.32 0 0 1-3.315 3.316H5.859a3.32 3.32 0 0 1-3.315-3.316V18.408l-.133-.048A3.321 3.321 0 0 1 .2 15.234v-2.343a3.32 3.32 0 0 1 3.316-3.316h5.169l-.24-.32a5.629 5.629 0 0 1-1.136-3.396C7.31 2.74 9.85.2 12.97.2c1.886 0 3.261.67 4.357 2.115.93 1.226 1.613 2.945 2.488 5.163L20 7.95l.186-.472c.875-2.218 1.559-3.937 2.488-5.163C23.77.87 25.145.2 27.031.2c3.12 0 5.66 2.539 5.66 5.66a5.629 5.629 0 0 1-1.135 3.395Zm-9.591-.99.186.074-.186-.073c-.13.328-.266.675-.41 1.035l-.109.274h5.585a3.72 3.72 0 0 0 3.716-3.716 3.72 3.72 0 0 0-3.716-3.715c-.62 0-1.145.093-1.61.316-.465.223-.856.57-1.218 1.054-.715.956-1.344 2.484-2.238 4.752Zm-3.93 0-.186.074.186-.073c-.894-2.268-1.523-3.796-2.238-4.752-.362-.484-.753-.83-1.218-1.054-.465-.223-.99-.316-1.61-.316a3.72 3.72 0 0 0-3.716 3.715 3.72 3.72 0 0 0 3.716 3.716h5.585l-.11-.274-.409-1.035Zm-2.723 29.591h.2V18.55H4.489v17.934c0 .757.615 1.372 1.371 1.372h9.454Zm0-21.25h.2V11.52H3.517c-.757 0-1.372.615-1.372 1.372v2.343c0 .757.615 1.372 1.372 1.372h11.796Zm7.232 21.25V11.52H17.456v26.337h5.088Zm1.944-.2v.2H34.14c.756 0 1.372-.615 1.372-1.372V18.55H24.487V37.656Zm0-21.25v.2H36.483c.757 0 1.372-.615 1.372-1.372v-2.343c0-.757-.615-1.372-1.372-1.372H24.487V16.406Z" fill="#000" stroke="#fff" stroke-width=".4"/></svg>
