<svg width="41" height="42" viewBox="0 0 41 42" fill="none" xmlns="http://www.w3.org/2000/svg">
    <path d="M12.6364 28.6364L28.6364 12.6364M2.59945 28.0704L6.73696 30.369C7.24986 30.654 7.61177 31.1498 7.72684 31.7251L8.59933 36.0876C8.81922 37.187 9.89983 37.8909 10.9944 37.6477L14.5693 36.8533C15.1838 36.7167 15.8267 36.8775 16.3047 37.2872L19.447 39.9805C20.1455 40.5793 21.1624 40.6243 21.9111 40.0895L25.2057 37.7362C25.5449 37.4939 25.9514 37.3636 26.3682 37.3636H31.7273C32.8318 37.3636 33.7273 36.4682 33.7273 35.3636V31.995C33.7273 31.2687 34.1211 30.5994 34.756 30.2467L38.6733 28.0704C39.5787 27.5674 39.9503 26.4563 39.5296 25.5098L37.747 21.4989C37.5043 20.9527 37.5185 20.3267 37.7857 19.7922L39.4594 16.4448C39.9206 15.5225 39.605 14.4008 38.7306 13.8543L35.0936 11.5813C34.6817 11.3238 34.3776 10.9252 34.238 10.46L32.7519 5.50631C32.4744 4.58119 31.5753 3.98658 30.6154 4.09324L26.4879 4.55185C25.9981 4.60627 25.5055 4.47797 25.1045 4.19155L21.7988 1.83034C21.1034 1.33363 20.1693 1.33363 19.4739 1.83034L16.067 4.26383C15.7278 4.50612 15.3214 4.63636 14.9045 4.63636H10.0628C9.04371 4.63636 8.18759 5.40263 8.07505 6.4155L7.65946 10.1557C7.58794 10.7994 7.20914 11.3687 6.64298 11.6832L2.67395 13.8882C1.73792 14.4082 1.37752 15.5732 1.85638 16.5309L3.48699 19.7922C3.75426 20.3267 3.76848 20.9527 3.52576 21.4989L1.74311 25.5098C1.32245 26.4563 1.69402 27.5674 2.59945 28.0704Z" stroke="black" stroke-width="1.4" stroke-linecap="round" stroke-linejoin="round"/>
    <circle r="2.15455" transform="matrix(-1 0 0 1 15.5455 14.0913)" stroke="black" stroke-width="1.4"/>
    <circle r="2.15455" transform="matrix(-1 0 0 1 25.7271 27.1821)" stroke="black" stroke-width="1.4"/>
</svg>