<svg xmlns="http://www.w3.org/2000/svg" width="21" height="20">
    <path fill="#53C3D0" fill-rule="evenodd" d="M17.113 17.065a9.978 9.978 0 0 1-7.08 2.929 9.978 9.978 0 0 1-7.08-2.929A9.95 9.95 0 0 1 .02 9.984a9.953 9.953 0 0 1 2.933-7.082c3.903-3.905 10.257-3.905 14.16 0 3.904 3.905 3.904 10.259 0 14.163zM16.016 3.999c-3.299-3.3-8.668-3.301-11.967 0a8.41 8.41 0 0 0-2.478 5.985c0 2.261.88 4.386 2.478 5.984 3.299 3.301 8.668 3.301 11.967 0 3.299-3.299 3.299-8.669 0-11.969zm-2.64 9.226a.773.773 0 0 1-1.098.001l-2.197-2.195-2.197 2.195a.776.776 0 0 1-1.097-1.098l2.196-2.193-2.196-2.193a.776.776 0 0 1 1.097-1.098l2.197 2.195 2.197-2.195a.777.777 0 0 1 1.097 1.098l-2.196 2.193 2.196 2.193a.776.776 0 0 1 .001 1.097z"/>
</svg>
