<svg xmlns="http://www.w3.org/2000/svg" width="16" height="16">
    <path fill="#FFF" fill-rule="evenodd" d="M8 4.122a3.882 3.882 0 0 0-3.877 3.877A3.882 3.882 0 0 0 8 11.877a3.875 3.875 0 0 0 3.255-1.776c.506.46 1.178.742 1.914.742a2.846 2.846 0 0 0 2.843-2.844c0-4.418-3.594-8.012-8.012-8.012-4.419 0-8.013 3.594-8.013 8.012 0 4.419 3.594 8.013 8.013 8.013 2.14 0 4.152-.833 5.666-2.346l-1.097-1.097A6.418 6.418 0 0 1 8 14.462a6.47 6.47 0 0 1-6.463-6.463A6.47 6.47 0 0 1 8 1.538a6.468 6.468 0 0 1 6.461 6.461c0 .713-.579 1.293-1.292 1.293-.712 0-1.292-.58-1.292-1.293A3.882 3.882 0 0 0 8 4.122zm0 6.204a2.33 2.33 0 0 1-2.327-2.327A2.33 2.33 0 0 1 8 5.673a2.33 2.33 0 0 1 2.326 2.326A2.33 2.33 0 0 1 8 10.326z"/>
</svg>
