<svg xmlns="http://www.w3.org/2000/svg" width="16" height="16">
    <path fill="#FFF" fill-rule="evenodd" d="M10.999 15.999h-6a5 5 0 0 1-5-5v-6c0-2.76 2.239-5 5-5h6c2.761 0 5 2.24 5 5v6a5 5 0 0 1-5 5zm3.5-11c0-1.93-1.57-3.5-3.5-3.5h-6c-1.93 0-3.5 1.57-3.5 3.5v6c0 1.93 1.57 3.5 3.5 3.5h6c1.93 0 3.5-1.57 3.5-3.5v-6zm-2.2-.767a.533.533 0 1 1 0-1.066.533.533 0 0 1 0 1.066zm-4.3 7.767a4 4 0 1 1 0-8 4 4 0 0 1 0 8zm0-6.5a2.503 2.503 0 0 0-2.5 2.5c0 1.378 1.122 2.5 2.5 2.5s2.5-1.122 2.5-2.5c0-1.379-1.122-2.5-2.5-2.5z"/>
</svg>
