<svg xmlns="http://www.w3.org/2000/svg" width="41" height="46">
    <path fill="#FFF" fill-rule="evenodd" d="M39.13 45.997v-.919a4.662 4.662 0 0 0-4.082-4.669l-8.381-1.043a2.798 2.798 0 0 1-2.447-2.797v-3.681a10.675 10.675 0 0 1-3.725.676c-1.308 0-2.556-.244-3.715-.673v3.638a2.792 2.792 0 0 1-2.445 2.789l-8.382 1.044a4.66 4.66 0 0 0-4.083 4.662v.973H.006v-.966a6.521 6.521 0 0 1 5.716-6.518l.803-.1V21.089a3.703 3.703 0 0 1-.931-2.441c0-.938.359-1.785.931-2.441v-2.22c0-7.711 6.267-13.984 13.97-13.984s13.97 6.273 13.97 13.984v2.221c.572.655.931 1.503.931 2.44s-.359 1.785-.931 2.441v17.368l.813.102a6.523 6.523 0 0 1 5.715 6.525v.913H39.13zm-13.047-9.421a.933.933 0 0 0 .815.939l5.704.71v-15.98a3.672 3.672 0 0 1-.931.132h-.454l-.06.989a10.637 10.637 0 0 1-5.074 8.616v4.594zM8.388 38.181l5.716-.712a.933.933 0 0 0 .813-.933v-4.549a10.659 10.659 0 0 1-5.085-8.637l-.059-.973h-.454c-.323 0-.631-.054-.931-.132v15.936zm-.931-19.533c0 1.028.835 1.864 1.862 1.864h.34l-.228-3.729h-.112a1.866 1.866 0 0 0-1.862 1.865zM19.563 1.914c-6.24.48-11.175 5.705-11.175 12.073v1.064c.299-.078.608-.132.931-.132h.598l9.646-7.901V1.914zm-8.3 14.312l.429 7.027a8.803 8.803 0 0 0 8.803 8.447 8.799 8.799 0 0 0 8.802-8.432l.43-7.042-9.232-7.561-9.232 7.561zm21.339-2.239c0-6.368-4.935-11.594-11.176-12.073v5.105l9.646 7.9h.599c.323 0 .632.054.931.132v-1.064zm-.931 2.796h-.112l-.228 3.73h.34a1.867 1.867 0 0 0 1.863-1.865 1.867 1.867 0 0 0-1.863-1.865zm-5.588 2.797a1.864 1.864 0 1 1 .001-3.727 1.864 1.864 0 0 1-.001 3.727zm-6.743 7.458h-.708v-1.864h.711a7.905 7.905 0 0 0 3.529-.835l.834 1.668a9.788 9.788 0 0 1-4.363 1.031h-.003zm1.792-3.776l-2.794-.932a.934.934 0 0 1-.539-1.302l1.863-3.729 1.667.834-1.383 2.768 1.775.592-.589 1.769zm-6.225-3.682a1.864 1.864 0 1 1 .001-3.727 1.864 1.864 0 0 1-.001 3.727zm7.89 16.465h-4.703v-1.294h4.703v1.294zm0 1.977h-4.703v-1.294h4.703v1.294zm0 2.084h-4.703v-1.33h4.703v1.33z"/>
</svg>
