<svg xmlns="http://www.w3.org/2000/svg" width="44" height="41">
    <path fill="#FFF" fill-rule="evenodd" d="M39.662 22.664L21.797 40.508 4.457 23.19h3.066l14.274 14.256L38.13 21.133c4.225-4.219 4.225-11.087 0-15.306a10.774 10.774 0 0 0-7.664-3.17c-2.641 0-5.113.978-7.085 2.696l-1.584 1.48-1.584-1.479c-1.972-1.719-4.444-2.697-7.086-2.697a10.772 10.772 0 0 0-7.663 3.17c-2.943 2.939-3.788 7.15-2.632 10.869H.578C-.521 12.398.564 7.66 3.931 4.296A12.975 12.975 0 0 1 13.127.492c3.114 0 6.202 1.155 8.67 3.376C24.264 1.647 27.352.492 30.466.492c3.328 0 6.657 1.268 9.196 3.804 5.078 5.073 5.078 13.296 0 18.368zM1.206 18.858h7.935l4.064-10.143a1.084 1.084 0 1 1 2.064.167L18.677 24.2l3.162-11.052a1.08 1.08 0 0 1 1.018-.784c.466-.065.902.289 1.052.74l1.92 5.754h7.889a1.082 1.082 0 1 1-.001 2.165h-8.669c-.466 0-.881-.298-1.029-.74l-1.058-3.174-3.374 11.789a1.083 1.083 0 0 1-1.041.785h-.032a1.085 1.085 0 0 1-1.027-.848l-3.573-16.062-3.033 7.57a1.078 1.078 0 0 1-1.005.68h-8.67a1.083 1.083 0 1 1 0-2.165z"/>
</svg>
