<svg xmlns="http://www.w3.org/2000/svg" width="46" height="41">
    <path fill="#FFF" fill-rule="evenodd" d="M44.602 7.735a1.094 1.094 0 0 1-1.497-.387 9.21 9.21 0 0 0-.877-1.241A9.04 9.04 0 0 0 29.65 4.794a1.093 1.093 0 1 1-1.352-1.719A11.21 11.21 0 0 1 36.424.727a11.202 11.202 0 0 1 7.481 3.976c.402.48.768.997 1.085 1.535a1.094 1.094 0 0 1-.388 1.497zm-14.914 5.276a9.21 9.21 0 0 0 1.404 1.018c.82.484 1.7.829 2.606 1.033l.024.005a9.143 9.143 0 0 0 5.571-.51l.047-.021a9.045 9.045 0 0 0 2.401-1.525l.014-.012a1.28 1.28 0 0 1 .069-.055l.02-.013a.854.854 0 0 1 .071-.045c.008-.006.017-.01.025-.014a.638.638 0 0 1 .101-.049l.066-.026.037-.011a.744.744 0 0 1 .063-.018l.041-.008a.698.698 0 0 1 .063-.012l.041-.005.064-.005h.04l.065.001c.013 0 .026.002.038.003.023.001.045.004.067.007l.037.007.066.013.038.011c.021.006.042.012.062.02a.72.72 0 0 1 .097.039l.048.024.045.025.052.033.039.026.051.041c.009.008.019.014.027.022a.174.174 0 0 0 .021.018 11.379 11.379 0 0 1 1.741 1.946 1.091 1.091 0 0 1-.892 1.723c-.344 0-.681-.161-.895-.462a9.169 9.169 0 0 0-.768-.946c-.369.271-.75.514-1.142.734.205.446.381.905.527 1.374a1.094 1.094 0 0 1-2.09.647 9.104 9.104 0 0 0-.438-1.137c-.432.141-.871.255-1.314.344.057.488.084.979.077 1.47a1.094 1.094 0 0 1-1.093 1.079h-.015a1.095 1.095 0 0 1-1.079-1.108 9.044 9.044 0 0 0-.066-1.22l-.047.001c-.437 0-.874-.028-1.308-.078-.096.482-.223.958-.381 1.423a1.095 1.095 0 0 1-2.071-.704c.131-.384.235-.778.313-1.177a11.21 11.21 0 0 1-1.265-.492c-.241.427-.508.84-.801 1.233a1.094 1.094 0 0 1-1.752-1.309c.243-.326.464-.669.662-1.024a11.215 11.215 0 0 1-.872-.696 1.093 1.093 0 1 1 1.448-1.638zM26.909 23.11l-1.358.563a1.092 1.092 0 0 1-.837-2.021l1.359-.562a1.093 1.093 0 0 1 .836 2.02zm3.662 7.866c1.013 1.048 1.891 1.954 2.89 1.987.274-.05.489-.162.683-.357a1.094 1.094 0 0 1 1.547 1.547c-.63.63-1.33.909-2.062.994h-.003c-.92.105-1.892-.095-2.846-.292-.91-.188-1.851-.382-2.874-.382-.764 0-1.295.329-1.968.745-.778.481-1.66 1.027-2.94 1.027-1.281 0-2.163-.546-2.941-1.027-.673-.416-1.205-.745-1.968-.745-1.023 0-1.964.194-2.874.382-.954.197-1.926.397-2.845.292h-.005a3.354 3.354 0 0 1-2.061-.994 1.094 1.094 0 0 1 1.547-1.547c.194.195.409.307.684.357.998-.033 1.876-.939 2.889-1.987 1.665-1.723 3.915-4.049 7.574-2.012 3.658-2.037 5.907.289 7.573 2.012zm-8.177.18c-2.322-1.535-3.43-.681-5.233 1.171.3-.026.609-.041.928-.041 1.385 0 2.346.594 3.119 1.072.632.391 1.131.7 1.79.7.658 0 1.157-.309 1.789-.7.772-.478 1.733-1.072 3.118-1.072.32 0 .629.015.929.041-1.804-1.852-2.912-2.706-5.234-1.171-.366.242-.84.242-1.206 0zm-1.532-7.4c-.14 0-.281-.026-.418-.083l-1.359-.563a1.093 1.093 0 1 1 .837-2.021l1.359.563a1.094 1.094 0 0 1-.419 2.104zm-3.975-8.411c.198.356.419.698.663 1.024a1.094 1.094 0 0 1-1.752 1.309 11.21 11.21 0 0 1-.801-1.233c-.414.19-.836.355-1.266.493.078.398.183.792.314 1.177a1.094 1.094 0 0 1-2.071.703 11.299 11.299 0 0 1-.382-1.422c-.434.05-.87.077-1.307.077l-.048-.001a9.22 9.22 0 0 0-.066 1.22c.008.604-.475 1.1-1.079 1.108h-.015c-.597 0-1.085-.48-1.093-1.079-.007-.49.02-.982.077-1.47a11.187 11.187 0 0 1-1.314-.344 9.104 9.104 0 0 0-.438 1.137 1.095 1.095 0 0 1-1.369.721 1.093 1.093 0 0 1-.72-1.368c.145-.469.322-.927.526-1.373a11.405 11.405 0 0 1-1.142-.735 9.169 9.169 0 0 0-.768.946 1.093 1.093 0 1 1-1.787-1.262 11.41 11.41 0 0 1 1.747-1.95l.015-.013.027-.022a1.041 1.041 0 0 1 .186-.124l.05-.026c.017-.008.035-.014.052-.021l.045-.018.058-.018.043-.012a.637.637 0 0 1 .06-.012.573.573 0 0 1 .103-.015c.015-.001.03-.003.046-.003l.057-.001a.769.769 0 0 1 .103.005l.051.006.053.009.05.011.054.015.046.014.058.023.039.016c.022.01.043.022.063.033l.031.016.068.044.022.015a1.149 1.149 0 0 1 .083.066 9.04 9.04 0 0 0 2.447 1.547 9.154 9.154 0 0 0 5.572.51l.023-.005a9.074 9.074 0 0 0 2.607-1.034l.053-.031a9.015 9.015 0 0 0 1.35-.987 1.094 1.094 0 0 1 1.448 1.639c-.281.248-.573.479-.872.695zM16.35 4.794A9.04 9.04 0 0 0 3.773 6.106c-.328.39-.623.807-.878 1.242a1.094 1.094 0 1 1-1.885-1.11c.317-.538.682-1.055 1.086-1.536A11.199 11.199 0 0 1 9.575.727c2.928-.303 5.814.53 8.126 2.347a1.093 1.093 0 1 1-1.351 1.72zm1.224 30.858a6.61 6.61 0 0 0 5.424 2.839 6.612 6.612 0 0 0 5.423-2.839 1.093 1.093 0 1 1 1.796 1.249 8.8 8.8 0 0 1-7.219 3.777 8.8 8.8 0 0 1-7.22-3.777 1.093 1.093 0 1 1 1.796-1.249z"/>
</svg>
