<svg xmlns="http://www.w3.org/2000/svg" width="9" height="15">
    <path fill="#FFF" fill-rule="evenodd" d="M8.764 9.083a4.546 4.546 0 0 1-1.642 1.062c-.587.228-1.229.342-1.865.418.096.105.141.156.202.216.862.868 1.729 1.732 2.59 2.603.293.296.354.664.193 1.009-.177.377-.572.625-.959.598-.246-.017-.437-.139-.607-.31-.651-.656-1.315-1.3-1.953-1.968-.186-.194-.275-.157-.439.012a129.5 129.5 0 0 1-1.992 2c-.3.297-.658.35-1.007.18-.371-.179-.607-.558-.589-.939.013-.257.14-.454.316-.63.854-.854 1.706-1.709 2.558-2.564.057-.057.11-.117.191-.206-1.162-.121-2.209-.407-3.107-1.109-.111-.087-.226-.171-.327-.269-.393-.378-.433-.81-.122-1.255.266-.381.712-.483 1.176-.264.09.042.176.096.257.152C3.31 8.969 5.607 9 7.285 7.871a1.52 1.52 0 0 1 .55-.285.864.864 0 0 1 .989.395c.246.4.242.791-.06 1.102zM4.47 7.592C2.396 7.585.696 5.865.709 3.788A3.8 3.8 0 0 1 4.515 0c2.098.006 3.782 1.723 3.771 3.845-.011 2.074-1.722 3.754-3.816 3.747zm.03-5.653a1.851 1.851 0 0 0-1.858 1.876A1.848 1.848 0 0 0 4.51 5.654a1.844 1.844 0 0 0 1.844-1.861A1.849 1.849 0 0 0 4.5 1.939z"/>
</svg>
