<svg xmlns="http://www.w3.org/2000/svg" width="25" height="25">
    <path fill="#FFF" fill-rule="evenodd" d="M24.188 12.282c-.041.005-.076.01-.117.01a.68.68 0 0 1-.674-.568 11.493 11.493 0 0 0-3.23-6.233 11.51 11.51 0 0 0-6.231-3.23.689.689 0 0 1-.563-.792.682.682 0 0 1 .786-.557 12.864 12.864 0 0 1 6.972 3.616 12.867 12.867 0 0 1 3.614 6.973.672.672 0 0 1-.557.781zM13.971 5.268a7.815 7.815 0 0 1 4.234 2.196 7.816 7.816 0 0 1 2.195 4.235.685.685 0 0 1-.562.791c-.041.005-.077.01-.117.01a.679.679 0 0 1-.674-.568 6.469 6.469 0 0 0-1.815-3.5 6.436 6.436 0 0 0-3.499-1.815.677.677 0 0 1-.552-.791.687.687 0 0 1 .79-.558zM9.429 9.787c-.376.38-.761.776-1.177 1.156.31.684.735 1.359 1.369 2.16 1.308 1.608 2.672 2.85 4.173 3.804.147.091.319.177.502.269.127.065.259.132.39.202l1.602-1.597c.513-.512 1.111-.781 1.735-.781.628 0 1.221.274 1.713.786l2.784 2.794c.512.508.781 1.111.781 1.74 0 .624-.264 1.232-.766 1.755a20.24 20.24 0 0 1-.659.654c-.32.309-.624.598-.887.918-.005.01-.016.015-.021.025-.77.837-1.754 1.258-2.925 1.258-.102 0-.213-.005-.32-.01-1.739-.112-3.295-.766-4.461-1.319-3.053-1.476-5.724-3.57-7.945-6.223-1.831-2.2-3.058-4.254-3.879-6.471-.335-.902-.771-2.282-.649-3.763a3.709 3.709 0 0 1 1.1-2.358l1.724-1.739.01-.011c.507-.486 1.106-.745 1.724-.745.619 0 1.207.259 1.699.745.329.305.649.629.953.944.152.162.314.325.471.481l1.385 1.385c1.064 1.065 1.064 2.445 0 3.509-.142.143-.284.29-.426.432zm-.538-2.972L7.507 5.43c-.162-.167-.325-.329-.482-.492a26.863 26.863 0 0 0-.912-.908l-.016-.015c-.162-.162-.42-.355-.74-.355-.258 0-.522.127-.77.36L2.858 5.75a2.33 2.33 0 0 0-.7 1.506c-.076.928.096 1.912.568 3.175.765 2.069 1.921 3.996 3.65 6.08 2.094 2.501 4.614 4.473 7.484 5.863 1.049.502 2.449 1.09 3.955 1.186.076.006.157.006.233.006.791 0 1.394-.259 1.906-.807.315-.37.649-.7.979-1.014.218-.213.421-.406.618-.619.518-.537.518-1.07-.005-1.587l-2.793-2.794-.01-.011c-.158-.172-.416-.37-.731-.37-.319 0-.593.208-.765.381l-1.734 1.734c-.086.086-.35.35-.771.35-.167 0-.329-.041-.502-.127-.02-.01-.04-.025-.061-.036a6.359 6.359 0 0 0-.502-.268c-.202-.102-.415-.208-.623-.34-1.628-1.029-3.103-2.373-4.503-4.098l-.005-.005c-.77-.979-1.277-1.8-1.637-2.672l-.016-.046c-.091-.289-.172-.715.264-1.151.005-.01.015-.015.025-.026.442-.395.847-.801 1.273-1.237.147-.142.289-.289.436-.436.538-.538.538-1.035 0-1.572z"/>
</svg>
