<svg xmlns="http://www.w3.org/2000/svg" width="60" height="60">
    <path fill="#FFF" fill-rule="evenodd" d="M30 59.988C13.439 59.988.012 46.561.012 30 .012 13.438 13.439.012 30 .012 46.56.012 59.988 13.438 59.988 30c0 16.561-13.428 29.988-29.988 29.988zM30 3.01C15.118 3.01 3.01 15.118 3.01 30c0 14.882 12.108 26.989 26.99 26.989 14.882 0 26.989-12.107 26.989-26.989C56.989 15.118 44.882 3.01 30 3.01zm11.975 30.318l-15.953 10.44c-2.761 1.807-5.019.586-5.019-2.713V18.939c0-3.299 2.256-4.515 5.011-2.702l15.968 10.509c2.756 1.813 2.753 4.774-.007 6.582zm-2.118-4.399l-14.184-9.334c-.919-.605-1.671-.2-1.671.9v19.004c0 1.099.753 1.506 1.672.903l14.18-9.279c.92-.602.921-1.59.003-2.194z"/>
</svg>
