<svg xmlns="http://www.w3.org/2000/svg" width="66" height="70">
    <path fill-rule="evenodd" d="M64.972 69.995H35.04c-.564 0-1.02-.459-1.02-1.025v-5.468c0-2.827 2.288-5.126 5.102-5.126h3.061v-2.268a11.957 11.957 0 0 1-4.082-9.006v-3.993c-.679-5.477.139-9.446 2.5-12.134 3.283-3.736 8.81-4.049 13.733-4.049.435 0 .865.002 1.287.004.404.002.801.004 1.188.004.564 0 1.02.46 1.02 1.026v4.538a5.09 5.09 0 0 1 2.993 1.789c1.52 1.864 1.886 4.852 1.089 8.881v3.934c0 3.587-1.581 6.81-4.08 9.004l-.001 2.269h3.061c2.813 0 5.102 2.3 5.102 5.127v5.468c0 .566-.457 1.025-1.021 1.025zm-24.83-2.051h4.762v-2.05h-4.762v2.05zm19.102-32.357c-.943-1.156-2.288-1.141-2.381-1.136a1 1 0 0 1-.757-.276 1.02 1.02 0 0 1-.317-.747v-4.447h-.179c-.418-.003-.844-.005-1.276-.005-4.477 0-9.482.259-12.202 3.356-1.551 1.765-2.29 4.407-2.208 7.873l1.346-1.804c.316-.423.9-.535 1.349-.26.029.018 3.056 1.84 6.401 1.84 3.488 0 9.534-1.922 9.594-1.942a1.02 1.02 0 0 1 1.223.519l.443.891c.008-1.698-.339-3.008-1.036-3.862zm.626 11.514V43.21l-1.473-2.961c-1.855.55-6.355 1.783-9.377 1.783-2.834 0-5.386-1.066-6.643-1.695l-2.235 2.993v3.771c0 5.464 4.425 9.908 9.864 9.908 5.439 0 9.864-4.444 9.864-9.908zm-15.646 10.45v1.357l2.555 2.053 2.207-.888v-1.058a11.792 11.792 0 0 1-4.762-1.464zm6.802 1.463v1.12l1.629.817 3.134-2.099V57.55a11.776 11.776 0 0 1-4.763 1.464zm9.865 1.412h-3.773l-3.823 2.561-.017.01c-.025.016-.052.03-.078.044-.018.009-.035.019-.053.027-.025.011-.05.02-.075.029-.021.008-.041.016-.062.022-.025.008-.052.012-.078.017-.02.005-.041.011-.061.013a.984.984 0 0 1-.382-.019c-.012-.002-.024-.007-.037-.01-.025-.008-.051-.015-.076-.024-.019-.007-.037-.016-.056-.024l-.047-.02-2.313-1.162-2.976 1.196c-.008.004-.017.006-.026.009l-.042.015a.809.809 0 0 1-.066.018l-.034.009a2.45 2.45 0 0 1-.084.014l-.019.003c-.036.003-.071.006-.107.006-.054 0-.107-.005-.16-.013-.017-.003-.034-.009-.051-.013a1.189 1.189 0 0 1-.103-.025l-.061-.024a1.01 1.01 0 0 1-.089-.04l-.056-.031a1.384 1.384 0 0 1-.089-.06l-.028-.019-3.123-2.509h-3.724a3.072 3.072 0 0 0-3.061 3.076v4.442h2.041v-3.076c0-.566.456-1.025 1.02-1.025h6.803c.563 0 1.02.459 1.02 1.025v3.076h17.007v-4.442-.004a3.072 3.072 0 0 0-3.061-3.072zM48.646 23.928h-13.41l-6.621 2.659a1.02 1.02 0 0 1-1.398-.951v-1.708h-4.422a1.024 1.024 0 0 1-1.02-1.025V9.757c0-.565.457-1.024 1.02-1.024.562 0 1.021.459 1.021 1.024v12.121h4.421a1.02 1.02 0 0 1 1.021 1.025v1.218l5.404-2.17c.118-.047.249-.073.378-.073h12.585V2.055H23.816v3.601c0 .566-.459 1.026-1.021 1.026-.563 0-1.02-.46-1.02-1.026V1.03a1.027 1.027 0 0 1 1.02-1.026h25.851a1.025 1.025 0 0 1 1.02 1.026v21.873c0 .271-.109.535-.299.726a1.03 1.03 0 0 1-.721.299zm-21.533 6.857c2.326 2.857 3.505 7.426 3.505 13.579a1.025 1.025 0 0 1-1.02 1.025c-.116 0-.232-.02-.344-.06l-1.357-.487v2.259a11.97 11.97 0 0 1-5.441 10.037l-.001 1.237h4.422c2.813 0 5.102 2.3 5.102 5.127v5.468c0 .566-.457 1.025-1.021 1.025H1.026c-.564 0-1.02-.459-1.02-1.025v-5.468c0-2.827 2.288-5.127 5.102-5.127h4.421v-1.236a11.971 11.971 0 0 1-5.442-10.038v-6.8c-.741-9.27 2.821-11.623 3.231-11.862.291-.169.646-.183.949-.038l2.392 1.144c1.268-.654 4.839-2.298 8.649-2.298 3.269 0 5.895 1.19 7.805 3.538zM5.108 60.426a3.072 3.072 0 0 0-3.061 3.076v4.442h27.891v-4.442-.004a3.072 3.072 0 0 0-3.061-3.072h-4.503c-.491 3.094-3.166 5.468-6.382 5.468-3.216 0-5.89-2.374-6.381-5.468H5.108zm15.307-2.223a11.794 11.794 0 0 1-4.423.856 11.79 11.79 0 0 1-4.422-.856v1.198c0 2.449 1.984 4.443 4.422 4.443 2.438 0 4.422-1.994 4.422-4.443V59.4l.001-1.197zM6.128 47.101c0 5.464 4.425 9.908 9.864 9.908 5.439 0 9.864-4.444 9.864-9.908V44.11l-15.239-5.469-4.489 2.255v6.205zm13.18-17.804c-4.097 0-8.074 2.263-8.114 2.286a1.02 1.02 0 0 1-.947.037l-2.252-1.078c-.69.764-2.104 2.97-1.956 8.107l4.055-2.037a1.013 1.013 0 0 1 .799-.049l17.661 6.338c-.296-9.029-3.403-13.604-9.246-13.604z"/>
</svg>
