<svg xmlns="http://www.w3.org/2000/svg" width="72" height="71">
    <path fill-rule="evenodd" d="M62.018 38.842H51.591l-11.175-5.076-4.046 4.043a3.557 3.557 0 0 1-2.496 1.033 3.534 3.534 0 0 1-3.223-2.101l-1.069 1.068a3.557 3.557 0 0 1-2.496 1.033 3.507 3.507 0 0 1-2.238-.824l-1.292 1.292-1.132-1.131L5.455 55.137v-7.776c0-2.88 1.122-5.587 3.16-7.623a10.717 10.717 0 0 1 7.627-3.157h.057l2.263-2.261-1.131-1.131 3.691-3.688a3.492 3.492 0 0 1-2.092-3.192 3.5 3.5 0 0 1 1.122-2.564l12.973-11.966c.84-.775 1.93-1.2 3.07-1.2h3.861l8.816-8.809A4.306 4.306 0 0 1 51.934.503a4.335 4.335 0 0 1 4.331 4.328c0 1.156-.45 2.242-1.268 3.06l-6.462 6.457 1.839 1.085 9.85 9.843h1.794v-3.392h9.051v20.349h-9.051v-3.391zm-28.144-2.261c.333 0 .66-.136.897-.371l3.022-3.021h-3.588l-1.228 1.228c-.24.24-.372.557-.372.897 0 .698.57 1.267 1.269 1.267zm-5.891-.371l3.023-3.021H29.68l-3.206 3.204c.48.25 1.114.212 1.509-.183zm-10.747 2.632h-.994a8.472 8.472 0 0 0-6.028 2.495 8.465 8.465 0 0 0-2.497 6.024v2.318l13.107-13.098-.663-.662-2.925 2.923zm3.394-5.653l2.926 2.924 3.042-3.041a3.957 3.957 0 0 1-2.925-2.924l-3.043 3.041zM36.195 12.84c-.57 0-1.115.213-1.535.602L21.689 25.407c-.253.23-.396.561-.396.902a1.23 1.23 0 0 0 1.229 1.228h.127c.233 0 .449-.084.644-.206l14.5-14.491h-1.598zm17.202-6.549a2.07 2.07 0 0 0-2.925-2.923L28.549 25.276h5.85L53.397 6.291zM38.028 24.847l.408-.081a2.599 2.599 0 0 0 2.076-2.401l-2.484 2.482zm23.99 2.69h-2.73L48.882 17.138l-1.999-1.141-4.446 4.444a4.83 4.83 0 0 1 .35 1.779 4.873 4.873 0 0 1-3.908 4.764l-2.88.553h-8.484c-.936 0-1.697.761-1.697 1.696 0 .935.761 1.695 1.697 1.695h12.124l12.444 5.653h9.935v-9.044zm2.263-2.261V39.972h4.525V24.145h-4.525v1.131zm-28.282 23.74c23.007 0 34.797 19.579 34.913 19.776l1.003 1.704H.084l1.002-1.704c.117-.197 11.907-19.776 34.913-19.776zm31.803 19.219c-3.374-4.608-14.073-16.958-31.803-16.958S7.57 63.627 4.197 68.235h63.605zm-51.889-5.952l-3.466 2.907-1.454-1.732 3.466-2.907 1.454 1.732zm10.605-5.216l-4.252 1.546-.773-2.123 4.252-1.546.773 2.123zm11.744-1.268h-4.525v-2.26h4.525v2.26zm12.245.689l-.774 2.123-4.252-1.546.773-2.124 4.253 1.547zm10.502 6.965l-1.454 1.732-3.467-2.907 1.454-1.731 3.467 2.906z"/>
</svg>
