<svg xmlns="http://www.w3.org/2000/svg" width="70" height="70">
    <path fill-rule="evenodd" d="M68.825 22.169a1.167 1.167 0 0 1-1.167-1.166V10.505a3.496 3.496 0 0 0-2.327-3.284V60.66c0 .016-.008.027-.008.042a1.17 1.17 0 0 1-.072.36c-.01.025-.02.063-.027.077-.007.013-.008.029-.015.043l-3.383 6.752v.891a1.167 1.167 0 1 1-2.332 0v-.891l-3.377-6.752c-.007-.014-.005-.019-.015-.043-.011-.025-.017-.052-.027-.077a1.142 1.142 0 0 1-.072-.36c0-.014-.009-.026-.009-.042V4.673a4.667 4.667 0 0 1 9.332 0v.117a5.842 5.842 0 0 1 4.665 5.715v10.498c0 .644-.522 1.166-1.166 1.166zM60.66 65.051l1.612-3.224h-3.224l1.612 3.224zm0-62.71a2.333 2.333 0 0 0-2.333 2.332h4.666a2.333 2.333 0 0 0-2.333-2.332zm2.333 4.665h-4.666v17.496h4.666V7.006zm0 19.829h-4.666v32.659h4.666V26.835zM52.495 69.992H1.174a1.168 1.168 0 0 1-1.167-1.167V5.839c0-.644.523-1.166 1.167-1.166h10.497V1.174c0-.644.523-1.167 1.167-1.167h27.993c.644 0 1.167.523 1.167 1.167v3.499h10.497c.645 0 1.167.522 1.167 1.166v62.986c0 .644-.522 1.167-1.167 1.167zM39.665 2.341H14.004v2.332h25.661V2.341zm0 4.665H14.004v4.666h9.531a3.5 3.5 0 0 1 6.599 0h9.531V7.006zm11.664 0h-9.331v5.832c0 .644-.523 1.166-1.167 1.166H29.167a1.166 1.166 0 0 1-1.166-1.166 1.167 1.167 0 0 0-2.333 0c0 .644-.522 1.166-1.166 1.166H12.838a1.167 1.167 0 0 1-1.167-1.166V7.006H2.34v60.653h48.989V7.006zM11.732 42.531c5.5-4.467 13.58-3.63 18.048 1.871l.895-.896c.219-.219.516-.342.825-.342h3.499v2.333h-3.016l-.875.875a12.726 12.726 0 0 1-.015 12.232l.89.89h3.016v2.333H31.5a1.162 1.162 0 0 1-.831-.339l-.909-.909c-.462.576-.972 1.11-1.526 1.598a12.03 12.03 0 0 1-.325.273c-5.501 4.468-13.581 3.63-18.049-1.871-4.467-5.5-3.629-13.581 1.872-18.048zm16.385 16.395l-2.108-2.107 1.65-1.649 1.71 1.71a10.45 10.45 0 0 0 .899-3.218h-8.783l6.006 6.003c.222-.236.428-.485.626-.739zm-16.987-.547c3.251 4.801 9.779 6.057 14.579 2.806l-7.864-7.865a1.167 1.167 0 0 1 .825-1.991h11.598a10.35 10.35 0 0 0-.909-3.212l-1.705 1.704-1.649-1.649 2.112-2.112A10.498 10.498 0 0 0 11.13 58.379zm30.868-18.714a4.666 4.666 0 1 1-.001 9.331 4.666 4.666 0 0 1 .001-9.331zm0 6.999a2.334 2.334 0 1 0-.001-4.667 2.334 2.334 0 0 0 .001 4.667zm0 9.331a4.666 4.666 0 1 1-.001 9.331 4.666 4.666 0 0 1 .001-9.331zm0 6.998a2.333 2.333 0 1 0 0-4.666 2.333 2.333 0 0 0 0 4.666zm3.499-26.827H32.666a1.166 1.166 0 1 1 0-2.333h12.831a1.166 1.166 0 0 1 0 2.333zm0-4.666h-4.666a1.166 1.166 0 1 1 0-2.332h4.666a1.166 1.166 0 1 1 0 2.332zm0-6.998h-9.331a1.166 1.166 0 1 1 0-2.333h9.331a1.166 1.166 0 1 1 0 2.333zm0-4.666h-16.33a1.166 1.166 0 1 1 0-2.332h16.33a1.166 1.166 0 1 1 0 2.332zM19.836 33.833h8.165a1.166 1.166 0 0 1 0 2.333h-8.165a1.166 1.166 0 1 1 0-2.333zm0-4.665h16.33a1.166 1.166 0 1 1 0 2.332h-16.33a1.166 1.166 0 1 1 0-2.332zm12.83-5.833c0 .645-.522 1.167-1.166 1.167H19.836a1.166 1.166 0 0 1 0-2.333H31.5c.644 0 1.166.522 1.166 1.166zm-8.164-3.499h-4.666a1.166 1.166 0 1 1 0-2.332h4.666a1.166 1.166 0 1 1 0 2.332zM11.671 37.332a4.666 4.666 0 1 1 0-9.331 4.666 4.666 0 0 1 0 9.331zm0-6.998a2.332 2.332 0 1 0 0 4.664 2.332 2.332 0 0 0 0-4.664zm0-4.666a4.666 4.666 0 1 1 0-9.333 4.666 4.666 0 0 1 0 9.333zm0-6.998a2.332 2.332 0 1 0 0 4.664 2.332 2.332 0 0 0 0-4.664z"/>
</svg>
