<svg xmlns="http://www.w3.org/2000/svg" width="50" height="71">
    <path fill-rule="evenodd" d="M43.054 44.614a9.943 9.943 0 0 1 6.814 9.446c0 1.971-.577 3.88-1.673 5.522l-.588.88v9.822H2.391v-9.822l-.588-.88A9.929 9.929 0 0 1 .13 54.059a9.942 9.942 0 0 1 6.815-9.445l10.141-3.378v-3.163a12.437 12.437 0 0 1-4.056-6.254c-2.8-.334-4.987-2.694-4.987-5.579v-9.035c0-1.599.228-3.179.667-4.699a3.204 3.204 0 0 1-.667-1.955c0-1.187.65-2.276 1.696-2.84L22.337.935c1.631-.878 3.692-.877 5.323 0l12.597 6.777a3.218 3.218 0 0 1 1.698 2.839c0 .72-.241 1.399-.667 1.955.44 1.52.667 3.1.667 4.699v2.218c3.448 1.711 5.652 5.178 5.652 9.075 0 5.604-4.563 10.164-10.173 10.164-1.443 0-2.863-.323-4.168-.91-.119.106-.231.219-.354.321v3.163l10.142 3.378zm-4.49 23.411h6.782v-2.259h-5.652v-.01a8.782 8.782 0 0 1-1.13 1.589v.68zm2.01-4.517h4.772v-2.259h-4.521v.193c0 .706-.091 1.396-.251 2.066zm-9.923 4.517h5.652v-1.597l.332-.331a6.538 6.538 0 0 0 1.929-4.655v-.386a6.538 6.538 0 0 0-1.929-4.655l-.332-.331v-3.856h2.261v2.939a8.767 8.767 0 0 1 2.01 3.837h5.298l.441-.66a7.673 7.673 0 0 0 1.294-4.271 7.685 7.685 0 0 0-5.268-7.302l-7.277-2.423c.073.36.111.729.111 1.104 0 2.728-1.946 5.008-4.522 5.533v17.054zm-9.043 0h6.782V50.959a5.637 5.637 0 0 1-3.391-2.158 5.635 5.635 0 0 1-3.391 2.158v17.066zm9.043-26.579V39.55a12.357 12.357 0 0 1-5.652 1.371c-2.036 0-3.954-.501-5.652-1.371v1.896l5.652 3.764 5.652-3.764zm-7.138 5.49l-5.463-3.639-.249.082a3.376 3.376 0 0 0-.715 2.059 3.387 3.387 0 1 0 6.427 1.498zM4.652 68.025h6.782v-.68a8.831 8.831 0 0 1-1.13-1.589v.01H4.652v2.259zm0-4.517h4.772a8.878 8.878 0 0 1-.251-2.066v-.193H4.652v2.259zm10.174-18.07c0-.375.044-.744.117-1.108L7.66 46.756a7.687 7.687 0 0 0-5.269 7.303c0 1.524.448 3.001 1.294 4.271l.442.66h5.297a8.757 8.757 0 0 1 2.01-3.837v-2.939h2.261v3.856l-.331.331a6.535 6.535 0 0 0-1.93 4.655v.386c0 1.758.685 3.412 1.93 4.655l.331.331v1.597h5.652V50.971c-2.576-.525-4.521-2.806-4.521-5.533zm-2.214-16.003c-.023-.311-.047-.62-.047-.937v-5.439c-1.312.468-2.261 1.711-2.261 3.181 0 1.487.971 2.741 2.308 3.195zM39.186 9.701L26.59 2.925a3.412 3.412 0 0 0-3.181 0L10.811 9.701a.968.968 0 0 0-.144 1.604l4.324 3.456c1.506-.643 5.375-2.074 10.008-2.074 4.634 0 8.502 1.431 10.01 2.074l4.322-3.456a.965.965 0 0 0-.145-1.604zm.508 7.504c0-1.029-.11-2.047-.319-3.041l-4.06 3.244-.646-.321c-.043-.022-4.371-2.141-9.67-2.141-5.299 0-9.626 2.119-9.669 2.141l-.646.321-4.06-3.244c-.21.994-.32 2.012-.32 3.041v4.546a5.622 5.622 0 0 1 2.261-1.044v-1.243h2.261c3.401 0 6.773-1.124 9.495-3.162l.678-.509.678.509a15.947 15.947 0 0 0 9.496 3.162h2.261v1.244a5.61 5.61 0 0 1 2.26 1.044v-4.547zm-2.26 5.854v5.439c0 .317-.024.626-.048.937 1.337-.454 2.308-1.708 2.308-3.195 0-1.47-.948-2.713-2.26-3.181zm0 13.345c4.362 0 7.912-3.546 7.912-7.906a7.852 7.852 0 0 0-3.391-6.466v4.208c0 2.885-2.186 5.245-4.986 5.579a12.356 12.356 0 0 1-2.063 4.155c.812.274 1.664.43 2.528.43zm-2.261-7.906v-6.775c-3.61 0-7.19-1.107-10.174-3.131a18.225 18.225 0 0 1-10.173 3.131v6.775c0 5.604 4.563 10.164 10.173 10.164s10.174-4.56 10.174-10.164zm-2.979 14.88l-.245-.082-5.463 3.639a3.386 3.386 0 0 0 6.426-1.497c0-.755-.261-1.469-.718-2.06zM20.478 30.757h2.26a2.262 2.262 0 0 0 4.522 0h2.261a4.525 4.525 0 0 1-4.522 4.518 4.525 4.525 0 0 1-4.521-4.518zm10.173-6.776a1.13 1.13 0 1 1 .001 2.259 1.13 1.13 0 0 1-.001-2.259zM19.347 26.24a1.13 1.13 0 1 1 0-2.26 1.13 1.13 0 0 1 0 2.26zm6.782-14.681h-2.26V9.3h-2.261V7.041h2.261V4.782h2.26v2.259h2.261V9.3h-2.261v2.259zm.046 43.218h-2.261v-2.224h2.261v2.224zm-.046 5.342h-2.26v-2.224h2.26v2.224zm-.04 5.342h-2.261v-2.223h2.261v2.223z"/>
</svg>
