<svg xmlns="http://www.w3.org/2000/svg" width="15" height="8">
    <path fill="#FFFEF7" fill-rule="evenodd" d="M14.856 7.073c-.04-.062-.289-.565-1.488-1.599-1.256-1.082-1.087-.906.425-2.778.921-1.139 1.289-1.836 1.174-2.133-.11-.284-.787-.209-.787-.209l-2.252.012s-.167-.021-.291.048a.6.6 0 0 0-.199.225s-.357.882-.833 1.632C9.602 3.854 9.2 3.937 9.036 3.838c-.381-.228-.285-.92-.285-1.41 0-1.534.25-2.174-.489-2.339-.245-.055-.425-.091-1.052-.098-.803-.007-1.484.003-1.87.178-.256.117-.454.377-.333.391.149.019.486.085.665.311.232.292.223.948.223.948s.133 1.805-.31 2.029c-.304.154-.721-.16-1.616-1.596-.458-.735-.804-1.549-.804-1.549S3.097.552 2.979.471a.967.967 0 0 0-.347-.13L.491.353S.169.362.051.491C-.053.608.043.845.043.845s1.677 3.644 3.575 5.48c1.741 1.684 3.718 1.573 3.718 1.573h.896s.27-.027.408-.166c.128-.127.123-.365.123-.365s-.018-1.116.54-1.281c.55-.162 1.256 1.079 2.005 1.556.565.362.996.283.996.283l2.001-.027s1.048-.06.551-.825z"/>
</svg>
