<svg width="51" height="83" viewBox="0 0 51 83" fill="none" xmlns="http://www.w3.org/2000/svg">
<g clip-path="url(#clip0_3382_16353)">
<path d="M48.2615 73.3678C46.8651 66.9164 45.4587 60.4677 44.0623 54.0163C43.7616 52.6543 41.6918 53.2089 41.9824 54.5736C43.1624 60.0172 44.3396 65.4507 45.5196 70.8943C41.4424 67.3574 37.1857 64.0302 32.9662 60.6822C29.9316 58.2763 28.1696 55.2603 30.0485 51.4733C31.4475 48.6546 34.4077 46.9032 36.6515 44.8379C38.7596 42.9058 40.7361 40.083 40.2675 37.0542C39.6967 33.3637 36.3709 30.8313 33.3166 29.152C26.792 25.5605 19.001 25.6025 12.0186 23.3824C8.79779 22.3614 5.51316 20.5824 4.52653 17.1002C3.56413 13.7085 5.7638 10.1585 8.3968 8.22565C9.50754 7.41127 8.42659 5.53697 7.30854 6.36408C1.88871 10.3355 0.0591175 18.1465 5.90299 22.7172C8.53189 24.7689 11.892 25.7095 15.0801 26.4486C18.6667 27.2747 22.3033 27.8075 25.8734 28.6918C29.7638 29.6519 33.6249 31.2226 36.458 34.1562C39.4856 37.296 37.8394 40.7515 35.1298 43.3185C32.9514 45.3879 30.4084 47.0167 28.698 49.5528C26.733 52.4586 26.5566 56.0801 28.4013 59.0847C29.3299 60.5907 30.7478 61.6427 32.0984 62.7234C33.5559 63.8831 35.0161 65.0529 36.4763 66.2227C38.7038 68.0159 40.9312 69.8091 43.122 71.6659C37.7664 70.5171 32.4207 69.3657 27.065 68.217C25.7109 67.9231 25.1454 70.0124 26.4969 70.2963C33.3201 71.7624 40.1333 73.2311 46.9565 74.6972C47.7761 74.8759 48.4522 74.1995 48.2742 73.3752L48.2615 73.3678Z" fill="black"/>
</g>
<defs>
<clipPath id="clip0_3382_16353">
<rect width="76.4535" height="31.4809" fill="white" transform="translate(30.4082 0.0991211) rotate(75)"/>
</clipPath>
</defs>
</svg>
