<svg width="40" height="72" viewBox="0 0 40 72" fill="none" xmlns="http://www.w3.org/2000/svg">
<g clip-path="url(#clip0_3165_16195)">
<path d="M13.2995 1.3102C12.0263 7.04141 10.7622 12.7742 9.48903 18.5054C9.22495 19.7176 11.1034 20.04 11.3766 18.8293C12.4495 13.9928 13.5209 9.16541 14.5938 4.32888C16.571 8.70349 18.7712 12.9756 20.9336 17.2506C22.4895 20.3236 22.7903 23.4158 19.8629 25.7756C17.6837 27.5319 14.6406 27.8448 12.0593 28.6781C9.63724 29.4543 6.98992 30.9988 6.24114 33.6199C5.32871 36.8136 7.07269 40.0971 8.91492 42.5905C12.8488 47.9203 19.158 50.7861 23.9721 55.1783C26.1939 57.2019 28.1851 59.8616 27.686 63.0417C27.2011 66.1398 24.1028 68.1888 21.2565 68.7701C20.0561 69.0146 20.2317 70.931 21.4427 70.679C27.2991 69.4881 31.6843 63.8593 28.6648 57.992C27.3048 55.3561 24.9406 53.3457 22.6402 51.562C20.0504 49.5597 17.3111 47.7758 14.7563 45.7326C11.971 43.5091 9.43653 40.8031 8.23985 37.3789C6.96275 33.7156 9.57876 31.537 12.723 30.4718C15.253 29.611 17.9135 29.2417 20.2391 27.8297C22.908 26.2138 24.3984 23.3539 24.0266 20.2402C23.8369 18.678 23.0831 17.3005 22.3943 15.9247C21.6486 14.4454 20.9044 12.957 20.1603 11.4685C19.0284 9.19092 17.8965 6.91333 16.8178 4.59794C20.7166 7.5193 24.6063 10.4391 28.505 13.3605C29.4895 14.1019 30.724 12.6245 29.7379 11.8922C24.7718 8.16833 19.8147 4.44597 14.8485 0.722047C14.253 0.272628 13.455 0.567365 13.292 1.29952L13.2995 1.3102Z" fill="black"/>
</g>
<defs>
<clipPath id="clip0_3165_16195">
<rect width="68" height="28" fill="white" transform="translate(0.450684 67.142) rotate(-80.2618)"/>
</clipPath>
</defs>
</svg>
