<svg width="49" height="80" viewBox="0 0 49 80" fill="none" xmlns="http://www.w3.org/2000/svg">
<g clip-path="url(#clip0_3382_16458)">
<path d="M28.5784 77.7729C30.5188 71.7292 32.4495 65.6828 34.3898 59.6391C34.7946 58.3603 32.7951 57.8245 32.3807 59.1008C30.7449 64.2012 29.1116 69.2919 27.4758 74.3923C25.7682 69.4831 23.8093 64.6618 21.8917 59.8412C20.5115 56.3759 20.4904 53.016 23.8878 50.7687C26.4168 49.0963 29.7381 49.0648 32.6112 48.4267C35.3064 47.8341 38.3208 46.4367 39.3883 43.6893C40.689 40.3419 39.1262 36.631 37.3794 33.7611C33.65 27.6268 27.1098 23.9074 22.3364 18.6943C20.1331 16.2922 18.2416 13.2282 19.094 9.85386C19.9231 6.56643 23.4747 4.67106 26.6096 4.33083C27.9315 4.18813 27.9302 2.10685 26.5959 2.25663C20.1464 2.95104 14.8512 8.57206 17.5391 15.1933C18.7504 18.1682 21.109 20.5705 23.4209 22.7222C26.0242 25.1383 28.8108 27.3344 31.3723 29.791C34.1653 32.4651 36.6396 35.6334 37.5968 39.4409C38.6174 43.5138 35.5745 45.5972 32.0699 46.4285C29.2496 47.1015 26.3366 47.232 23.6831 48.5191C20.6383 49.9912 18.7455 52.9211 18.8413 56.3115C18.8927 58.0127 19.5724 59.5718 20.1818 61.1223C20.8427 62.7902 21.5009 64.4677 22.1592 66.1453C23.159 68.7115 24.1589 71.2777 25.0976 73.8793C21.1692 70.342 17.2505 66.8074 13.3222 63.2701C12.3306 62.3729 10.8505 63.8398 11.8447 64.7274C16.8482 69.236 21.8422 73.7421 26.8457 78.2507C27.4454 78.7945 28.3372 78.5572 28.5855 77.7851L28.5784 77.7729Z" fill="black"/>
</g>
<defs>
<clipPath id="clip0_3382_16458">
<rect width="73.52" height="30.41" fill="white" transform="translate(48.9463 8.17285) rotate(105)"/>
</clipPath>
</defs>
</svg>
