<svg width="35" height="61" viewBox="0 0 35 61" fill="none" xmlns="http://www.w3.org/2000/svg">
<g clip-path="url(#clip0_3161_16070)">
<path d="M0.720066 48.53C-0.919934 41.61 0.400065 34.21 3.15007 27.76C7.82006 16.79 17.5401 7.56998 28.9101 3.73998C24.6301 3.15998 20.3401 2.58998 16.0601 2.00998C14.7301 1.82998 15.3001 -0.17002 16.6101 0.00998C22.1801 0.75998 27.7501 1.50998 33.3301 2.25998C34.1901 2.37998 34.2201 3.47998 33.7901 3.99998C29.9401 8.66998 26.0901 13.34 22.2401 18.01C21.3901 19.04 19.9201 17.57 20.7701 16.54C23.7601 12.92 26.7501 9.28998 29.7401 5.66998C19.3301 9.11998 10.7001 17.21 5.82007 26.96C2.96007 32.67 1.63007 39.15 2.31007 45.51C2.63007 48.56 3.60007 51.54 5.24007 54.13C6.63007 56.32 8.87007 58.83 11.6601 58.86C13.0001 58.87 13.0001 60.95 11.6601 60.94C5.59007 60.88 1.94007 53.61 0.740066 48.55L0.720066 48.53Z" fill="black"/>
</g>
<defs>
<clipPath id="clip0_3161_16070">
<rect width="60.92" height="34.05" fill="white" transform="matrix(4.37114e-08 1 1 -4.37114e-08 0 0)"/>
</clipPath>
</defs>
</svg>
