<svg width="43" height="77" viewBox="0 0 43 77" fill="none" xmlns="http://www.w3.org/2000/svg">
<g clip-path="url(#clip0_3374_16325)">
<path d="M0.909309 15.6605C-1.16176 24.4071 0.505197 33.7603 3.97803 41.9128C9.87553 55.7784 22.1504 67.432 36.509 72.2729C31.104 73.006 25.6864 73.7265 20.2814 74.4596C18.6018 74.6871 19.3216 77.215 20.976 76.9875C28.01 76.0395 35.0441 75.0916 42.0908 74.1436C43.1769 73.9919 43.2147 72.6016 42.6717 71.9443C37.8097 66.0417 32.9478 60.139 28.0858 54.2363C27.0124 52.9345 25.156 54.7925 26.2294 56.0943C30.0053 60.6699 33.7813 65.258 37.5572 69.8335C24.4109 65.4729 13.5125 55.2475 7.34984 42.924C3.73809 35.7068 2.0585 27.5164 2.91724 19.4776C3.32135 15.6226 4.54631 11.856 6.61739 8.58236C8.37274 5.8143 11.2015 2.64178 14.7249 2.60386C16.4171 2.59122 16.4171 -0.0377953 14.7249 -0.0251611C7.05938 0.0506747 2.44999 9.23962 0.934566 15.6352L0.909309 15.6605Z" fill="black"/>
</g>
<defs>
<clipPath id="clip0_3374_16325">
<rect width="77" height="43" fill="white" transform="translate(0 77) rotate(-90)"/>
</clipPath>
</defs>
</svg>
