<svg width="69" height="70" viewBox="0 0 69 70" fill="none" xmlns="http://www.w3.org/2000/svg">
<g clip-path="url(#clip0_3382_16406)">
<path d="M52.6579 0.862303C42.6322 4.81367 33.3286 10.7124 26.9564 19.5492C22.3149 26.0007 19.8097 33.7022 19.1609 41.5793C18.6992 47.2335 19.2275 52.9739 20.4533 58.498C20.742 59.7879 21.0581 61.1014 21.4388 62.3863C18.8299 59.7836 16.2183 57.1713 13.4658 54.7232C12.4703 53.839 11.0176 55.326 12.0254 56.2172C15.8555 59.62 19.4187 63.3677 23.0859 66.9304C23.6722 67.5035 24.5654 67.1701 24.8191 66.4448C26.5235 61.4082 28.2375 56.3689 29.9419 51.3323C30.3742 50.0585 28.3604 49.5426 27.935 50.8042C26.5502 54.8685 25.1776 58.9398 23.7928 63.0041C21.0563 55.2758 20.3946 46.3535 21.6016 38.3926C22.6551 31.4406 25.3992 24.8146 29.7312 19.2599C35.7142 11.5914 44.2629 6.37147 53.2137 2.84592C54.4469 2.35498 53.8954 0.349414 52.6525 0.843045L52.6579 0.862303Z" fill="black"/>
</g>
<defs>
<clipPath id="clip0_3382_16406">
<rect width="55.22" height="56.16" fill="white" transform="translate(0.448242 15.4902) rotate(-15.6518)"/>
</clipPath>
</defs>
</svg>
