<svg xmlns="http://www.w3.org/2000/svg" viewBox="0 0 128 42" width="128" height="42">
<path d="M125.5,25.4c-6,4.4-15.6,7.9-26,10c-10.4,2.2-21.6,3-30.8,2.5c-1-0.1-2-0.1-3-0.2c-7.6-0.7-16-2.1-24-4.5
c-8-2.3-15.7-5.6-22-9.8C15.5,20.5,13,18,11,15.1c-1.1-1.7-2.1-3.5-3-5.5c1.3,0.9,2.6,1.8,4.2,2.7c2.8,1.5,6.4,3.3,12.2,6l1.7-3.6
c-7.7-3.7-11.5-5.5-14.2-7.3c-1.4-0.9-2.5-1.8-3.8-2.9C6.9,3.4,5.4,1.9,3.4,0L0.1,2c1.7,5.6,2.7,10,4.1,14.7
c1.4,4.7,3.3,9.8,6.8,16.7l3.8-1.2c-0.6-3.7-1.8-7-3-10c1.6,1.5,3.4,3,5.6,4.5c6.7,4.5,14.8,7.9,23.1,10.4
c8.3,2.4,16.9,3.9,24.8,4.6c1.1,0.1,2.1,0.2,3.1,0.2c9.6,0.6,21.1-0.3,31.8-2.5C111,37,121,33.5,127.8,28.6L125.5,25.4z"/>
</svg>
