<svg width="72" height="100" xmlns="http://www.w3.org/2000/svg" viewBox="0 0 72 100">
	<path d="M35.3,0c8.8-0.3,18.4,3.8,23.4,9C76,27,75.8,78.6,55.8,93.8c-10.9,8.3-26.8,7.5-37.1,1.6C3.1,86.5-1,59.9,1.4,37
		C3.6,16.3,15.3,0.7,35.3,0L35.3,0z M15.2,13.8C4.9,24.1,1,59.5,9.7,78.5c2.3,5.1,5.9,9.4,10.5,12.3c3.5,2.2,10.7,5.2,15.3,4.9
		c7.7-0.5,12-2,16.5-5c9.5-6.4,13-18.3,14.3-32c2.6-27.5-6.2-57.7-33.5-53.5C19.7,7.2,19.7,9.2,15.2,13.8L15.2,13.8z"/>
	<path d="M35.6,9.8L35.6,9.8c1.8,4,4.2,9.3,6.4,14.4c2.3,5.1,3.8,10.4,7.1,13.3c0.4,0.4,1.1,0.5,2.3,0.5c0.1,0.5,0,0.6,0.1,1
		c-2.7-0.1-8.3,0-11.9,0c0-0.4,0-0.5,0-1c0.6,0,1.4,0.1,2.1-0.1c0.5-0.1,0.8-0.7,0.9-1.1c-0.2-3-1.4-5.1-2.2-7.4c-3,0-6.2,0-9.2,0
		c-1.3,1.8-3.5,7.5-1.6,8.4c0.2,0.4,1.6,0.2,2.1,0.2c0,0.4,0,0.8,0,1c-1.6,0.1-7.3,0-11.5,0c0-0.4,0-0.6,0-0.9c1,0,1.6,0,2.1-0.2
		c1.2-0.4,2.2-2.1,2.5-2.7C28.6,26.3,31.3,19.9,35.6,9.8L35.6,9.8z M31.9,27.3c2.8,0,6,0,7.9-0.1c-1.3-3.1-2.2-6.1-4-10.2
		C34.3,20.8,33.1,23.7,31.9,27.3L31.9,27.3z"/>
	<path d="M26.9,46.1c-0.7,0.6-0.9,1.1-1.9,1.8c-0.9-6-10.9-5.2-10.7,0.2c0.3,6.2,16.8,7.6,15.5,16.6c-1.2,8-11.3,9.2-18.2,3.5
		c0.2-1.5,0.3-2.4,0.5-3.6c2.7,5.9,11.7,7.4,13.5,2.3c2.8-7.8-13.2-8.5-14.4-15.9C9.9,42,23,38.8,26.9,46.1L26.9,46.1z"/>
	<path d="M40.9,51.4c0,0.4,0,1,0,1.1c-0.6,0-0.8,0-2.2,0.1c-0.7,0.2-1.1,1-1.3,1.7c-0.1,3.3-0.1,6.9,0,10.6c3.6,0,7.9,0,11.5,0
		c0-4.1,0-6.7,0-10.6c0-0.3-0.1-1.2-0.9-1.5c-0.8-0.4-1.7-0.1-2.6-0.3c0-0.3,0-0.8,0-1c3.3,0,8,0,11.2,0c0,0.3,0,0.8,0,1
		c-0.8,0.1-1.9-0.2-2.8,0.3c-0.4,0.2-1,0.9-1.1,1.5c0,8.6-0.1,17.5,0,24.8c0,0.6,1.1,1.8,1.7,2c0.9,0.1,1.7,0.1,2.1,0.1
		c0,0.5,0,0.5,0,1c-2.9,0-7.5,0-11.2,0c0-0.4,0-0.5,0-1c0.6-0.1,1.7,0,2.3-0.2c0.7-0.4,0.9-1.3,1.1-1.8c0.1-3.7,0-7.7,0.1-12.1
		c-3.8,0-7.7,0-11.5,0c0,4.1-0.1,8.8,0,12.3c0,0.6,0.9,1.4,1.6,1.6c0.9,0.2,1.3,0.1,1.9,0.1c0,0.5,0,0.6,0,1c-2,0-7.5-0.1-11.1,0
		c0-0.3,0-0.6,0-1c0.8,0,1.6,0,2.2-0.1c0.8-0.3,1.3-1.1,1.5-1.6c0-7,0.1-16.9,0-25.3c-0.1-0.4-0.3-1.3-1-1.5
		c-0.8-0.2-1.3-0.2-2.5-0.2c0-0.4,0-0.6,0-1.1C33.3,51.4,38.1,51.4,40.9,51.4L40.9,51.4z"/>
</svg>
