<svg xmlns="http://www.w3.org/2000/svg" viewBox="0 0 44 44" width="44px" height="44px">
<path fill="#73B6E6" d="M3.6,16.7l4.8-1.6l3.2,1.8l-3.4,1.2c-0.5,0.2-0.7,0.6-0.6,1.1c0.2,0.5,0.6,0.7,1.1,0.6l4.8-1.6l1.9,1
c0.4,0.3,0.9,0.1,1.2-0.3c0.3-0.4,0.1-0.9-0.3-1.2l-1.8-1.1l-1-5c-0.1-0.5-0.6-0.8-1-0.7c-0.5,0.1-0.8,0.6-0.7,1l0.7,3.4
l-3.2-1.8l-1-5C8.2,8,7.8,7.7,7.3,7.8c-0.5,0.1-0.8,0.6-0.7,1l0.7,3.5l-3.2-1.8c-0.4-0.3-0.9-0.1-1.2,0.3
c-0.3,0.4-0.1,0.9,0.3,1.2l3.2,1.8L3.1,15c-0.5,0.2-0.7,0.6-0.6,1.1C2.7,16.6,3.1,16.9,3.6,16.7z"/>
<path fill="#73B6E6" d="M30.4,22c0.1-0.4-0.1-0.9-0.6-1.1l-3.9-1.3l0.6-4.2c0-0.3,0-0.5-0.3-0.6c-0.3-0.4-0.9-0.4-1.2-0.1l-3.1,2.8
l-3.4-2.6c-0.2-0.2-0.4-0.2-0.7-0.2c-0.5,0.1-0.8,0.6-0.7,1l0.8,4l-3.9,1.6c-0.2,0.1-0.4,0.3-0.5,0.5c-0.1,0.4,0.1,0.9,0.6,1.1
l3.9,1.3l-0.6,4.2c0,0.3,0,0.5,0.2,0.7c0.3,0.4,0.9,0.4,1.2,0.1l3.1-2.8l3.4,2.6c0.2,0.2,0.4,0.2,0.7,0.2c0.5-0.1,0.8-0.6,0.7-1
l-0.8-4l3.9-1.6C30.1,22.5,30.3,22.3,30.4,22z M24.7,22.9c-0.4,0.2-0.6,0.6-0.5,1l0.5,2.4l-2.1-1.6c-0.3-0.3-0.8-0.3-1.1,0
l-1.9,1.7l0.3-2.6c0.1-0.4-0.2-0.8-0.6-0.9l-2.4-0.8l2.4-1c0.4-0.2,0.6-0.6,0.5-1l-0.5-2.5l2.1,1.6c0.3,0.3,0.8,0.3,1.1,0
l1.9-1.7l-0.3,2.6c0,0.4,0.2,0.8,0.6,1l2.4,0.8L24.7,22.9z"/>
<path fill="#73B6E6" d="M18.4,8.1c-0.3-0.3-0.9-0.3-1.2,0.1c-0.3,0.3-0.3,0.9,0.1,1.2l3.8,3.4v2.1c0,0.5,0.4,0.9,0.9,0.9
c0.5,0,0.9-0.4,0.9-0.9v-2.1l3.8-3.4c0.3-0.3,0.4-0.9,0.1-1.2c-0.3-0.3-0.9-0.4-1.2-0.1l-2.7,2.4V6.8l3.8-3.4
c0.3-0.3,0.4-0.9,0.1-1.2s-0.9-0.4-1.2-0.1l-2.7,2.4V0.9C22.9,0.4,22.5,0,22,0c-0.5,0-0.9,0.4-0.9,0.9v3.7l-2.7-2.4
c-0.3-0.3-0.9-0.3-1.2,0.1S17,3.1,17.3,3.4l3.8,3.4v3.7L18.4,8.1z"/>
<path fill="#73B6E6" d="M15.4,24.8l-1.8,1.1l-4.8-1.7c-0.5-0.1-0.9,0.1-1.1,0.6c-0.1,0.5,0.1,0.9,0.6,1.1l3.4,1.1l-3.2,1.8l-4.8-1.6
c-0.5-0.1-0.9,0.1-1.1,0.6c-0.1,0.4,0.1,0.9,0.6,1.1l3.4,1.2l-3.2,1.8C2.8,32,2.7,32.5,2.9,33c0.2,0.4,0.7,0.6,1.2,0.3l3.2-1.8
L6.6,35c-0.1,0.5,0.2,0.9,0.7,1s0.9-0.2,1-0.7l0.9-5l3.2-1.8L11.7,32c-0.1,0.5,0.2,0.9,0.7,1s0.9-0.2,1-0.7l1-5l1.8-1.1
c0.4-0.2,0.6-0.7,0.3-1.2C16.4,24.7,15.9,24.5,15.4,24.8z"/>
<path fill="#73B6E6" d="M41,15.2l-3.4-1.2l3.2-1.8c0.4-0.2,0.6-0.7,0.3-1.2c-0.2-0.4-0.7-0.6-1.2-0.3l-3.2,1.8L37.4,9
c0.1-0.5-0.2-0.9-0.7-1c-0.5-0.1-0.9,0.2-1,0.7l-0.9,5l-3.2,1.8l0.7-3.5c0.1-0.5-0.2-0.9-0.7-1c-0.5-0.1-0.9,0.2-1,0.7l-1,5
l-1.8,1.1c-0.4,0.2-0.6,0.7-0.3,1.2c0.2,0.4,0.7,0.6,1.2,0.3l1.8-1.1l4.9,1.7c0.4,0.1,0.9-0.1,1.1-0.6c0.1-0.5-0.1-0.9-0.6-1.1
l-3.4-1l3.2-1.8l4.8,1.6c0.5,0.1,0.9-0.1,1.1-0.6C41.7,15.9,41.5,15.4,41,15.2z"/>
<path fill="#73B6E6" d="M40.3,27.3L35.5,29l-3.2-1.8l3.4-1.2c0.5-0.2,0.7-0.6,0.6-1.1c-0.1-0.5-0.6-0.7-1.1-0.6l-4.8,1.6l-1.8-1.1
c-0.4-0.3-0.9-0.1-1.2,0.3c-0.3,0.4-0.1,0.9,0.3,1.2l1.8,1.1l1,5c0.1,0.5,0.6,0.8,1,0.7c0.5-0.1,0.8-0.6,0.7-1l-0.8-3.4l3.2,1.8
l1,5c0.1,0.5,0.6,0.8,1,0.7c0.5-0.1,0.8-0.6,0.7-1l-0.7-3.5l3.2,1.8c0.4,0.3,0.9,0.1,1.2-0.3c0.3-0.4,0.1-0.9-0.3-1.2l-3.2-1.8
l3.4-1.2c0.5-0.1,0.7-0.6,0.6-1.1C41.3,27.4,40.8,27.2,40.3,27.3z"/>
<path fill="#73B6E6" d="M25.6,35.9c0.3,0.3,0.9,0.3,1.2-0.1c0.3-0.3,0.3-0.9-0.1-1.2l-3.8-3.4v-2.1c0-0.5-0.4-0.9-0.9-0.9
c-0.5,0-0.9,0.4-0.9,0.9v2.1l-3.8,3.4c-0.3,0.3-0.4,0.9-0.1,1.2c0.3,0.3,0.9,0.4,1.2,0.1l2.7-2.4v3.7l-3.8,3.4
c-0.3,0.3-0.4,0.9-0.1,1.2c0.3,0.3,0.9,0.4,1.2,0.1l2.7-2.4v3.7c0,0.5,0.4,0.9,0.9,0.9s0.9-0.4,0.9-0.9v-3.7l2.7,2.4
c0.3,0.3,0.9,0.3,1.2-0.1c0.3-0.3,0.3-0.9-0.1-1.2l-3.8-3.4v-3.7L25.6,35.9z"/>
</svg>
