<svg width="102" height="97" viewBox="0 0 102 97" fill="none" xmlns="http://www.w3.org/2000/svg">
<g opacity="0.5">
<path d="M79.797 16H1.20298C0.538682 16 0 16.5387 0 17.203V95.797C0 96.4613 0.538682 97 1.20298 97H79.797C80.4613 97 81 96.4613 81 95.797V17.203C81 16.5387 80.4613 16 79.797 16ZM59.5872 18.406C58.127 18.7483 56.6652 19.1255 55.2032 19.5401C48.6353 21.4026 42.0474 23.9945 35.6193 27.2427C34.8895 26.7825 33.5106 25.8496 32.0796 24.5469C30.4897 23.0995 28.5732 20.9412 27.7601 18.406H59.5872ZM25.2592 18.406C26.4286 23.1628 30.7017 26.7652 33.1804 28.5098C25.9656 32.3658 20.9341 36.0049 18.7502 37.683C14.6392 29.347 7.73582 21.9046 4.20899 18.406H25.2592ZM2.40595 20.0196C5.86301 23.4556 12.9485 31.0692 16.861 39.2997C11.1695 44.709 5.05301 46.6348 2.40595 47.2524V20.0196ZM2.40595 49.7229C4.8551 49.2261 11.1263 47.5046 17.2963 42.1537C17.3664 43.5152 17.4229 45.406 17.3895 47.7306C17.3799 48.3949 17.9108 48.9412 18.5751 48.9505C18.5811 48.9505 18.5868 48.9507 18.5928 48.9507C19.2492 48.9507 19.7858 48.4233 19.7953 47.765C19.8504 43.9317 19.6722 41.2698 19.5705 40.0969C20.6044 39.2802 23.2459 37.2696 27.1701 34.7907C27.0863 36.1201 27.0603 37.8844 27.2505 39.871C27.761 45.2024 29.6231 49.7534 32.6506 53.0964C30.9376 56.3345 29.4032 60.1665 28.4952 64.5236C24.0239 62.6068 20.4723 61.4918 18.7977 61.0085C19.2207 57.8442 19.4792 54.9444 19.6275 52.3802C19.6658 51.717 19.1593 51.1483 18.4958 51.1099C17.8322 51.0705 17.2639 51.578 17.2255 52.2415C16.9445 57.1035 16.2625 63.189 14.7792 70.0256C10.0646 70.4557 5.10047 73.8361 2.40627 75.9553V49.7229H2.40595ZM41.3163 71.3026C45.9124 66.2996 53.6873 66.0191 56.8017 66.1282C56.1719 71.2045 55.196 76.5552 53.6965 81.5368C49.8884 77.414 45.5347 74.0246 41.3163 71.3026ZM46.1983 77.8043C35.0896 84.1499 18.3995 84.6803 13.132 84.6793C15.8328 76.9819 17.4731 69.7392 18.4498 63.4182C22.4878 64.6233 35.3285 68.9352 46.1983 77.8043ZM50.2554 64.1926C49.0746 61.5579 45.2763 53.979 38.4728 48.375C38.7555 47.9955 39.0342 47.6329 39.3057 47.2904C42.4987 43.2643 45.435 40.9447 45.9026 40.5857C46.5737 40.2355 51.3701 37.7816 57.6309 35.7793C57.837 39.201 58.2276 48.0463 57.5551 58.1466C57.4368 59.9251 57.2806 61.7989 57.077 63.7291C55.5722 63.6625 53.0522 63.6734 50.2554 64.1926ZM47.8612 64.7579C44.2493 65.7951 41.3619 67.5557 39.2473 70.0126C36.3586 68.2717 33.5892 66.8473 31.1697 65.7199C31.0277 65.6538 30.8877 65.5897 30.7469 65.525C31.9602 59.2847 34.5546 54.147 37.0827 50.3484C43.0162 55.3021 46.5709 62.0107 47.8612 64.7579ZM2.40595 94.594V79.0802C3.09524 78.4787 4.65924 77.1715 6.64817 75.8683C9.43761 74.0409 12.0151 72.9065 14.2066 72.5282C12.5653 79.3679 10.1117 86.8688 6.47858 94.5939H2.40595V94.594ZM9.13386 94.5939C10.2955 92.0593 11.3326 89.5508 12.2598 87.0824C12.549 87.0867 12.9043 87.09 13.3215 87.09C15.6517 87.09 19.8774 86.9886 24.8887 86.4047C34.5916 85.2738 42.4052 82.9364 48.1368 79.4551C49.7802 80.9169 51.3602 82.4906 52.837 84.1814C51.4684 88.0834 49.7365 91.6678 47.5476 94.5939H9.13386ZM50.4863 94.594C53.1752 90.5277 55.3459 85.2359 56.9512 78.8201C57.3788 77.111 57.7658 75.3181 58.1143 73.4507C59.2281 72.9724 62.0006 71.9057 65.5526 71.4266C65.6211 75.4235 66.1803 87.1694 70.2648 94.594H50.4863ZM78.594 70.6948C77.6746 70.2964 76.7271 69.9574 75.7603 69.6839C75.121 69.5033 74.4561 69.8746 74.2753 70.514C74.0944 71.1532 74.4659 71.8182 75.1053 71.999C76.3093 72.3395 77.4793 72.793 78.594 73.3474V94.5942H73.0717C68.5972 87.8513 68.0277 75.0458 67.9595 71.2104C69.1311 71.1588 70.357 71.1849 71.613 71.3228C72.2732 71.3961 72.8676 70.9188 72.9402 70.2585C73.0128 69.5981 72.5361 69.0039 71.8758 68.9313C66.2488 68.3133 61.2773 69.6869 58.5961 70.6671C59.2097 66.8171 59.6658 62.6747 59.958 58.2736C59.9833 57.893 60.0069 57.5142 60.0292 57.1374C60.8582 56.3972 63.7764 53.7036 66.9055 49.7825C67.1115 49.5245 67.3126 49.267 67.5113 49.0097C68.8903 51.4277 72.0655 55.5503 78.594 58.1931V70.6948ZM59.9968 35.0676C64.0773 33.9186 68.5942 33.0655 72.9147 33.1152C71.66 39.0078 68.008 44.5376 65.0539 48.2453C63.242 50.5191 61.4798 52.3847 60.1991 53.6577C60.5405 44.8604 60.1631 37.6267 59.9968 35.0676ZM78.594 55.5761C72.3036 52.7281 69.8111 48.3597 69.1066 46.8471C72.405 42.1459 74.4972 37.586 75.346 33.2435C76.4545 33.3522 77.5409 33.5324 78.594 33.7926V55.5761ZM78.594 31.3221C72.6972 30.0187 65.3643 30.7548 56.7655 33.52C53.1403 34.686 50.0286 35.9826 47.8708 36.9619L49.9802 32.6559C50.2724 32.0592 50.0257 31.3387 49.429 31.0464C48.8326 30.7542 48.1118 31.0008 47.8194 31.5976L44.2989 38.7839C43.4646 39.4361 40.6122 41.7847 37.4729 45.7295C36.3459 47.1456 35.1105 48.8673 33.9072 50.8692C28.6818 44.4902 29.4481 35.4683 29.739 33.2153C31.7705 32.0065 34.0559 30.7311 36.5677 29.4577C41.6479 26.8822 46.8286 24.7281 52.0167 23.0294L49.7128 27.7327C49.4206 28.3294 49.6672 29.0499 50.264 29.3422C50.4344 29.4256 50.6146 29.4651 50.7924 29.4651C51.2369 29.4651 51.6646 29.2176 51.8735 28.7912L55.1741 22.0536C55.4027 21.987 55.6313 21.9192 55.8596 21.8545C63.5157 19.6833 71.1572 18.5297 78.594 18.4169V31.3221Z" fill="#3E4145"/>
</g>
<circle cx="71.5" cy="30.5" r="30.5" fill="#E6DF00"/>
<path d="M87.9729 34.6282C87.862 34.2187 87.4421 33.9787 87.0404 34.0899L81.7664 35.5415L77.9816 33.3576L83.8988 31.1951C84.1995 31.0847 84.4 30.7956 84.3992 30.4728C84.3984 30.1499 84.1964 29.8609 83.8957 29.752L77.9869 27.6202L81.755 25.4332L87.032 26.8725C87.0981 26.8902 87.1649 26.8994 87.231 26.8994C87.5651 26.8994 87.8719 26.6739 87.9638 26.3319C88.0731 25.9232 87.8332 25.5022 87.4284 25.3918L83.6178 24.3528L87.1041 22.3291C87.4679 22.1182 87.5939 21.6489 87.3844 21.2824C87.1748 20.9151 86.7123 20.7886 86.3478 20.9994L82.8614 23.0223L83.8904 19.1752C83.9998 18.7665 83.7598 18.3455 83.355 18.235C82.9541 18.1254 82.5334 18.3654 82.4233 18.7757L80.9979 24.1043L77.182 26.3189L78.2952 20.0064C78.3514 19.6882 78.2041 19.3684 77.9262 19.2074C77.649 19.0471 77.302 19.0785 77.0559 19.2879L72.2596 23.4011V18.9965L76.1242 15.0941C76.4211 14.7943 76.4211 14.3097 76.1242 14.0098C75.8272 13.71 75.3473 13.71 75.0504 14.0098L72.2596 16.8279V12.7668C72.2596 12.3435 71.9194 12 71.5002 12C71.0811 12 70.7409 12.3435 70.7409 12.7668V16.8279L67.9501 14.0098C67.6532 13.71 67.1733 13.71 66.8763 14.0098C66.5794 14.3097 66.5794 14.7943 66.8763 15.0941L70.7409 18.9965V23.4287L65.8975 19.3101C65.6522 19.1023 65.3044 19.0709 65.0272 19.2334C64.7501 19.3952 64.6035 19.7158 64.6612 20.034L65.798 26.3258L61.9874 24.1265L60.5491 18.8017C60.4383 18.393 60.0198 18.1507 59.6166 18.2634C59.2118 18.3746 58.9734 18.7964 59.0835 19.2051L60.1216 23.0499L56.6299 21.0347C56.2662 20.8254 55.8022 20.9527 55.5941 21.32C55.386 21.6873 55.5129 22.1558 55.8766 22.3659L59.3675 24.3804L55.5599 25.4286C55.1552 25.5406 54.9167 25.9616 55.0269 26.3703C55.1195 26.7115 55.4248 26.9354 55.7589 26.9354C55.825 26.9354 55.8918 26.9262 55.9594 26.9078L61.2326 25.4562L65.0174 27.6401L59.1025 29.8026C58.8018 29.913 58.6005 30.2021 58.6013 30.5249C58.6021 30.8478 58.8033 31.1368 59.1055 31.2457L65.0143 33.3775L61.2462 35.5645L55.9693 34.1252C55.5622 34.014 55.1468 34.2563 55.0382 34.6658C54.9289 35.0745 55.1681 35.4955 55.5736 35.6067L59.3842 36.6457L55.8964 38.6701C55.5326 38.881 55.4073 39.3503 55.6161 39.7168C55.7566 39.9638 56.0125 40.1018 56.2753 40.1018C56.4036 40.1018 56.5335 40.0688 56.6527 39.9998L60.1398 37.9761L59.1108 41.8241C59.0015 42.2328 59.2407 42.6538 59.6462 42.765C59.7123 42.7826 59.7791 42.791 59.8444 42.791C60.1793 42.791 60.4861 42.5664 60.5772 42.2243L62.0026 36.8965L65.8193 34.6819L64.706 40.9944C64.6498 41.3134 64.7979 41.6331 65.0751 41.7942C65.1928 41.8624 65.3234 41.8961 65.4532 41.8961C65.6294 41.8961 65.8041 41.834 65.9446 41.7144L70.7409 37.6004V42.0035L66.8763 45.9066C66.5794 46.2065 66.5794 46.6911 66.8763 46.9909C67.0244 47.1405 67.2188 47.2156 67.4132 47.2156C67.6076 47.2156 67.802 47.1405 67.9501 46.9909L70.7409 44.1721V48.2332C70.7409 48.6572 71.0811 49 71.5002 49C71.9194 49 72.2596 48.6572 72.2596 48.2332V44.1721L75.0504 46.9902C75.1985 47.1397 75.3929 47.2148 75.5873 47.2148C75.7817 47.2148 75.9761 47.1397 76.1242 46.9902C76.4211 46.6903 76.4211 46.2057 76.1242 45.9059L72.2596 42.0027V37.5705L77.103 41.6883C77.3491 41.8961 77.6961 41.9261 77.9733 41.7658C78.2497 41.6032 78.397 41.2827 78.3385 40.9645L77.2025 34.6734L81.0139 36.8727L82.4514 42.1967C82.5433 42.538 82.8493 42.7619 83.1834 42.7619C83.2502 42.7619 83.3171 42.7535 83.3839 42.7351C83.7887 42.6231 84.0279 42.2021 83.917 41.7934L82.8789 37.9485L86.3698 39.963C86.4883 40.032 86.6181 40.0642 86.7457 40.0642C87.0092 40.0642 87.2659 39.9254 87.4056 39.6777C87.6137 39.3104 87.4869 38.8419 87.1231 38.6318L83.6315 36.6181L87.4398 35.5699C87.8445 35.4579 88.0838 35.0361 87.9729 34.6282ZM81.3958 30.4789L76.2517 32.3592L73.0274 30.4981L76.2563 28.6247L81.3958 30.4789ZM76.4302 21.8353L75.4643 27.315L72.2596 29.1745V25.4117L76.4302 21.8353ZM66.5346 21.8567L70.7409 25.434V29.1791L67.5218 27.3211L66.5346 21.8567ZM61.6047 30.5203L66.748 28.6401L69.9731 30.5012L66.7442 32.3745L61.6047 30.5203ZM66.5703 39.164L67.537 33.6842L70.7409 31.8247V35.5867L66.5703 39.164ZM76.4666 39.1425L72.2596 35.566V31.8209L75.4794 33.6789L76.4666 39.1425Z" fill="black"/>
</svg>
