<svg width="102" height="97" viewBox="0 0 102 97" fill="none" xmlns="http://www.w3.org/2000/svg">
<g opacity="0.5">
<path d="M79.797 16H1.20298C0.538682 16 0 16.5387 0 17.203V95.797C0 96.4613 0.538682 97 1.20298 97H79.797C80.4613 97 81 96.4613 81 95.797V17.203C81 16.5387 80.4613 16 79.797 16ZM59.5872 18.406C58.127 18.7483 56.6652 19.1255 55.2032 19.5401C48.6353 21.4026 42.0474 23.9945 35.6193 27.2427C34.8895 26.7825 33.5106 25.8496 32.0796 24.5469C30.4897 23.0995 28.5732 20.9412 27.7601 18.406H59.5872ZM25.2592 18.406C26.4286 23.1628 30.7017 26.7652 33.1804 28.5098C25.9656 32.3658 20.9341 36.0049 18.7502 37.683C14.6392 29.347 7.73582 21.9046 4.20899 18.406H25.2592ZM2.40595 20.0196C5.86301 23.4556 12.9485 31.0692 16.861 39.2997C11.1695 44.709 5.05301 46.6348 2.40595 47.2524V20.0196ZM2.40595 49.7229C4.8551 49.2261 11.1263 47.5046 17.2963 42.1537C17.3664 43.5152 17.4229 45.406 17.3895 47.7306C17.3799 48.3949 17.9108 48.9412 18.5751 48.9505C18.5811 48.9505 18.5868 48.9507 18.5928 48.9507C19.2492 48.9507 19.7858 48.4233 19.7953 47.765C19.8504 43.9317 19.6722 41.2698 19.5705 40.0969C20.6044 39.2802 23.2459 37.2696 27.1701 34.7907C27.0863 36.1201 27.0603 37.8844 27.2505 39.871C27.761 45.2024 29.6231 49.7534 32.6506 53.0964C30.9376 56.3345 29.4032 60.1665 28.4952 64.5236C24.0239 62.6068 20.4723 61.4918 18.7977 61.0085C19.2207 57.8442 19.4792 54.9444 19.6275 52.3802C19.6658 51.717 19.1593 51.1483 18.4958 51.1099C17.8322 51.0705 17.2639 51.578 17.2255 52.2415C16.9445 57.1035 16.2625 63.189 14.7792 70.0256C10.0646 70.4557 5.10047 73.8361 2.40627 75.9553V49.7229H2.40595ZM41.3163 71.3026C45.9124 66.2996 53.6873 66.0191 56.8017 66.1282C56.1719 71.2045 55.196 76.5552 53.6965 81.5368C49.8884 77.414 45.5347 74.0246 41.3163 71.3026ZM46.1983 77.8043C35.0896 84.1499 18.3995 84.6803 13.132 84.6793C15.8328 76.9819 17.4731 69.7392 18.4498 63.4182C22.4878 64.6233 35.3285 68.9352 46.1983 77.8043ZM50.2554 64.1926C49.0746 61.5579 45.2763 53.979 38.4728 48.375C38.7555 47.9955 39.0342 47.6329 39.3057 47.2904C42.4987 43.2643 45.435 40.9447 45.9026 40.5857C46.5737 40.2355 51.3701 37.7816 57.6309 35.7793C57.837 39.201 58.2276 48.0463 57.5551 58.1466C57.4368 59.9251 57.2806 61.7989 57.077 63.7291C55.5722 63.6625 53.0522 63.6734 50.2554 64.1926ZM47.8612 64.7579C44.2493 65.7951 41.3619 67.5557 39.2473 70.0126C36.3586 68.2717 33.5892 66.8473 31.1697 65.7199C31.0277 65.6538 30.8877 65.5897 30.7469 65.525C31.9602 59.2847 34.5546 54.147 37.0827 50.3484C43.0162 55.3021 46.5709 62.0107 47.8612 64.7579ZM2.40595 94.594V79.0802C3.09524 78.4787 4.65924 77.1715 6.64817 75.8683C9.43761 74.0409 12.0151 72.9065 14.2066 72.5282C12.5653 79.3679 10.1117 86.8688 6.47858 94.5939H2.40595V94.594ZM9.13386 94.5939C10.2955 92.0593 11.3326 89.5508 12.2598 87.0824C12.549 87.0867 12.9043 87.09 13.3215 87.09C15.6517 87.09 19.8774 86.9886 24.8887 86.4047C34.5916 85.2738 42.4052 82.9364 48.1368 79.4551C49.7802 80.9169 51.3602 82.4906 52.837 84.1814C51.4684 88.0834 49.7365 91.6678 47.5476 94.5939H9.13386ZM50.4863 94.594C53.1752 90.5277 55.3459 85.2359 56.9512 78.8201C57.3788 77.111 57.7658 75.3181 58.1143 73.4507C59.2281 72.9724 62.0006 71.9057 65.5526 71.4266C65.6211 75.4235 66.1803 87.1694 70.2648 94.594H50.4863ZM78.594 70.6948C77.6746 70.2964 76.7271 69.9574 75.7603 69.6839C75.121 69.5033 74.4561 69.8746 74.2753 70.514C74.0944 71.1532 74.4659 71.8182 75.1053 71.999C76.3093 72.3395 77.4793 72.793 78.594 73.3474V94.5942H73.0717C68.5972 87.8513 68.0277 75.0458 67.9595 71.2104C69.1311 71.1588 70.357 71.1849 71.613 71.3228C72.2732 71.3961 72.8676 70.9188 72.9402 70.2585C73.0128 69.5981 72.5361 69.0039 71.8758 68.9313C66.2488 68.3133 61.2773 69.6869 58.5961 70.6671C59.2097 66.8171 59.6658 62.6747 59.958 58.2736C59.9833 57.893 60.0069 57.5142 60.0292 57.1374C60.8582 56.3972 63.7764 53.7036 66.9055 49.7825C67.1115 49.5245 67.3126 49.267 67.5113 49.0097C68.8903 51.4277 72.0655 55.5503 78.594 58.1931V70.6948ZM59.9968 35.0676C64.0773 33.9186 68.5942 33.0655 72.9147 33.1152C71.66 39.0078 68.008 44.5376 65.0539 48.2453C63.242 50.5191 61.4798 52.3847 60.1991 53.6577C60.5405 44.8604 60.1631 37.6267 59.9968 35.0676ZM78.594 55.5761C72.3036 52.7281 69.8111 48.3597 69.1066 46.8471C72.405 42.1459 74.4972 37.586 75.346 33.2435C76.4545 33.3522 77.5409 33.5324 78.594 33.7926V55.5761ZM78.594 31.3221C72.6972 30.0187 65.3643 30.7548 56.7655 33.52C53.1403 34.686 50.0286 35.9826 47.8708 36.9619L49.9802 32.6559C50.2724 32.0592 50.0257 31.3387 49.429 31.0464C48.8326 30.7542 48.1118 31.0008 47.8194 31.5976L44.2989 38.7839C43.4646 39.4361 40.6122 41.7847 37.4729 45.7295C36.3459 47.1456 35.1105 48.8673 33.9072 50.8692C28.6818 44.4902 29.4481 35.4683 29.739 33.2153C31.7705 32.0065 34.0559 30.7311 36.5677 29.4577C41.6479 26.8822 46.8286 24.7281 52.0167 23.0294L49.7128 27.7327C49.4206 28.3294 49.6672 29.0499 50.264 29.3422C50.4344 29.4256 50.6146 29.4651 50.7924 29.4651C51.2369 29.4651 51.6646 29.2176 51.8735 28.7912L55.1741 22.0536C55.4027 21.987 55.6313 21.9192 55.8596 21.8545C63.5157 19.6833 71.1572 18.5297 78.594 18.4169V31.3221Z" fill="#3E4145"/>
</g>
<circle cx="71.5" cy="30.5" r="30.5" fill="#E6DF00"/>
<path d="M54.0043 42.1983C54.0189 41.9305 54.0932 41.6598 54.225 41.3869C54.2474 41.3266 54.2773 41.2709 54.3123 41.2195C54.8708 40.2374 56.1793 39.2258 58.2219 38.2003C60.1637 37.2253 62.5559 36.3721 63.9103 36.1717C64.0005 36.1581 64.0927 36.1621 64.1814 36.1828C64.1961 36.1862 65.6685 36.5232 67.4163 36.5232C69.3872 36.5232 71.9183 36.095 72.7834 34.0549C73.1749 33.1315 73.5335 32.0675 73.9131 30.9412C75.2879 26.862 77.1707 21.2755 83.068 15.2251C83.2702 15.0175 83.5688 14.9466 83.8383 15.0413C83.9237 15.0714 85.9482 15.8017 87.659 17.9916C88.6944 19.3172 89.7439 21.3697 89.9595 24.3574C89.9732 24.4263 89.9775 24.4953 89.9732 24.5631C90.0585 26.0209 89.9471 27.6954 89.5426 29.6124C88.2033 35.9581 87.4603 40.8727 87.3346 44.2195C87.3166 44.6988 87.2963 45.2422 86.9062 45.6233C86.5489 45.9723 86.0875 46 85.5214 46H83.9173C83.9166 46 83.9161 46 83.9158 46C83.9147 46 83.9139 45.9998 83.9128 45.9998H80.2839C79.8696 45.9998 79.5338 45.6527 79.5338 45.2248C79.5338 44.7969 79.8695 44.4498 80.2839 44.4498H83.1758C83.1773 43.4568 83.1477 41.6026 82.9505 39.6339C82.7604 37.7367 82.4578 36.1672 82.0635 34.9895C82.0633 34.989 82.0631 34.9885 82.0628 34.988C81.8538 34.364 81.6189 33.8501 81.3612 33.456C80.5519 34.9172 79.9081 36.2671 79.3288 37.4819C78.0567 40.1497 77.0519 42.2569 75.1921 43.7399C73.2321 45.303 70.4781 45.9999 66.2624 45.9999C59.3095 45.9999 55.9425 45.4194 54.6408 43.9961C54.1806 43.4932 53.9664 42.8883 54.0043 42.1983ZM82.9092 33.1272C83.1498 32.7636 83.3753 32.4388 83.5943 32.1399C83.8443 31.7987 84.3148 31.7313 84.6451 31.9898C84.9755 32.2481 85.0404 32.7342 84.7904 33.0755C84.4296 33.5679 84.0468 34.1407 83.5978 34.8601C83.9771 36.1039 84.2595 37.644 84.4428 39.4745C84.6483 41.5249 84.6791 43.4218 84.6771 44.45H85.5215C85.6535 44.45 85.7497 44.4476 85.8198 44.444C85.8253 44.376 85.8309 44.284 85.8356 44.1595C85.9647 40.7221 86.7187 35.7166 88.0768 29.2822C88.3488 27.9932 88.4915 26.7807 88.5073 25.6462C88.0773 25.8433 87.6751 26.0528 87.2949 26.2793C85.3028 27.466 83.7927 29.1509 82.1692 32.022C82.4369 32.3238 82.6834 32.6931 82.9092 33.1272ZM55.7311 42.9316C56.976 44.2926 62.3377 44.45 66.2624 44.45C74.3338 44.45 75.5534 41.8924 77.9833 36.7969C78.6893 35.3161 79.4897 33.6379 80.5729 31.7828C82.4271 28.3735 84.2139 26.3254 86.5457 24.9365C87.1272 24.5901 87.7497 24.2805 88.4342 23.9957C88.2282 22.068 87.5967 20.4062 86.5399 19.0274C85.5297 17.7094 84.3707 17.0015 83.768 16.696C78.3991 22.344 76.7006 27.3838 75.3299 31.4508C74.9405 32.6064 74.5726 33.698 74.1576 34.6767C73.2154 36.8986 70.8843 38.0731 67.4164 38.0731C65.8045 38.0731 64.4362 37.818 63.9969 37.7264C62.9302 37.9137 60.8368 38.6106 58.8777 39.5943C57.7512 40.1599 56.974 40.666 56.4516 41.0897C57.6207 41.2241 59.4903 41.3938 61.944 41.4694C62.358 41.4821 62.6836 41.8393 62.6712 42.2672C62.6592 42.6871 62.3258 43.019 61.922 43.019C61.9143 43.019 61.9067 43.0189 61.8991 43.0187C58.7531 42.9216 56.5721 42.6783 55.5189 42.5363C55.549 42.681 55.6171 42.8068 55.7311 42.9316Z" fill="black"/>
<path d="M85.2694 30.5594C85.4076 30.4237 85.4768 30.3557 85.6416 30.2079C85.9794 29.9052 86.4955 29.9367 86.7946 30.2783C87.0936 30.62 87.0626 31.1423 86.7249 31.445C86.588 31.5677 86.5389 31.616 86.4075 31.7451L86.3856 31.7666C86.2268 31.9225 86.0217 32 85.8167 32C85.6037 32 85.3908 31.9161 85.2307 31.7493C84.9165 31.4218 84.9243 30.8986 85.2478 30.5806L85.2694 30.5594Z" fill="black"/>
<path d="M63.7977 41C63.95 41.0009 64.0503 41.0013 64.2059 41.0013C64.6443 41.0013 65 41.4489 65 42.0007C65 42.5525 64.6443 43 64.2059 43C64.0476 43 63.9455 42.9996 63.7904 42.9987C63.352 42.9962 62.9981 42.5468 63 41.9948C63.0021 41.4429 63.3567 40.9978 63.7977 41Z" fill="black"/>
<path d="M88.7542 44H89.2459C89.6623 44 90 44.4477 90 45C90 45.5522 89.6623 46 89.2459 46H88.7541C88.3378 46 88 45.5522 88 45C88.0001 44.4477 88.3379 44 88.7542 44Z" fill="black"/>
</svg>
