<svg width="102" height="97" viewBox="0 0 102 97" fill="none" xmlns="http://www.w3.org/2000/svg">
<g opacity="0.5">
<path d="M79.797 16H1.20298C0.538682 16 0 16.5387 0 17.203V95.797C0 96.4613 0.538682 97 1.20298 97H79.797C80.4613 97 81 96.4613 81 95.797V17.203C81 16.5387 80.4613 16 79.797 16ZM59.5872 18.406C58.127 18.7483 56.6652 19.1255 55.2032 19.5401C48.6353 21.4026 42.0474 23.9945 35.6193 27.2427C34.8895 26.7825 33.5106 25.8496 32.0796 24.5469C30.4897 23.0995 28.5732 20.9412 27.7601 18.406H59.5872ZM25.2592 18.406C26.4286 23.1628 30.7017 26.7652 33.1804 28.5098C25.9656 32.3658 20.9341 36.0049 18.7502 37.683C14.6392 29.347 7.73582 21.9046 4.20899 18.406H25.2592ZM2.40595 20.0196C5.86301 23.4556 12.9485 31.0692 16.861 39.2997C11.1695 44.709 5.05301 46.6348 2.40595 47.2524V20.0196ZM2.40595 49.7229C4.8551 49.2261 11.1263 47.5046 17.2963 42.1537C17.3664 43.5152 17.4229 45.406 17.3895 47.7306C17.3799 48.3949 17.9108 48.9412 18.5751 48.9505C18.5811 48.9505 18.5868 48.9507 18.5928 48.9507C19.2492 48.9507 19.7858 48.4233 19.7953 47.765C19.8504 43.9317 19.6722 41.2698 19.5705 40.0969C20.6044 39.2802 23.2459 37.2696 27.1701 34.7907C27.0863 36.1201 27.0603 37.8844 27.2505 39.871C27.761 45.2024 29.6231 49.7534 32.6506 53.0964C30.9376 56.3345 29.4032 60.1665 28.4952 64.5236C24.0239 62.6068 20.4723 61.4918 18.7977 61.0085C19.2207 57.8442 19.4792 54.9444 19.6275 52.3802C19.6658 51.717 19.1593 51.1483 18.4958 51.1099C17.8322 51.0705 17.2639 51.578 17.2255 52.2415C16.9445 57.1035 16.2625 63.189 14.7792 70.0256C10.0646 70.4557 5.10047 73.8361 2.40627 75.9553V49.7229H2.40595ZM41.3163 71.3026C45.9124 66.2996 53.6873 66.0191 56.8017 66.1282C56.1719 71.2045 55.196 76.5552 53.6965 81.5368C49.8884 77.414 45.5347 74.0246 41.3163 71.3026ZM46.1983 77.8043C35.0896 84.1499 18.3995 84.6803 13.132 84.6793C15.8328 76.9819 17.4731 69.7392 18.4498 63.4182C22.4878 64.6233 35.3285 68.9352 46.1983 77.8043ZM50.2554 64.1926C49.0746 61.5579 45.2763 53.979 38.4728 48.375C38.7555 47.9955 39.0342 47.6329 39.3057 47.2904C42.4987 43.2643 45.435 40.9447 45.9026 40.5857C46.5737 40.2355 51.3701 37.7816 57.6309 35.7793C57.837 39.201 58.2276 48.0463 57.5551 58.1466C57.4368 59.9251 57.2806 61.7989 57.077 63.7291C55.5722 63.6625 53.0522 63.6734 50.2554 64.1926ZM47.8612 64.7579C44.2493 65.7951 41.3619 67.5557 39.2473 70.0126C36.3586 68.2717 33.5892 66.8473 31.1697 65.7199C31.0277 65.6538 30.8877 65.5897 30.7469 65.525C31.9602 59.2847 34.5546 54.147 37.0827 50.3484C43.0162 55.3021 46.5709 62.0107 47.8612 64.7579ZM2.40595 94.594V79.0802C3.09524 78.4787 4.65924 77.1715 6.64817 75.8683C9.43761 74.0409 12.0151 72.9065 14.2066 72.5282C12.5653 79.3679 10.1117 86.8688 6.47858 94.5939H2.40595V94.594ZM9.13386 94.5939C10.2955 92.0593 11.3326 89.5508 12.2598 87.0824C12.549 87.0867 12.9043 87.09 13.3215 87.09C15.6517 87.09 19.8774 86.9886 24.8887 86.4047C34.5916 85.2738 42.4052 82.9364 48.1368 79.4551C49.7802 80.9169 51.3602 82.4906 52.837 84.1814C51.4684 88.0834 49.7365 91.6678 47.5476 94.5939H9.13386ZM50.4863 94.594C53.1752 90.5277 55.3459 85.2359 56.9512 78.8201C57.3788 77.111 57.7658 75.3181 58.1143 73.4507C59.2281 72.9724 62.0006 71.9057 65.5526 71.4266C65.6211 75.4235 66.1803 87.1694 70.2648 94.594H50.4863ZM78.594 70.6948C77.6746 70.2964 76.7271 69.9574 75.7603 69.6839C75.121 69.5033 74.4561 69.8746 74.2753 70.514C74.0944 71.1532 74.4659 71.8182 75.1053 71.999C76.3093 72.3395 77.4793 72.793 78.594 73.3474V94.5942H73.0717C68.5972 87.8513 68.0277 75.0458 67.9595 71.2104C69.1311 71.1588 70.357 71.1849 71.613 71.3228C72.2732 71.3961 72.8676 70.9188 72.9402 70.2585C73.0128 69.5981 72.5361 69.0039 71.8758 68.9313C66.2488 68.3133 61.2773 69.6869 58.5961 70.6671C59.2097 66.8171 59.6658 62.6747 59.958 58.2736C59.9833 57.893 60.0069 57.5142 60.0292 57.1374C60.8582 56.3972 63.7764 53.7036 66.9055 49.7825C67.1115 49.5245 67.3126 49.267 67.5113 49.0097C68.8903 51.4277 72.0655 55.5503 78.594 58.1931V70.6948ZM59.9968 35.0676C64.0773 33.9186 68.5942 33.0655 72.9147 33.1152C71.66 39.0078 68.008 44.5376 65.0539 48.2453C63.242 50.5191 61.4798 52.3847 60.1991 53.6577C60.5405 44.8604 60.1631 37.6267 59.9968 35.0676ZM78.594 55.5761C72.3036 52.7281 69.8111 48.3597 69.1066 46.8471C72.405 42.1459 74.4972 37.586 75.346 33.2435C76.4545 33.3522 77.5409 33.5324 78.594 33.7926V55.5761ZM78.594 31.3221C72.6972 30.0187 65.3643 30.7548 56.7655 33.52C53.1403 34.686 50.0286 35.9826 47.8708 36.9619L49.9802 32.6559C50.2724 32.0592 50.0257 31.3387 49.429 31.0464C48.8326 30.7542 48.1118 31.0008 47.8194 31.5976L44.2989 38.7839C43.4646 39.4361 40.6122 41.7847 37.4729 45.7295C36.3459 47.1456 35.1105 48.8673 33.9072 50.8692C28.6818 44.4902 29.4481 35.4683 29.739 33.2153C31.7705 32.0065 34.0559 30.7311 36.5677 29.4577C41.6479 26.8822 46.8286 24.7281 52.0167 23.0294L49.7128 27.7327C49.4206 28.3294 49.6672 29.0499 50.264 29.3422C50.4344 29.4256 50.6146 29.4651 50.7924 29.4651C51.2369 29.4651 51.6646 29.2176 51.8735 28.7912L55.1741 22.0536C55.4027 21.987 55.6313 21.9192 55.8596 21.8545C63.5157 19.6833 71.1572 18.5297 78.594 18.4169V31.3221Z" fill="#3E4145"/>
</g>
<circle cx="71.5" cy="30.5" r="30.5" fill="#E6DF00"/>
<path d="M86.0625 18.552C83.6566 18.552 81.8308 17.1439 79.8974 15.6535C77.6763 13.941 75.1589 12 71.4167 12C67.6745 12 65.1571 13.941 62.9359 15.6535C61.0027 17.1439 59.1767 18.552 56.7709 18.552C56.3453 18.552 56 18.8971 56 19.3228C56 28.3231 57.1209 34.3161 59.6345 38.7546C62.1304 43.1619 65.8458 45.9029 71.0312 48.8967C71.1505 48.9656 71.2835 49 71.4166 49C71.5498 49 71.6828 48.9655 71.802 48.8967C76.9875 45.9029 80.7028 43.162 83.1989 38.7546C85.7124 34.3161 86.8333 28.3231 86.8333 19.3228C86.8334 18.8971 86.4881 18.552 86.0625 18.552ZM71.4167 47.3379C62.1186 41.916 57.6659 37.2451 57.5443 20.0549C60.084 19.7991 62.0096 18.3144 63.8774 16.8743C66.0024 15.236 68.1998 13.5416 71.4167 13.5416C74.6335 13.5416 76.8309 15.2358 78.956 16.8743C80.8237 18.3144 82.7494 19.799 85.2891 20.0549C85.1675 37.2451 80.7148 41.916 71.4167 47.3379Z" fill="black"/>
<path d="M62.309 20.8034C62.1105 20.4267 61.6444 20.2822 61.2677 20.4806C61.1719 20.531 61.0748 20.5805 60.9774 20.6286C60.5955 20.8166 60.4383 21.2787 60.6263 21.6607C60.7604 21.9332 61.034 22.0911 61.3184 22.0911C61.4327 22.0911 61.5489 22.0656 61.6584 22.0117C61.7684 21.9575 61.8779 21.9017 61.9859 21.8448C62.3627 21.6463 62.5073 21.1802 62.309 20.8034Z" fill="black"/>
<path d="M82.6622 26.8483C82.6858 26.8504 82.7095 26.8515 82.7328 26.8515C83.127 26.8515 83.4633 26.5507 83.4996 26.1504C83.5086 26.0519 83.5171 25.9531 83.5254 25.8547C83.5614 25.4304 83.2466 25.0574 82.8224 25.0214C82.3987 24.9849 82.0251 25.3002 81.9893 25.7245C81.9812 25.8197 81.9729 25.9154 81.9641 26.0107C81.9258 26.4348 82.2382 26.8098 82.6622 26.8483Z" fill="black"/>
<path d="M63.8341 20.5365C63.9904 20.5365 64.1482 20.4891 64.2846 20.3904C64.7312 20.068 65.1661 19.737 65.5866 19.4166C67.5542 17.9186 69.2534 16.6247 71.4182 16.6247C71.8439 16.6247 72.189 16.2796 72.189 15.8539C72.189 15.4283 71.8439 15.083 71.4182 15.083C68.7332 15.083 66.7511 16.5921 64.6527 18.1901C64.2398 18.5046 63.8128 18.8296 63.3822 19.1405C63.0369 19.3898 62.9593 19.8715 63.2085 20.2167C63.3591 20.4255 63.5949 20.5365 63.8341 20.5365Z" fill="black"/>
<path d="M71.4187 43.7454C69.446 42.5291 67.0633 40.8958 65.2768 38.7895C65.0014 38.4648 64.5149 38.425 64.1903 38.7001C63.8655 38.9755 63.8256 39.462 64.1009 39.7867C66.1534 42.2068 68.8762 44.0087 71.0189 45.3082C71.0228 45.3104 71.027 45.3121 71.0309 45.3143C71.0494 45.325 71.0683 45.3344 71.0876 45.3435C71.1 45.3494 71.1123 45.3559 71.1248 45.361C71.1421 45.3681 71.1597 45.3737 71.1775 45.3795C71.1924 45.3844 71.2071 45.3901 71.2221 45.394C71.2382 45.3983 71.2546 45.4008 71.2709 45.404C71.2873 45.4073 71.3037 45.4114 71.3203 45.4135C71.3437 45.4165 71.3671 45.4172 71.3908 45.4182C71.3998 45.4185 71.4089 45.42 71.4179 45.42C71.4182 45.42 71.4185 45.42 71.4187 45.42C71.419 45.42 71.4193 45.42 71.4195 45.42C71.4285 45.42 71.4375 45.4185 71.4466 45.4182C71.4702 45.4172 71.4938 45.4166 71.5172 45.4135C71.5336 45.4114 71.5497 45.4073 71.566 45.4042C71.5825 45.401 71.5991 45.3985 71.6154 45.394C71.6303 45.3901 71.6449 45.3846 71.6596 45.3797C71.6773 45.3739 71.6952 45.3683 71.7127 45.3611C71.7252 45.356 71.7373 45.3495 71.7497 45.3436C71.7689 45.3344 71.788 45.3251 71.8064 45.3144C71.8105 45.3122 71.8145 45.3105 71.8184 45.3083C73.9611 44.0089 76.6838 42.2071 78.7364 39.7867C81.0769 37.026 82.5522 33.2903 83.2464 28.3657C83.3058 27.9441 83.0123 27.5544 82.5907 27.4949C82.1687 27.4356 81.7793 27.7291 81.7198 28.1506C81.0674 32.7778 79.707 36.258 77.5605 38.7898C75.7742 40.8958 73.3917 42.5291 71.4187 43.7454Z" fill="black"/>
<path d="M76.3935 21.643L68.3521 29.6843L66.444 27.7759C65.972 27.3041 65.3429 27.0442 64.6724 27.0442C64.0017 27.0442 63.3725 27.3041 62.9003 27.7761C61.9238 28.7532 61.9238 30.3427 62.9006 31.3196L66.5859 35.0044L66.6179 35.0358C66.6226 35.0404 66.6274 35.0448 66.6321 35.0494L66.6644 35.0795C66.6701 35.0848 66.6758 35.0901 66.6818 35.0951L66.7149 35.1242C66.72 35.1287 66.7252 35.1331 66.7304 35.1374L66.764 35.1652C66.7678 35.1686 66.7717 35.1715 66.7756 35.1747L66.8098 35.2021C66.816 35.2071 66.8224 35.2121 66.8289 35.2168L66.864 35.2432C66.8689 35.2468 66.8737 35.2504 66.8787 35.2539L66.9139 35.2791C66.9192 35.2828 66.9244 35.2864 66.9297 35.29L66.9656 35.3143C66.9713 35.318 66.977 35.3218 66.9828 35.3255L67.019 35.3487C67.0239 35.3518 67.0288 35.3549 67.0338 35.3578L67.0706 35.38C67.0755 35.383 67.0803 35.386 67.0853 35.3889L67.1223 35.4101C67.1295 35.4143 67.1368 35.4184 67.1441 35.4223L67.1818 35.4423C67.1857 35.4444 67.1897 35.4466 67.1936 35.4484L67.2316 35.4679C67.2382 35.4714 67.245 35.4747 67.2517 35.478L67.2901 35.4962C67.2955 35.4987 67.3009 35.5011 67.3064 35.5038L67.3259 35.5125C67.3397 35.5192 67.3536 35.5253 67.3679 35.5312L67.4071 35.5472C67.4107 35.5487 67.4142 35.55 67.4178 35.5514L67.4571 35.5667C67.463 35.5691 67.469 35.5714 67.475 35.5737L67.5149 35.5882C67.5212 35.5904 67.5277 35.5928 67.5342 35.5949L67.5535 35.6014C67.5666 35.6062 67.5799 35.6105 67.5935 35.6146L67.6336 35.6268C67.6393 35.6284 67.645 35.6303 67.6508 35.6317L67.6912 35.6431C67.6968 35.6446 67.7024 35.6461 67.7082 35.6476L67.7489 35.658C67.7543 35.6594 67.76 35.6607 67.7655 35.6621L67.8062 35.6715C67.8119 35.6728 67.8178 35.6741 67.8237 35.6754L67.8645 35.6837C67.8723 35.6854 67.8801 35.6868 67.888 35.6883L67.9081 35.6918C67.9201 35.6942 67.9323 35.6965 67.9448 35.6983L67.9859 35.7046C67.992 35.7056 67.9982 35.7064 68.0044 35.7072L68.0458 35.7125C68.0516 35.7133 68.0576 35.714 68.0635 35.7146L68.0831 35.7167C68.096 35.7184 68.1089 35.7199 68.1221 35.721L68.1638 35.7244C68.1717 35.7251 68.1795 35.7257 68.1873 35.7259L68.2069 35.727C68.2197 35.7281 68.2326 35.7288 68.2455 35.7291L68.2872 35.7305C68.2915 35.7306 68.2955 35.7306 68.2997 35.7308L68.3411 35.7314C68.3449 35.7314 68.3485 35.7314 68.3523 35.7314C68.3561 35.7314 68.3597 35.7314 68.3635 35.7314L68.4052 35.7308C68.4095 35.7306 68.4135 35.7306 68.4177 35.7305L68.4596 35.7291C68.4725 35.7288 68.4854 35.728 68.4982 35.727L68.5178 35.7259C68.5258 35.7255 68.5338 35.725 68.5418 35.7244L68.5832 35.7209C68.5962 35.7198 68.6089 35.7185 68.6217 35.7168L68.6413 35.7147C68.647 35.7141 68.6527 35.7134 68.6584 35.7127L68.7001 35.7073C68.7066 35.7065 68.713 35.7056 68.7194 35.7046L68.7605 35.6983C68.7731 35.6964 68.7858 35.6941 68.7981 35.6915L68.8179 35.6881C68.8256 35.6869 68.8332 35.6854 68.8408 35.6837L68.8814 35.6753C68.8867 35.6742 68.8919 35.6732 68.8972 35.672L68.9383 35.6625C68.9448 35.661 68.9513 35.6595 68.9578 35.6578L68.9982 35.6474C69.0037 35.646 69.0089 35.6446 69.0142 35.643L69.0545 35.6317C69.0601 35.6302 69.0658 35.6285 69.0712 35.6269L69.1114 35.6147C69.1241 35.6108 69.1367 35.6066 69.1491 35.6022L69.1689 35.5957C69.176 35.5933 69.1831 35.5908 69.1901 35.5883L69.2301 35.5738C69.2361 35.5715 69.2421 35.5692 69.2479 35.5668L69.2872 35.5515C69.2916 35.5498 69.296 35.548 69.3003 35.5462L69.3392 35.5303C69.3517 35.5252 69.364 35.5196 69.3761 35.5138L69.3961 35.505C69.4026 35.5021 69.4091 35.4991 69.4156 35.4961L69.4538 35.4779C69.4589 35.4755 69.4641 35.4729 69.4691 35.4703L69.5071 35.4511C69.5193 35.445 69.5314 35.4385 69.5432 35.4317L69.5629 35.4211C69.5685 35.4181 69.5741 35.415 69.5795 35.4118L69.6168 35.3906C69.6228 35.3872 69.6286 35.3837 69.6345 35.3801L69.6713 35.3578C69.677 35.3544 69.6827 35.3507 69.6885 35.3471L69.7246 35.3239C69.7287 35.3214 69.7327 35.3187 69.7366 35.3159L69.7727 35.2918C69.7789 35.2875 69.7851 35.2834 69.7911 35.279L69.8263 35.2538C69.8323 35.2496 69.8383 35.2453 69.8441 35.2408L69.8789 35.2144C69.8831 35.2111 69.8873 35.2079 69.8915 35.2046L69.9257 35.1775C69.9347 35.1704 69.9436 35.163 69.9524 35.1556L69.9718 35.1394C69.9786 35.1339 69.9854 35.1282 69.9918 35.1224L70.0248 35.0932C70.0293 35.0894 70.0334 35.0856 70.0376 35.0818L70.0702 35.0516C70.075 35.0472 70.0796 35.0427 70.0843 35.0382L70.1163 35.0072C70.1233 35.0004 70.1301 34.9935 70.1368 34.9865L79.9375 25.186C80.9141 24.2089 80.9138 22.6193 79.9369 21.6428C79.4651 21.171 78.8359 20.9111 78.1654 20.9111C77.4947 20.9112 76.8654 21.1711 76.3935 21.643ZM78.8469 24.0961L69.0337 33.909C69.0321 33.9109 69.0302 33.9125 69.0286 33.9141L68.9569 33.9779C68.9561 33.9786 68.9553 33.9792 68.9544 33.98L68.8627 34.0449L68.7325 34.1125C68.7322 34.1126 68.7317 34.1128 68.7314 34.1129L68.6452 34.1445C68.6442 34.1448 68.6433 34.1451 68.6425 34.1454L68.5094 34.1766C68.5078 34.1769 68.5062 34.1772 68.5045 34.1775L68.4378 34.1855C68.4362 34.1858 68.4345 34.1859 68.433 34.1861L68.3952 34.1884C68.3936 34.1884 68.392 34.1885 68.3903 34.1886L68.3521 34.1894L68.3279 34.189L68.3142 34.1887C68.3126 34.1886 68.3109 34.1884 68.3093 34.1884L68.2707 34.1862C68.2694 34.186 68.2679 34.1859 68.2663 34.1855L68.2 34.1776C68.198 34.1773 68.1962 34.1768 68.1943 34.1765L68.0616 34.1455C68.0615 34.1455 68.0612 34.1454 68.061 34.1454L67.9853 34.118L67.8405 34.0442L67.7072 33.9439L63.9906 30.2293C63.615 29.8535 63.615 29.2418 63.9906 28.866C64.1713 28.6853 64.4134 28.5858 64.6724 28.5858C64.9311 28.5858 65.1732 28.6853 65.354 28.8658L67.8071 31.3193C67.9516 31.4639 68.1477 31.5451 68.352 31.5451C68.5564 31.5451 68.7525 31.4639 68.8972 31.3194L77.4838 22.733C77.6645 22.5524 77.9066 22.4528 78.1652 22.4528C78.424 22.4528 78.6659 22.5524 78.8468 22.7332C79.2224 23.1089 79.2225 23.7203 78.8469 24.0961Z" fill="black"/>
</svg>
