<svg width="102" height="97" viewBox="0 0 102 97" fill="none" xmlns="http://www.w3.org/2000/svg">
<g opacity="0.5">
<path d="M79.797 16H1.20298C0.538682 16 0 16.5387 0 17.203V95.797C0 96.4613 0.538682 97 1.20298 97H79.797C80.4613 97 81 96.4613 81 95.797V17.203C81 16.5387 80.4613 16 79.797 16ZM59.5872 18.406C58.127 18.7483 56.6652 19.1255 55.2032 19.5401C48.6353 21.4026 42.0474 23.9945 35.6193 27.2427C34.8895 26.7825 33.5106 25.8496 32.0796 24.5469C30.4897 23.0995 28.5732 20.9412 27.7601 18.406H59.5872ZM25.2592 18.406C26.4286 23.1628 30.7017 26.7652 33.1804 28.5098C25.9656 32.3658 20.9341 36.0049 18.7502 37.683C14.6392 29.347 7.73582 21.9046 4.20899 18.406H25.2592ZM2.40595 20.0196C5.86301 23.4556 12.9485 31.0692 16.861 39.2997C11.1695 44.709 5.05301 46.6348 2.40595 47.2524V20.0196ZM2.40595 49.7229C4.8551 49.2261 11.1263 47.5046 17.2963 42.1537C17.3664 43.5152 17.4229 45.406 17.3895 47.7306C17.3799 48.3949 17.9108 48.9412 18.5751 48.9505C18.5811 48.9505 18.5868 48.9507 18.5928 48.9507C19.2492 48.9507 19.7858 48.4233 19.7953 47.765C19.8504 43.9317 19.6722 41.2698 19.5705 40.0969C20.6044 39.2802 23.2459 37.2696 27.1701 34.7907C27.0863 36.1201 27.0603 37.8844 27.2505 39.871C27.761 45.2024 29.6231 49.7534 32.6506 53.0964C30.9376 56.3345 29.4032 60.1665 28.4952 64.5236C24.0239 62.6068 20.4723 61.4918 18.7977 61.0085C19.2207 57.8442 19.4792 54.9444 19.6275 52.3802C19.6658 51.717 19.1593 51.1483 18.4958 51.1099C17.8322 51.0705 17.2639 51.578 17.2255 52.2415C16.9445 57.1035 16.2625 63.189 14.7792 70.0256C10.0646 70.4557 5.10047 73.8361 2.40627 75.9553V49.7229H2.40595ZM41.3163 71.3026C45.9124 66.2996 53.6873 66.0191 56.8017 66.1282C56.1719 71.2045 55.196 76.5552 53.6965 81.5368C49.8884 77.414 45.5347 74.0246 41.3163 71.3026ZM46.1983 77.8043C35.0896 84.1499 18.3995 84.6803 13.132 84.6793C15.8328 76.9819 17.4731 69.7392 18.4498 63.4182C22.4878 64.6233 35.3285 68.9352 46.1983 77.8043ZM50.2554 64.1926C49.0746 61.5579 45.2763 53.979 38.4728 48.375C38.7555 47.9955 39.0342 47.6329 39.3057 47.2904C42.4987 43.2643 45.435 40.9447 45.9026 40.5857C46.5737 40.2355 51.3701 37.7816 57.6309 35.7793C57.837 39.201 58.2276 48.0463 57.5551 58.1466C57.4368 59.9251 57.2806 61.7989 57.077 63.7291C55.5722 63.6625 53.0522 63.6734 50.2554 64.1926ZM47.8612 64.7579C44.2493 65.7951 41.3619 67.5557 39.2473 70.0126C36.3586 68.2717 33.5892 66.8473 31.1697 65.7199C31.0277 65.6538 30.8877 65.5897 30.7469 65.525C31.9602 59.2847 34.5546 54.147 37.0827 50.3484C43.0162 55.3021 46.5709 62.0107 47.8612 64.7579ZM2.40595 94.594V79.0802C3.09524 78.4787 4.65924 77.1715 6.64817 75.8683C9.43761 74.0409 12.0151 72.9065 14.2066 72.5282C12.5653 79.3679 10.1117 86.8688 6.47858 94.5939H2.40595V94.594ZM9.13386 94.5939C10.2955 92.0593 11.3326 89.5508 12.2598 87.0824C12.549 87.0867 12.9043 87.09 13.3215 87.09C15.6517 87.09 19.8774 86.9886 24.8887 86.4047C34.5916 85.2738 42.4052 82.9364 48.1368 79.4551C49.7802 80.9169 51.3602 82.4906 52.837 84.1814C51.4684 88.0834 49.7365 91.6678 47.5476 94.5939H9.13386ZM50.4863 94.594C53.1752 90.5277 55.3459 85.2359 56.9512 78.8201C57.3788 77.111 57.7658 75.3181 58.1143 73.4507C59.2281 72.9724 62.0006 71.9057 65.5526 71.4266C65.6211 75.4235 66.1803 87.1694 70.2648 94.594H50.4863ZM78.594 70.6948C77.6746 70.2964 76.7271 69.9574 75.7603 69.6839C75.121 69.5033 74.4561 69.8746 74.2753 70.514C74.0944 71.1532 74.4659 71.8182 75.1053 71.999C76.3093 72.3395 77.4793 72.793 78.594 73.3474V94.5942H73.0717C68.5972 87.8513 68.0277 75.0458 67.9595 71.2104C69.1311 71.1588 70.357 71.1849 71.613 71.3228C72.2732 71.3961 72.8676 70.9188 72.9402 70.2585C73.0128 69.5981 72.5361 69.0039 71.8758 68.9313C66.2488 68.3133 61.2773 69.6869 58.5961 70.6671C59.2097 66.8171 59.6658 62.6747 59.958 58.2736C59.9833 57.893 60.0069 57.5142 60.0292 57.1374C60.8582 56.3972 63.7764 53.7036 66.9055 49.7825C67.1115 49.5245 67.3126 49.267 67.5113 49.0097C68.8903 51.4277 72.0655 55.5503 78.594 58.1931V70.6948ZM59.9968 35.0676C64.0773 33.9186 68.5942 33.0655 72.9147 33.1152C71.66 39.0078 68.008 44.5376 65.0539 48.2453C63.242 50.5191 61.4798 52.3847 60.1991 53.6577C60.5405 44.8604 60.1631 37.6267 59.9968 35.0676ZM78.594 55.5761C72.3036 52.7281 69.8111 48.3597 69.1066 46.8471C72.405 42.1459 74.4972 37.586 75.346 33.2435C76.4545 33.3522 77.5409 33.5324 78.594 33.7926V55.5761ZM78.594 31.3221C72.6972 30.0187 65.3643 30.7548 56.7655 33.52C53.1403 34.686 50.0286 35.9826 47.8708 36.9619L49.9802 32.6559C50.2724 32.0592 50.0257 31.3387 49.429 31.0464C48.8326 30.7542 48.1118 31.0008 47.8194 31.5976L44.2989 38.7839C43.4646 39.4361 40.6122 41.7847 37.4729 45.7295C36.3459 47.1456 35.1105 48.8673 33.9072 50.8692C28.6818 44.4902 29.4481 35.4683 29.739 33.2153C31.7705 32.0065 34.0559 30.7311 36.5677 29.4577C41.6479 26.8822 46.8286 24.7281 52.0167 23.0294L49.7128 27.7327C49.4206 28.3294 49.6672 29.0499 50.264 29.3422C50.4344 29.4256 50.6146 29.4651 50.7924 29.4651C51.2369 29.4651 51.6646 29.2176 51.8735 28.7912L55.1741 22.0536C55.4027 21.987 55.6313 21.9192 55.8596 21.8545C63.5157 19.6833 71.1572 18.5297 78.594 18.4169V31.3221Z" fill="#3E4145"/>
</g>
<circle cx="71.5" cy="30.5" r="30.5" fill="#E6DF00"/>
<path d="M71.7509 14.2687C71.9221 14.0363 72.2028 13.9 72.5002 13.9C72.7974 13.9 73.0782 14.0364 73.2492 14.2687C73.4712 14.57 76.1813 18.2688 78.8364 22.7903C80.1639 25.051 81.4788 27.5193 82.4621 29.8727C83.4444 32.2237 84.1 34.47 84.1 36.2835C84.1 42.2544 78.8897 47.1 72.5001 47.1C66.1104 47.1 60.9 42.2544 60.9 36.2835C60.9 34.47 61.5556 32.2237 62.5379 29.8727C63.5212 27.5193 64.8361 25.051 66.1636 22.7903C68.8188 18.2688 71.5289 14.57 71.7509 14.2687ZM71.7509 14.2687L71.8314 14.3281M71.7509 14.2687L71.8314 14.3281M71.7509 14.2687C71.7509 14.2687 71.7509 14.2688 71.7509 14.2688L71.8314 14.3281M71.7509 14.2687L71.8314 14.3281M71.8314 14.3281C71.9827 14.1227 72.2328 14 72.5002 14C72.7674 14 73.0176 14.1228 73.1687 14.3281H71.8314ZM72.5002 45.3882C67.102 45.3882 62.7225 41.2972 62.7225 36.2835C62.7225 34.876 63.1894 33.1223 63.9326 31.2255C64.6752 29.3306 65.69 27.3013 66.7785 25.3453C68.9055 21.523 71.3096 17.9874 72.5002 16.2923C73.6907 17.9874 76.0948 21.523 78.2218 25.3453C79.3102 27.3013 80.3251 29.3305 81.0676 31.2254C81.8109 33.1223 82.2777 34.876 82.2777 36.2835C82.2777 41.2972 77.8982 45.3882 72.5002 45.3882Z" fill="black" stroke="black" stroke-width="0.2"/>
<path d="M71.9 42.2388C71.9 42.7144 72.2854 43.1 72.7612 43.1C76.8079 43.1 80.1 39.8079 80.1 35.7612C80.1 35.2856 79.7146 34.9 79.2388 34.9C78.7631 34.9 78.3777 35.2856 78.3777 35.7612C78.3777 38.858 75.858 41.3776 72.7612 41.3776C72.2854 41.3776 71.9 41.7632 71.9 42.2388Z" fill="black" stroke="black" stroke-width="0.2"/>
<circle cx="56.5" cy="43.5" r="1" stroke="black"/>
<circle cx="86" cy="20" r="2.25" stroke="black" stroke-width="1.5"/>
</svg>
