<svg width="102" height="97" viewBox="0 0 102 97" fill="none" xmlns="http://www.w3.org/2000/svg">
<g opacity="0.5">
<path d="M79.797 16H1.20298C0.538682 16 0 16.5387 0 17.203V95.797C0 96.4613 0.538682 97 1.20298 97H79.797C80.4613 97 81 96.4613 81 95.797V17.203C81 16.5387 80.4613 16 79.797 16ZM59.5872 18.406C58.127 18.7483 56.6652 19.1255 55.2032 19.5401C48.6353 21.4026 42.0474 23.9945 35.6193 27.2427C34.8895 26.7825 33.5106 25.8496 32.0796 24.5469C30.4897 23.0995 28.5732 20.9412 27.7601 18.406H59.5872ZM25.2592 18.406C26.4286 23.1628 30.7017 26.7652 33.1804 28.5098C25.9656 32.3658 20.9341 36.0049 18.7502 37.683C14.6392 29.347 7.73582 21.9046 4.20899 18.406H25.2592ZM2.40595 20.0196C5.86301 23.4556 12.9485 31.0692 16.861 39.2997C11.1695 44.709 5.05301 46.6348 2.40595 47.2524V20.0196ZM2.40595 49.7229C4.8551 49.2261 11.1263 47.5046 17.2963 42.1537C17.3664 43.5152 17.4229 45.406 17.3895 47.7306C17.3799 48.3949 17.9108 48.9412 18.5751 48.9505C18.5811 48.9505 18.5868 48.9507 18.5928 48.9507C19.2492 48.9507 19.7858 48.4233 19.7953 47.765C19.8504 43.9317 19.6722 41.2698 19.5705 40.0969C20.6044 39.2802 23.2459 37.2696 27.1701 34.7907C27.0863 36.1201 27.0603 37.8844 27.2505 39.871C27.761 45.2024 29.6231 49.7534 32.6506 53.0964C30.9376 56.3345 29.4032 60.1665 28.4952 64.5236C24.0239 62.6068 20.4723 61.4918 18.7977 61.0085C19.2207 57.8442 19.4792 54.9444 19.6275 52.3802C19.6658 51.717 19.1593 51.1483 18.4958 51.1099C17.8322 51.0705 17.2639 51.578 17.2255 52.2415C16.9445 57.1035 16.2625 63.189 14.7792 70.0256C10.0646 70.4557 5.10047 73.8361 2.40627 75.9553V49.7229H2.40595ZM41.3163 71.3026C45.9124 66.2996 53.6873 66.0191 56.8017 66.1282C56.1719 71.2045 55.196 76.5552 53.6965 81.5368C49.8884 77.414 45.5347 74.0246 41.3163 71.3026ZM46.1983 77.8043C35.0896 84.1499 18.3995 84.6803 13.132 84.6793C15.8328 76.9819 17.4731 69.7392 18.4498 63.4182C22.4878 64.6233 35.3285 68.9352 46.1983 77.8043ZM50.2554 64.1926C49.0746 61.5579 45.2763 53.979 38.4728 48.375C38.7555 47.9955 39.0342 47.6329 39.3057 47.2904C42.4987 43.2643 45.435 40.9447 45.9026 40.5857C46.5737 40.2355 51.3701 37.7816 57.6309 35.7793C57.837 39.201 58.2276 48.0463 57.5551 58.1466C57.4368 59.9251 57.2806 61.7989 57.077 63.7291C55.5722 63.6625 53.0522 63.6734 50.2554 64.1926ZM47.8612 64.7579C44.2493 65.7951 41.3619 67.5557 39.2473 70.0126C36.3586 68.2717 33.5892 66.8473 31.1697 65.7199C31.0277 65.6538 30.8877 65.5897 30.7469 65.525C31.9602 59.2847 34.5546 54.147 37.0827 50.3484C43.0162 55.3021 46.5709 62.0107 47.8612 64.7579ZM2.40595 94.594V79.0802C3.09524 78.4787 4.65924 77.1715 6.64817 75.8683C9.43761 74.0409 12.0151 72.9065 14.2066 72.5282C12.5653 79.3679 10.1117 86.8688 6.47858 94.5939H2.40595V94.594ZM9.13386 94.5939C10.2955 92.0593 11.3326 89.5508 12.2598 87.0824C12.549 87.0867 12.9043 87.09 13.3215 87.09C15.6517 87.09 19.8774 86.9886 24.8887 86.4047C34.5916 85.2738 42.4052 82.9364 48.1368 79.4551C49.7802 80.9169 51.3602 82.4906 52.837 84.1814C51.4684 88.0834 49.7365 91.6678 47.5476 94.5939H9.13386ZM50.4863 94.594C53.1752 90.5277 55.3459 85.2359 56.9512 78.8201C57.3788 77.111 57.7658 75.3181 58.1143 73.4507C59.2281 72.9724 62.0006 71.9057 65.5526 71.4266C65.6211 75.4235 66.1803 87.1694 70.2648 94.594H50.4863ZM78.594 70.6948C77.6746 70.2964 76.7271 69.9574 75.7603 69.6839C75.121 69.5033 74.4561 69.8746 74.2753 70.514C74.0944 71.1532 74.4659 71.8182 75.1053 71.999C76.3093 72.3395 77.4793 72.793 78.594 73.3474V94.5942H73.0717C68.5972 87.8513 68.0277 75.0458 67.9595 71.2104C69.1311 71.1588 70.357 71.1849 71.613 71.3228C72.2732 71.3961 72.8676 70.9188 72.9402 70.2585C73.0128 69.5981 72.5361 69.0039 71.8758 68.9313C66.2488 68.3133 61.2773 69.6869 58.5961 70.6671C59.2097 66.8171 59.6658 62.6747 59.958 58.2736C59.9833 57.893 60.0069 57.5142 60.0292 57.1374C60.8582 56.3972 63.7764 53.7036 66.9055 49.7825C67.1115 49.5245 67.3126 49.267 67.5113 49.0097C68.8903 51.4277 72.0655 55.5503 78.594 58.1931V70.6948ZM59.9968 35.0676C64.0773 33.9186 68.5942 33.0655 72.9147 33.1152C71.66 39.0078 68.008 44.5376 65.0539 48.2453C63.242 50.5191 61.4798 52.3847 60.1991 53.6577C60.5405 44.8604 60.1631 37.6267 59.9968 35.0676ZM78.594 55.5761C72.3036 52.7281 69.8111 48.3597 69.1066 46.8471C72.405 42.1459 74.4972 37.586 75.346 33.2435C76.4545 33.3522 77.5409 33.5324 78.594 33.7926V55.5761ZM78.594 31.3221C72.6972 30.0187 65.3643 30.7548 56.7655 33.52C53.1403 34.686 50.0286 35.9826 47.8708 36.9619L49.9802 32.6559C50.2724 32.0592 50.0257 31.3387 49.429 31.0464C48.8326 30.7542 48.1118 31.0008 47.8194 31.5976L44.2989 38.7839C43.4646 39.4361 40.6122 41.7847 37.4729 45.7295C36.3459 47.1456 35.1105 48.8673 33.9072 50.8692C28.6818 44.4902 29.4481 35.4683 29.739 33.2153C31.7705 32.0065 34.0559 30.7311 36.5677 29.4577C41.6479 26.8822 46.8286 24.7281 52.0167 23.0294L49.7128 27.7327C49.4206 28.3294 49.6672 29.0499 50.264 29.3422C50.4344 29.4256 50.6146 29.4651 50.7924 29.4651C51.2369 29.4651 51.6646 29.2176 51.8735 28.7912L55.1741 22.0536C55.4027 21.987 55.6313 21.9192 55.8596 21.8545C63.5157 19.6833 71.1572 18.5297 78.594 18.4169V31.3221Z" fill="#3E4145"/>
</g>
<circle cx="71.5" cy="30.5" r="30.5" fill="#E6DF00"/>
<path d="M81.2033 25.11L71.961 22.0605C71.941 21.9138 71.8753 21.7721 71.7625 21.6592L69.6833 19.5801C69.4089 19.3054 68.9637 19.3054 68.689 19.5801L67.7958 20.4732L60.0189 13.8688C59.3177 13.2731 58.425 12.9655 57.5052 13.0031C56.5857 13.0404 55.721 13.4195 55.0701 14.0701C54.4194 14.7211 54.0404 15.586 54.003 16.5053C53.9657 17.4248 54.273 18.3174 54.8688 19.0189L61.4732 26.7959L60.58 27.6891C60.4482 27.8209 60.374 27.9997 60.374 28.1862C60.374 28.3727 60.4482 28.5515 60.58 28.6833L62.6592 30.7625C62.7721 30.8754 62.9138 30.941 63.0605 30.9611L66.11 40.2033C66.205 40.4914 66.4742 40.6859 66.7777 40.6859C70.8478 40.6859 74.5414 39.0459 77.2345 36.3927C77.2617 36.3724 77.2883 36.3507 77.313 36.326C77.3372 36.3018 77.3586 36.2754 77.3787 36.2488C80.0401 33.5547 81.6861 29.855 81.6861 25.7777C81.6861 25.4745 81.4914 25.2053 81.2033 25.11ZM55.9408 18.1087C55.1887 17.2232 55.2431 15.8862 56.0646 15.0647C56.4986 14.6307 57.0765 14.4107 57.6557 14.4107C58.1729 14.4107 58.6909 14.5862 59.1087 14.9408L66.798 21.4711L62.471 25.7983L55.9408 18.1087ZM62.0717 28.1862L62.9256 27.3323L62.9259 27.332L68.3317 21.9262C68.332 21.9259 68.332 21.9259 68.332 21.9256L69.1862 21.0717L70.2711 22.1566L63.1566 29.2711L62.0717 28.1862ZM64.2717 30.1445L71.1445 23.2717L80.2705 26.2831C80.2247 27.518 80.0121 28.7108 79.655 29.8402L74.7321 27.4053C74.3841 27.2334 73.9622 27.376 73.7903 27.7239C73.618 28.0719 73.7606 28.4938 74.1086 28.666L79.1585 31.1635C78.5707 32.5093 77.7698 33.7417 76.7986 34.8173L73.654 31.6727C73.3794 31.3983 72.9341 31.3983 72.6595 31.6727C72.3851 31.9474 72.3851 32.3926 72.6595 32.6672L75.8032 35.811C74.731 36.7767 73.5035 37.5732 72.1635 38.1585L69.666 33.1086C69.4938 32.7606 69.0719 32.6181 68.7239 32.7903C68.3759 32.9622 68.2334 33.3841 68.4053 33.7321L70.8401 38.6551C69.7108 39.0121 68.5179 39.225 67.283 39.2703L64.2717 30.1445Z" fill="black"/>
<path d="M71.2578 30.9756C71.4427 30.9756 71.6239 30.9006 71.7549 30.7696C71.8857 30.6383 71.9609 30.4576 71.9609 30.2725C71.9609 30.0871 71.8857 29.9063 71.7549 29.7748C71.6239 29.644 71.4427 29.5693 71.2578 29.5693C71.0727 29.5693 70.8914 29.644 70.7607 29.7748C70.6299 29.9055 70.5547 30.0871 70.5547 30.2725C70.5547 30.4576 70.6299 30.6389 70.7607 30.7696C70.8914 30.9006 71.073 30.9756 71.2578 30.9756Z" fill="black"/>
<path d="M58.9972 16.1064C58.7225 15.8317 58.2773 15.8317 58.0027 16.1064C57.7283 16.3808 57.7283 16.826 58.0027 17.1006L60.7712 19.8692C60.9085 20.0065 61.0885 20.0752 61.2684 20.0752C61.4483 20.0752 61.6284 20.0065 61.7655 19.8692C62.0401 19.5945 62.0401 19.1493 61.7655 18.8747L58.9972 16.1064Z" fill="black"/>
<path d="M63.4815 20.5888C63.3508 20.4581 63.1692 20.3828 62.9844 20.3828C62.7995 20.3828 62.618 20.4581 62.4872 20.5888C62.3565 20.7195 62.2812 20.9011 62.2812 21.0859C62.2812 21.2708 62.3565 21.4523 62.4872 21.5831C62.618 21.7138 62.7995 21.7891 62.9844 21.7891C63.1692 21.7891 63.3508 21.7138 63.4815 21.5831C63.6122 21.4523 63.6875 21.2708 63.6875 21.0859C63.6875 20.9011 63.6122 20.7195 63.4815 20.5888Z" fill="black"/>
<path d="M86.6122 25.3317C87.5175 25.3317 88.423 24.987 89.1121 24.2979C89.673 23.7371 89.982 22.9914 89.982 22.1984C89.982 21.4055 89.673 20.6598 89.1121 20.0989C88.637 19.6238 88.0053 19.3623 87.3332 19.3623C86.6613 19.3623 86.0294 19.6238 85.5542 20.0989C84.7148 20.9386 84.7148 22.3047 85.5542 23.1444C86.2809 23.8708 87.4628 23.8708 88.1893 23.1444C88.4639 22.8697 88.4639 22.4245 88.1893 22.1498C87.9149 21.8754 87.4697 21.8754 87.195 22.1498C87.0168 22.3281 86.7267 22.3281 86.5487 22.1498C86.2573 21.8587 86.2573 21.3846 86.5487 21.0935C86.7583 20.8839 87.0368 20.7683 87.3332 20.7683C87.6298 20.7683 87.9083 20.8839 88.1179 21.0935C88.4131 21.3885 88.5757 21.7809 88.5757 22.1984C88.5757 22.6159 88.4131 23.0084 88.1179 23.3034C87.2878 24.1337 85.9368 24.1337 85.1068 23.3034C84.8321 23.029 84.3869 23.029 84.1122 23.3034C83.8376 23.578 83.8376 24.0233 84.1122 24.2979C84.8016 24.9873 85.7069 25.3317 86.6122 25.3317Z" fill="black"/>
<path d="M75.213 41.1602C74.825 41.1602 74.5099 41.4749 74.5099 41.8633C74.5099 42.2516 74.825 42.5664 75.213 42.5664C76.7962 42.5664 78.084 43.8543 78.084 45.4374C78.084 46.6261 77.117 47.5935 75.928 47.5935C75.0543 47.5935 74.3438 46.8829 74.3438 46.0093C74.3438 45.3877 74.8491 44.8823 75.4704 44.8823C75.8901 44.8823 76.2312 45.2237 76.2312 45.6431C76.2312 46.0315 76.546 46.3463 76.9343 46.3463C77.3227 46.3463 77.6375 46.0315 77.6375 45.6431C77.6375 44.4484 76.6654 43.4761 75.4704 43.4761C74.0738 43.4761 72.9375 44.6126 72.9375 46.0093C72.9375 47.658 74.2789 48.9997 75.928 48.9997C77.8923 48.9997 79.4903 47.4015 79.4903 45.4374C79.4903 43.0789 77.5715 41.1602 75.213 41.1602Z" fill="black"/>
<path d="M86.242 36.6717C84.674 36.6717 83.3984 35.3961 83.3984 33.8281C83.3984 33.4398 83.0837 33.125 82.6953 33.125C82.3069 33.125 81.9922 33.4398 81.9922 33.8281C81.9922 36.1715 83.8986 38.0779 86.242 38.0779C86.6303 38.0779 86.9451 37.7632 86.9451 37.3748C86.9451 36.9867 86.6303 36.6717 86.242 36.6717Z" fill="black"/>
<path d="M89.2813 36.6729C89.0961 36.6729 88.9149 36.7473 88.7841 36.878C88.6534 37.0088 88.5781 37.1903 88.5781 37.3752C88.5781 37.5608 88.6534 37.7421 88.7841 37.8728C88.9149 38.0036 89.0961 38.0791 89.2813 38.0791C89.4661 38.0791 89.6474 38.0039 89.7784 37.8728C89.9091 37.7421 89.9844 37.5608 89.9844 37.3752C89.9844 37.1903 89.9091 37.0088 89.7784 36.878C89.6474 36.7473 89.4661 36.6729 89.2813 36.6729Z" fill="black"/>
<path d="M80.9844 39.2969C80.7993 39.2969 80.618 39.3721 80.4872 39.5029C80.3565 39.6336 80.2812 39.8152 80.2812 40C80.2812 40.1848 80.3565 40.3664 80.4872 40.4971C80.618 40.6279 80.7993 40.7031 80.9844 40.7031C81.1692 40.7031 81.3505 40.6279 81.4815 40.4971C81.6122 40.3664 81.6875 40.1848 81.6875 40C81.6875 39.8152 81.6122 39.6336 81.4815 39.5029C81.3505 39.3721 81.1692 39.2969 80.9844 39.2969Z" fill="black"/>
<path d="M85.2031 44.377C85.018 44.377 84.8367 44.4522 84.706 44.5829C84.5753 44.7137 84.5 44.8952 84.5 45.0801C84.5 45.2657 84.5753 45.4465 84.706 45.5772C84.8367 45.708 85.018 45.7832 85.2031 45.7832C85.388 45.7832 85.5692 45.708 85.7003 45.5772C85.831 45.4465 85.9063 45.2649 85.9063 45.0801C85.9063 44.8952 85.831 44.7137 85.7003 44.5829C85.5692 44.4522 85.388 44.377 85.2031 44.377Z" fill="black"/>
<path d="M86.9453 31.2812C86.7605 31.2812 86.5792 31.3565 86.4485 31.4872C86.3169 31.618 86.2422 31.7995 86.2422 31.9844C86.2422 32.1692 86.3169 32.3508 86.4485 32.4815C86.5792 32.6122 86.7605 32.6875 86.9453 32.6875C87.1304 32.6875 87.3117 32.6122 87.4424 32.4815C87.5735 32.3508 87.6484 32.1692 87.6484 31.9844C87.6484 31.7995 87.5735 31.618 87.4424 31.4872C87.3117 31.3565 87.1302 31.2812 86.9453 31.2812Z" fill="black"/>
<path d="M68.4141 42.0859C68.2289 42.0859 68.0477 42.1606 67.9169 42.2922C67.7859 42.4229 67.7109 42.6037 67.7109 42.7891C67.7109 42.9742 67.7859 43.1555 67.9169 43.2862C68.0477 43.4169 68.2289 43.4922 68.4141 43.4922C68.5995 43.4922 68.7802 43.4172 68.9109 43.2862C69.0425 43.1555 69.1172 42.9742 69.1172 42.7891C69.1172 42.6037 69.0425 42.4229 68.9109 42.2922C68.7802 42.1606 68.5995 42.0859 68.4141 42.0859Z" fill="black"/>
</svg>
